<svg width="161" height="80" viewBox="0 0 161 80" fill="none" xmlns="http://www.w3.org/2000/svg">
<path fill-rule="evenodd" clip-rule="evenodd" d="M38.7334 71.4315C35.2577 72.2437 31.3871 72.6904 27.24 72.6904C12.7448 72.6904 0.974854 67.1269 0.974854 60.264C0.974854 53.5634 12.2313 48.1218 26.2921 47.8782C27.477 35.2487 38.4965 25.3401 51.9252 25.3401C53.7816 25.3401 55.5984 25.5431 57.3363 25.868C63.2607 10.7614 78.4668 0 96.3192 0C119.306 0 137.948 17.9086 137.948 40C137.948 41.0152 137.909 42.0305 137.83 43.0457C143.873 44.0609 148.376 48.2437 148.376 53.2386C148.376 53.7259 148.336 54.2132 148.257 54.7005C155.998 57.1777 160.975 61.0355 160.975 65.3401C160.975 72.8122 146.124 78.8629 127.837 78.8629C121.992 78.8629 116.502 78.2538 111.723 77.1574C106.944 78.9848 101.77 80 96.3192 80C85.4577 80 75.5441 75.9797 68.1188 69.4416C63.6952 72.8934 58.0867 74.9239 51.9252 74.9239C47.1067 74.9239 42.6041 73.665 38.7334 71.4315Z" fill="#3ABEF9"/>
</svg>
