<svg id="图层_1" data-name="图层 1" xmlns="http://www.w3.org/2000/svg" xmlns:xlink="http://www.w3.org/1999/xlink" viewBox="0 0 300 300"><defs><style>.cls-1{fill:none;}.cls-2{fill:#7babdb;}.cls-3{clip-path:url(#clip-path);}.cls-4{fill:#ebebeb;}.cls-5{fill:#fbfbfb;}.cls-6{fill:#ffb67d;}.cls-7{fill:#255794;}.cls-8{fill:#4e84c7;}.cls-9{fill:#4f2619;}.cls-10{fill:#ffd9b3;}.cls-11,.cls-13{fill:#bf3c1b;}.cls-11{opacity:0.15;}.cls-12{fill:#ffcb9e;}.cls-13,.cls-15{opacity:0.3;}.cls-14{fill:#305d80;}.cls-15{fill:#b54d26;}.cls-16{fill:#ffdfc2;}.cls-17{fill:#86bae3;}.cls-18{fill:#f7a286;}.cls-19{fill:#8f3935;}.cls-20{fill:#fff9f0;}.cls-21{fill:#e8dac5;}.cls-22{fill:#784430;}</style><clipPath id="clip-path"><ellipse id="SVGID" class="cls-1" cx="150.22" cy="150.05" rx="149.78" ry="149.95"/></clipPath></defs><title>people avatar</title><ellipse class="cls-2" cx="150" cy="150.05" rx="150" ry="149.94"/><g class="cls-3"><path class="cls-4" d="M116,240.12c-15.4,7.76-16.74,43.39-14.15,59.88h97.69c3-17.11,2-55-13.14-61.28C163.89,229.33,131,232.57,116,240.12Z"/><path class="cls-5" d="M150.36,266.46c10.51.19,55.12-23.81,23.77-47.16-9-6.71-26.59-7.79-37.36-5.59C125.55,216,118.09,225.86,117.31,236,116.35,248.9,136.42,266.12,150.36,266.46Z"/><path class="cls-6" d="M150.74,257.62c8.57.15,44.94-19.43,19.38-38.46-7.35-5.48-21.68-6.36-30.46-4.57a20.24,20.24,0,0,0-15.87,18.2C123,243.29,139.37,257.33,150.74,257.62Z"/><path class="cls-7" d="M226.47,300c0-1.12,1.23-19.87.38-28.26-1.15-11.37-8.72-23.65-29.54-30.24l-9.14,19.57c10.76,5.38,12.22,38.93,12.22,38.93Z"/><path class="cls-7" d="M183.75,237s20.55,5.9,22.45,9.73c.87,1.75-.63,37.76-2.77,53.31H175.6C176.66,286.9,179.06,248.77,183.75,237Z"/><path class="cls-8" d="M179.87,251.69c2.35-3.14,16.17,13.22,14.74,16-.43.82-13.89,28.11-15.47,32.32h-4.23C175.78,288.81,177.48,254.89,179.87,251.69Z"/><path class="cls-8" d="M183.84,233.16c11.09,5.07,16.18,18.83,15.93,21.63s-21.12,5.26-20.86,2.37C179.28,253.21,183.84,233.16,183.84,233.16Z"/><path class="cls-7" d="M117.72,237s-20.54,5.9-22.44,9.73c-.87,1.75.63,37.76,2.77,53.31h27.83C124.82,286.9,122.41,248.77,117.72,237Z"/><path class="cls-7" d="M75,300c0-1.12-1.23-19.87-.39-28.26,1.15-11.37,8.73-23.65,29.55-30.24l9.14,19.57C102.55,266.45,101.09,300,101.09,300Z"/><path class="cls-8" d="M121.61,251.69c-2.35-3.14-16.18,13.22-14.74,16,.43.82,13.89,28.11,15.46,32.32h4.24C125.7,288.81,124,254.89,121.61,251.69Z"/><path class="cls-8" d="M117.64,233.16c-11.09,5.07-16.19,18.83-15.93,21.63s21.12,5.26,20.85,2.37C122.21,253.21,117.64,233.16,117.64,233.16Z"/><path class="cls-9" d="M214.19,32a31.27,31.27,0,0,0-8.31-13c-6.63,13.45-24.95,20.76-39.14,18.29a9.07,9.07,0,0,0,3.42-6.84c-5.64,1.2-10.86,3.86-16.56,4.93C131,39.6,108.42,40.22,89.45,55.51,62.72,77.05,66.7,112.07,72.06,141.56c2.91,16,5.52,34,13,48.53,5.38,10.56,10.77,6.11,18.68,1.94,10.23-5.4,25.34-6.32,36.7-6.86,11.7-.55,28.78-1.52,39.64,3.59,7.12,3.35,10.88,6.06,18.15.48,5.3-4.06,9.23-10.59,12-16.59,4.4-9.66,4.54-19.35,5.38-29.75,1.08-13.41,4.56-24.5,3.48-38-.38-4.71-6.11-22.75,4.34-38a76,76,0,0,0-11,2c6.93-1.77,5.33-19.12,4.79-23.72A60.9,60.9,0,0,0,214.19,32Z"/><path class="cls-10" d="M80.39,175c5,36.36,33,76.26,75.16,73.25C198.61,245.15,220,191.69,214.46,147c-6-48.62-29-89.15-79.39-79.32C99.13,74.67,73.8,126.42,80.39,175Z"/><path class="cls-11" d="M140.27,106.62c-9.38-2.67-22.33-5-31.32-1.67-12.74,4.66-14.81,22-20.24,32.76A27.37,27.37,0,0,1,81.18,125c-1.29-5.7-1.41-12-1.68-17.79-.3-6.33-.86-13.42,1.2-19.53C83.21,80.25,91.47,76.07,98.19,73c12.23-5.54,26.49-4.8,39.61-4.57a161.82,161.82,0,0,1,43.59,6.85c9.35,2.8,26.94,5.3,30.18,16.18,4.09,13.75-15.84,18.6-25.66,21-17.52,4.32-27.53-.38-43.75-5.33Z"/><path class="cls-12" d="M71.71,190.59A34.82,34.82,0,0,0,86,192.15l.28-.44c2.11-3.36-.85-22.17-1.93-25.71-2.71-8.92-8-13.59-16.46-11.25C50.2,159.61,57.29,185.41,71.71,190.59Z"/><path class="cls-13" d="M78.54,184.22c6.43-4.05.35-17.74-4.49-20-4-1.84-13.87,1.46-9.21,9.23,2.45-7.2,6.83-2.49,6.16,2.63-.44,3.43-4.13,3.48-.47,7.88C72.51,186.38,76.52,185.49,78.54,184.22Z"/><path class="cls-9" d="M187.31,57.68C172.14,44.8,154.06,42.74,135,47.15c-11.65,2.7-24.94,4.3-34.65,11.83C92.44,65.1,84,71.63,78.43,80.08c-9.28,14.13-4.62,70,1.51,78.26.66.89,8.07,10.09,11.54,9.82a170.11,170.11,0,0,1-1-36.51c1.16-16.26,4.9-33.82,23.43-36.75,10.54-1.67,44,12.77,51.68,14.38,10.24,2.17,34.25-9.3,37.74-10.75,8.61-3.58,8.11-13.44,4.06-20.2C202.41,70,194.63,63.9,187.31,57.68Z"/><path class="cls-14" d="M115.45,161.18a13.19,13.19,0,0,0-9.17-.78c-6.32-5.38-.49-21.83,8.78-17.85C122,145.53,121.67,158,115.45,161.18Z"/><path class="cls-15" d="M171.81,173.61c-2.3-2.84-5.56.31-11.56.37-5.42.07-7.56-2.4-11.35-.14s1.63,9.47,11.21,9.13S173.8,176.06,171.81,173.61Z"/><path class="cls-16" d="M158.5,147.06c-5.66.81-10.61,27.2-8.29,29,5.71,4.51,17.62,1.32,21.09-2.3C172.67,172.36,168.15,145.68,158.5,147.06Z"/><path class="cls-14" d="M204.26,143.26c5.05,3,5,13.48,1.22,17.67-2.39-1.12-7.34-1.62-9.8,0C187.91,155.8,194.84,137.6,204.26,143.26Z"/><path class="cls-17" d="M111.76,145.32c3.34-1.13,5.41,4,2.76,5.94C110.86,153.92,108,146.6,111.76,145.32Z"/><path class="cls-17" d="M200.57,145.35c3.3-.66,4.62,4.49,1.87,6C198.64,153.4,196.87,146.1,200.57,145.35Z"/><path class="cls-18" d="M199.41,188.16c-2.6-1.78-5.7-3.22-8.26-4.79.23,1.18.1,1.93,1.31,3.11-11,.66-22.06,1.53-33.11,2-7.31.33-14.61.86-21.93,1-5.36.09-15.51,1.13-19.71-1.84a11.34,11.34,0,0,0,3.86-2.23c-3.85-.27-14.31,3.4-19.45,7.82,4.08-1.7,9.52-4.12,13.19-.61,5.79,5.51,12.17,11.61,19.92,16.74,15.44,10.24,45.6,9,53.66-10.59.7-1.72,4.28-7.45,6.81-8.07,1.18-.29,8,1.56,8.29,2.25A13.15,13.15,0,0,0,199.41,188.16Z"/><path class="cls-19" d="M118.59,190.5s33.66,7.25,77.37-2.21a19.8,19.8,0,0,0-10,9.28c-2.9,6.16-13.43,10.59-29.54,10.63A48,48,0,0,1,118.59,190.5Z"/><path class="cls-20" d="M128,191.93s.85,5.43,9.82,7.37c11.5,2.48,23.86,2.42,36.59.58C182.94,198.65,187,190,187,190S162.55,195.19,128,191.93Z"/><path class="cls-20" d="M132.28,199.71c-.9-1.4-.56-3.7,3.58-1.66,5.79,2.88,15.35,3.32,26.84,2.77,10.65-.52,16-3.14,18.12-1.64s-7.25,10.6-25.61,9.29C136.1,207.11,132.28,199.71,132.28,199.71Z"/><path class="cls-21" d="M130.29,195.72s43-3.73,53.29-.87c0,0,3-3.07,3.46-4.83,0,0-30,5-59.09,1.91A8.13,8.13,0,0,0,130.29,195.72Z"/><path class="cls-21" d="M139.3,199.1s14.53,4.45,33.89.53C173.19,199.63,154.82,206.26,139.3,199.1Z"/><path class="cls-9" d="M94.57,136.32c7.91-9.54,29.6-10.64,35.92.68C118.21,137.61,112.25,136.63,94.57,136.32Z"/><path class="cls-9" d="M215.72,136.75c-6.76-9.49-25.45-10.47-31,.88C195.33,138.18,200.47,137.16,215.72,136.75Z"/><path class="cls-22" d="M134.08,44.38a102.29,102.29,0,0,1,24-2.52c15.55.23,36.59,1.54,47.24-12.34,10.52,12.12,9.55,35.32-2,46.92-.07.07,0,0,.07-.09A34.73,34.73,0,0,1,215.2,73.9c2.07,9.67-19,17.25-31.14,24.84,2-5.07,7.24-12.75,8.76-19.06-2.28,1.62-25.35,18.45-26.85,21.07-1.87-2,27.68-36.87,28.07-40-1.84.91-37.23,33.92-39,36-3.34-4.06,16.21-27.7,17.7-32.68-1.7.47-37.39,22.5-37.32,22.74-1.19-4,11.58-14.45,13.82-17.85-.87.06-29.35,11.9-29,13.52a20.43,20.43,0,0,1,.53-9.08c-16.85.67-31.16,8-41.33,21,1-1.28,0-10.55.7-13.07a48.81,48.81,0,0,1,5.1-12.32C89.37,61.91,96.22,58.35,103.7,55A158.75,158.75,0,0,1,134.08,44.38Z"/></g></svg>