<svg xmlns="http://www.w3.org/2000/svg" xmlns:xlink="http://www.w3.org/1999/xlink" viewBox="0 0 300 300"><defs><style>.cls-1{fill:none;}.cls-2{clip-path:url(#clip-path);}.cls-3{fill:#8d88b5;}.cls-4{fill:#3a3a4a;}.cls-5{fill:#1e1e29;}.cls-13,.cls-6{opacity:0.3;}.cls-7{fill:#535363;}.cls-8{fill:#f29f63;}.cls-9{fill:#1c1c26;}.cls-10{fill:#3f2b0d;}.cls-11{fill:#977053;}.cls-12{fill:#ffbc82;}.cls-13{fill:#a63f24;}.cls-14{fill:#b54319;opacity:0.5;}.cls-15{fill:#4c3e31;}.cls-16{fill:#967d54;}.cls-17{fill:#967e59;}.cls-18{fill:#202930;}.cls-19{fill:#ffd4ad;}.cls-20{fill:#c3cee6;opacity:0.7;}.cls-21{fill:#756749;}.cls-22{fill:#8f2a25;}.cls-23{fill:#fff7ea;}.cls-24{fill:#ecdcc4;}</style><clipPath id="clip-path"><circle id="SVGID" class="cls-1" cx="150" cy="150" r="150"/></clipPath></defs><title>people avatar</title><g id="图层_3" data-name="图层 3"><g class="cls-2"><ellipse class="cls-3" cx="150" cy="150.05" rx="150" ry="149.94"/><path class="cls-4" d="M180,234.08c-22.24-12-54.67-7.83-69.45,1.78C91.23,248.42,94.33,268.78,99.35,300h90.54C195.36,269.9,198.91,244.24,180,234.08Z"/><path class="cls-5" d="M199.48,244.22c-1.87-4.88-23.93-12.26-23.93-12.26-6.15,20-7.35,46.35-6.92,68h28.79C199.07,270.07,200.68,247.33,199.48,244.22Z"/><path class="cls-5" d="M191.63,238.47,187.43,300H215.1c1-7.18,2.52-19.74,3.23-32.24C219.42,248.59,205.48,244.24,191.63,238.47Z"/><path class="cls-5" d="M113,232S90.91,239.34,89,244.22c-1.19,3.11.42,25.85,2.07,55.78h28.79C120.31,278.31,119.12,251.94,113,232Z"/><path class="cls-5" d="M70.19,267.76c.71,12.5,2.25,25.06,3.24,32.24h27.66l-4.2-61.53C83,244.24,69.09,248.59,70.19,267.76Z"/><path class="cls-6" d="M114.49,246.66c4.3,15.24,19.13,23.86,19.13,23.86l10.54-12.2L158,270.44c9.46-5.14,18.6-17.42,18.75-27.67C176.88,235.39,110.19,231.43,114.49,246.66Z"/><path class="cls-7" d="M114.65,228.54c-11.8,16.78,18,38,18,38l11.59-9.64L157.42,267s27-15.69,17.42-36.72C166.23,211.32,126.54,211.65,114.65,228.54Z"/><path class="cls-8" d="M165.56,213.46c-7.48-5.89-22.07-6.84-31-4.92-9.31,2-15.5,10.68-16.15,19.61-.81,11.31,15.86,26.42,27.43,26.73C154.55,255,191.58,234,165.56,213.46Z"/><path class="cls-7" d="M143.79,272.93a2.95,2.95,0,1,0,2.94,2.95A2.95,2.95,0,0,0,143.79,272.93Z"/><path class="cls-7" d="M143.67,287.69a2.95,2.95,0,1,0,3,2.95A2.95,2.95,0,0,0,143.67,287.69Z"/><path class="cls-9" d="M144.43,264.73l18.11,12.11c3.34-3.74,4.86-17.12,1.05-21.27Z"/><path class="cls-9" d="M126.31,276.84l18.12-12.11-19.17-9.16C121.45,259.72,123,273.1,126.31,276.84Z"/><path class="cls-9" d="M145.75,258.34c-.45,0-1,0-1.59,0-2.22-.09-5.1-.23-6.49,1.11-2,2-.18,7,.73,9.25,1.38,3.48,4.92,2.15,8.11,2.22,4.68.1,5.72-3.49,5.84-7.85C152.47,258.4,149.48,258.21,145.75,258.34Z"/><path class="cls-10" d="M137.41,44c-22.52.82-46.24,11.18-57,31.88-4.18,8-5.8,18.17-6.06,27.11-.64,21.21-3.34,40.76,6.34,60.74,5.06,10.44,17.61,3.71,26.43,1.67,10.84-2.51,21.75-4.78,32.66-7,17.92-3.67,37.46.56,55.56,2.56,14.17,1.55,9.28-11.81,8.35-23.33-1.38-17.18,3.8-22,4.36-30.69C210.81,64.93,189.79,42.1,137.41,44Z"/><path class="cls-11" d="M187.78,94.43c-4,31.47-.73,52.22.65,54.2,1.71,0,5.23,0,7.74,2.58,3.36,3.4,3.17,7,4.08,8.91.41.95,7,2,10.26,1.92C215.25,96.65,203.71,95.87,187.78,94.43Z"/><path class="cls-12" d="M139.41,71.06C105.61,76.19,80,123.37,84.2,168.85c3.18,34.05,27.72,72.31,67.19,71.17,40.25-1.16,62.33-50.1,58.91-92C206.58,102.55,186.73,63.9,139.41,71.06Z"/><path class="cls-13" d="M197.5,86.07c-18-8.06-35.58-12.95-55.58-14.16-12.23-.73-25.49-2-37.11,2.7-17.39,7-25.16,18.36-28.09,36.08-1.11,6.62-1.19,17.78,7.61,18.78,10.31,1.17,13.08-9.37,16.32-16.47,2.79-6.1,7-9.46,13.75-10,9.28-.74,18.56,3.43,27.78,5.73a53,53,0,0,0,6,1.17c7.83,1,15.14.32,23-.83,5.6-.82,10.81-3.12,16.25-4.12,3.74-.7,9.41-1.58,12.44-3.28C207.5,97.37,202.63,88.37,197.5,86.07Z"/><path class="cls-12" d="M73.31,149.52c-16.65,3.83-11.07,28.14,2.18,33.53a32.48,32.48,0,0,0,13.23,2c.08-.13.18-.26.28-.4,2.1-3,.08-20.67-.79-24C86,152.23,81.29,147.67,73.31,149.52Z"/><path class="cls-14" d="M78.7,158.6c-3.61-1.85-13,.83-9,8.23,2.58-6.59,6.48-2,5.65,2.71-.55,3.18-4,3.08-.75,7.33,1.75,2.28,5.51,1.63,7.46.52C88.25,173.87,83.13,160.88,78.7,158.6Z"/><path class="cls-15" d="M206.08,54.78C202.15,52.35,192,54,187.37,53c2.29-6.85,7.75-10.84,8.07-18.44-4.67,1.58-9,4.39-14.12,4.44.88-3.05,2.62-7.23,2.71-10.4-4.74,3.15-11.34,6.24-17,6.83a90,90,0,0,1,1.88-10.63,122.21,122.21,0,0,0-12.07,7.05c-.8.5-9.18,4.64-9.1,3.52.15-2-.08-4.09,0-6.15-3.49,3.64-9.22,6.74-14.26,7.18a12.57,12.57,0,0,1-.29-3.59c-10.73,8.58-20.14,14.7-35.63,23.89-6.86,4.08-10,11.55-13.74,18.75-2.67,5.19-7.76,17.8-4.46,23.07,2.48,4,16.49,12.88,21.44,7,2.72-3.24,6.63-6.88,16.78-7,9.89-.12,19.66,3.65,29,6.5,10.54,3.22,20.48,1.75,30.89-1,4-1.08,9.37-1.74,14.48-2.84,6.27-1.35,13.92-3.24,14.71-10.57.74-6.88.94-17.63,5.69-18.54-4.23-4.13-8.86-6-14.26-7.69C199.91,60.82,203.63,57.76,206.08,54.78Z"/><path class="cls-16" d="M75,95c-4,31.47-.71,52.22.66,54.2,1.71,0,5.22,0,7.75,2.57,3.35,3.41,3.16,7.07,4.07,8.93.41.94,4.13,2.39,7.37,2.29-2.2-21.32,1.7-51.18,6.06-57.51C85.72,103.27,76.07,96.78,75,95Z"/><path class="cls-17" d="M208.28,71.24c-4-2.71-10.09-3.37-14.77-4.09.34-4.92,3.86-8.63,6.41-12.6-6.36-.89-12.67,3.92-19,3.37,2.76-5.82,8.45-13.36,9.51-19.41-4.56,1.33-9.46,4.28-14.38,4.15A39.41,39.41,0,0,0,177.76,33c-4.52,2.92-9.67,8.06-15.6,8.24-.47-3.44.74-7.16.2-10.39-5.07,5.09-11.08,8.16-17.61,11.34-.63-2.12-1.27-4.6-1.82-6.76-2.88,2-15.21,13.29-13.85,4.45C119,50.2,99.18,55.73,91.59,68.31c-4.4,7.31,5.85-6.79,42.28-14.61,2.26-.49-22.69,16.53-22.48,18.6,2.09-.75,34.52-17.9,34.91-14.89,1,8-27.38,23.19-31.65,29-.09,0,50.81-30,56.37-30.35.09,8-27.81,32.49-33.62,35.83,12.35-2.18,37.09-24.78,49-27.28-1.3,2.87-28.25,27.83-33.36,31.59C159.21,94.13,189,76.4,196.1,74c-.66,9-19.37,22.39-25.86,26.5,4.45-2,22.07-11.11,26.39-13.6-.61,3.69-2.94,7-4.66,10.3,3.53-2.73,8.34-5.16,10.68-9.29,1.69-3,2.42-7,3.69-10.14a21.13,21.13,0,0,1-3.92.24C203.33,75.21,206.32,73.35,208.28,71.24Z"/><path class="cls-18" d="M123.67,140.9c-8.49-4.09-14.57,11-8.89,16.26a12.33,12.33,0,0,1,8.53,1.1C129.22,155.5,130,143.94,123.67,140.9Z"/><path class="cls-14" d="M158.68,171.07c-5-.14-6.94-2.53-10.56-.57s1.14,8.88,10.09,8.93,13-5.89,11.27-8.25C167.45,168.45,164.29,171.26,158.68,171.07Z"/><path class="cls-19" d="M157.7,140.56c-4.13.2-5.67,12.79-7.44,18.72s-3.1,11.56-1,13.37c5.15,4.43,16.38,1.93,19.76-1.31,1.33-1.28-1.32-7.47-3.35-13.66C163.86,152.19,162.38,140.34,157.7,140.56Z"/><path class="cls-18" d="M198.27,143.46c-8.56-5.63-15.74,11-8.69,16.14,2.37-1.42,6.95-.76,9.14.37C202.41,156.23,202.86,146.5,198.27,143.46Z"/><path class="cls-20" d="M120.47,143.44c-3.55,1-1.17,8,2.35,5.64C125.36,147.39,123.63,142.52,120.47,143.44Z"/><path class="cls-20" d="M194.76,145.18c-3.49.54-2.12,7.41,1.5,5.64C198.89,149.53,197.86,144.69,194.76,145.18Z"/><path class="cls-21" d="M130.87,127c-4.41-.21-8.36-1.71-12.64-2.48-5.58-1-12.7,3.89-14.73,9a20.08,20.08,0,0,0,3.85-.55,28.7,28.7,0,0,1,5.58-.95c3.63-.07,7.32,1.34,10.87,1.81,2.69.35,15.58,3.71,15.82-.43.07-1.38-.45-5.16-1.58-6.14C136.59,126,132.64,127,130.87,127Z"/><path class="cls-21" d="M185.3,128.49c-1.64,0-5.22-1.37-6.67-.21-1.12.89-1.95,4.62-2,6-.16,4.12,12.07,1.71,14.59,1.56,1.37-.09,6.67-.67,8.09-.89-.08-2,.92-6.59,1-7.42A122.63,122.63,0,0,1,185.3,128.49Z"/><path class="cls-21" d="M202.94,128.8c0,2-.67,4-.41,5.83,1,.27,6.4.16,7.61.29C209.4,132.15,205.48,130.75,202.94,128.8Z"/><path class="cls-14" d="M111.65,180.68s8.64,38.06,38,41.41c18.77,2.14,25-7.48,32.52-19.11,4.44-6.91,7.59-14.47,12.62-20C181.84,193,147.16,202.08,111.65,180.68Z"/><path class="cls-14" d="M188,183.61c-1.07.73,1.24.3,4.36-.09s1.84,4.71,3.77,4.26,2.61-4.14.42-6.19S188,183.61,188,183.61Z"/><path class="cls-14" d="M111,179.07c-2.77.63-4.39,5.3-2.66,6.18s2.82-3.32,5.84-4c3.24-.7,7.08.57,6.22-.37C120.35,180.91,114.06,178.37,111,179.07Z"/><path class="cls-22" d="M117.38,186.28s8,27.78,34.7,30c13.25,1.11,22.6-8.07,26.95-15a59.86,59.86,0,0,1,10.75-12.74C149.26,211,117.38,186.28,117.38,186.28Z"/><path class="cls-23" d="M117.38,186.28S124.15,198,133,202.17c11.35,5.33,21.94,6.28,35.36,3.79,9-1.68,21.41-17.45,21.41-17.45S157.65,207.42,117.38,186.28Z"/><path class="cls-23" d="M155.92,205.74c-12.26-.68-18.61-3.54-24.21-6.21-4.67-2.22-4.36,2.62-3.58,5,0,0,4.2,8.75,21.75,11.5,16.53,2.57,25.13-9.62,23.08-12.26S168.18,206.42,155.92,205.74Z"/><path class="cls-24" d="M117.38,186.28s3.33,6.31,6.65,8.88c0,0,30,8,59,.84,0,0,6.11-5.31,6.71-7.49C189.78,188.51,156.63,207,117.38,186.28Z"/><path class="cls-24" d="M128.32,199.35c25.27,16.61,42.58,5.35,42.58,5.35A73.38,73.38,0,0,1,128.32,199.35Z"/></g></g></svg>