<svg xmlns="http://www.w3.org/2000/svg" xmlns:xlink="http://www.w3.org/1999/xlink" viewBox="0 0 300 300"><defs><style>.cls-1{fill:none;}.cls-2{clip-path:url(#clip-path);}.cls-3{fill:#edd7ca;}.cls-4{fill:#8d573e;}.cls-5{fill:#3a3a4a;}.cls-6{fill:#e0e0e0;}.cls-7{fill:#f29058;}.cls-8{fill:#0a0a0a;}.cls-9{fill:#f9b870;}.cls-10{fill:#a63f24;opacity:0.3;}.cls-11{fill:#111;}.cls-12{fill:#b54319;opacity:0.5;}.cls-13{fill:#2d2d2d;}.cls-14{fill:#1f1a17;}.cls-15{fill:#ffcb9e;}.cls-16{fill:#a87f7f;}.cls-17{fill:#8f2724;}.cls-18{fill:#fff9f0;}.cls-19{fill:#e8dac5;}.cls-20{fill:#232323;}</style><clipPath id="clip-path"><circle id="SVGID" class="cls-1" cx="150.05" cy="150.05" r="149.95"/></clipPath></defs><title>people avatar</title><g id="图层_5" data-name="图层 5"><g class="cls-2"><rect class="cls-3" x="0.1" y="0.11" width="299.89" height="299.89"/><path class="cls-4" d="M111.16,262.48l-12-19c-17,10.73-26.89,31.11-25.75,53.2.06,1.13.17,2.25.28,3.36H96.41a44.1,44.1,0,0,1-.53-4.51C95.17,281.52,101,268.87,111.16,262.48Z"/><path class="cls-4" d="M203.3,243.44l-12,19c10.14,6.39,16,19,15.28,33a44.1,44.1,0,0,1-.53,4.51h22.71c.11-1.11.22-2.23.28-3.36C230.19,274.55,220.33,254.17,203.3,243.44Z"/><path class="cls-5" d="M185.38,237.09c-22.23-11.94-54.64-7.83-69.42,1.78C97.28,251,99.59,270.5,104.29,300h91.52C201,271.21,203.67,246.91,185.38,237.09Z"/><path class="cls-6" d="M150.13,270.43c-11.78-.34-32.91-27.71-32.91-27.71l-9.35,1.74,1.39,36.43L184.42,282l.34-36.52S161.9,270.78,150.13,270.43Z"/><path class="cls-4" d="M118.35,234.72s-22,7.63-23.84,12.51c-1.44,3.76,3.7,29,7.75,52.77h23.68C126.05,279.49,124.47,254.61,118.35,234.72Z"/><path class="cls-4" d="M208,247.23c-1.88-4.88-23.84-12.51-23.84-12.51-6.12,19.89-7.7,44.77-7.59,65.28h23.68C204.27,276.21,209.41,251,208,247.23Z"/><path class="cls-7" d="M171,216.48c-7.48-5.89-22.06-6.84-31-4.91-9.31,2-15.49,10.67-16.14,19.59-.81,11.3,22.13,32.19,27.42,32.49C155.22,263.82,197,237,171,216.48Z"/><path class="cls-8" d="M221.75,81.05c-23.13-21.38-42.48-38.23-84-33.92.83-3,1.53-6,2.48-9.06-7.45.75-18.78,10.13-18.78,10.13s-15.94-2.29-21.38,2.85c3.77,1.37,8,2.15,11.93,4.2-9.35,1.06-50.17,23-55.16,71.65.88-1.33,7.6-9,8.7-10-.23,10.09-.43,19.89,2.24,29.45,2.1,7.52,6.22,16.78,15.91,15.39,16-2.31,32-5.48,48-8.5,15.59-2.94,33.46-3.51,47.73,2.36,11,4.52,20.37,12.09,32.69,1.84,9.49-7.9,9-18.11,12.1-29.16,1.69.79,9,5.89,10.64,7,.34-9.3-5.27-27.14-8.43-35.37,4-1.14,9.14-.11,13-2.45C233.85,91.76,227.6,86.46,221.75,81.05Z"/><path class="cls-9" d="M147.89,69.18c-38.18.45-77.54,39.2-68.06,84.43,4.89,23.33,4.29,28.94,12.29,52.48,8.1,23.89,30.78,39.81,63.31,40.38,55.19,1,63.2-48.35,62.65-94.48S186.06,68.73,147.89,69.18Z"/><path class="cls-9" d="M69.32,144.42C50.2,148.06,55.81,172,70.75,177.36a42.28,42.28,0,0,0,15,2.08l.32-.4c2.5-2.95-.23-18.82-1.12-22.1C82.77,148.67,78.51,142.69,69.32,144.42Z"/><path class="cls-10" d="M197.8,94.18A169.68,169.68,0,0,0,143,91.07c-12.76,1.44-31.76-4-43.48.79-7.69,3.15-10.9,14.46-14.89,23.22-2.4,5.22-6.48,42.11,2.14,36.67,3-1.91,12.54-37,14.72-44.48,41.48,14.79,87.77,10.25,87.77,10.25s-2.25-4.41-3.63-7.06c2.1,4,24.19,2.44,27.45-.65C224.8,98.79,204.47,95.64,197.8,94.18Z"/><path class="cls-11" d="M212,86c-9.57-7.22-21.34-13.36-33.44-15.76-20.33-4-35.86-8.79-56.9,1.37-16.88,8.15-29.89,22.85-38,39.29-4.55,9.22-8.08,19.75-7.88,29.71.12,6.48,10.68,21.15,12.27,11.5,2.29-13.87.4-27.88,13.17-52.7,23.39,10.43,65.72,12.22,80.37,13.42-2-2.42-4.55-4.52-5.93-7.27.63,1.26,15.25,2.38,17.52,2.74,5.52.87,13.42,2.45,19-.2C222.89,103,219.1,91.32,212,86Z"/><path class="cls-12" d="M78.76,153.77C74.09,151.21,61,152,65.4,160.17c4.44-6,9.09-.74,7.29,3.78-1.19,3.05-5.86,2.28-2.06,7.13,2.05,2.62,7.29,2.7,10.08,2C89.58,170.79,84.46,156.88,78.76,153.77Z"/><path class="cls-13" d="M167.2,52c-11.78-3.49-23.95-2-36.22-.17.18-1.91.45-3.86.59-5.76-2.49,1.35-5.19,3-6.85,5.19,0,0-11.54-.36-14.48-.43a15.77,15.77,0,0,1,9.25,5.74c-14.41,5.25-28.06,14-37.43,24a58.59,58.59,0,0,0,9.39-1.37c-6.8,5.7-11.54,12.21-16.57,19.26,10.59-3.86,16.41-6.55,31-16.08,17.73,8.52,43.65,15,58,17.47-1.23-3.34-16.19-12-22.45-19.68C161.41,86,208,97,208,97S171.6,69.91,171.79,70c6.41,1.94,39.67,16.14,46.79,14.57C209.62,73.89,177.64,55.12,167.2,52Z"/><path class="cls-12" d="M108.18,155.1c.2,2.92,6.84,1.55,8.83,2-1.75,1.8-6.93,1.77-9.06,3s-2,2.19.66,2.13c1.61,0,10.62-2.1,11.79-3.06C125.32,155.06,110.46,154.49,108.18,155.1Z"/><path class="cls-12" d="M210.34,158.06c-1.64-1.26-6-1.37-7.24-3.2,1.72-.42,7.13,1.13,7.61-1.74-1.84-.67-14.32-.52-10.67,3.66.86,1,8.18,3.28,9.52,3.35C211.8,160.26,212.11,159.4,210.34,158.06Z"/><path class="cls-14" d="M126.08,142.68c-9.26-4.1-15.28,12.33-9,17.77a13.3,13.3,0,0,1,9.2.89C132.55,158.17,133,145.72,126.08,142.68Z"/><path class="cls-12" d="M163.67,170.1c-4.65.13-6.62-1.69-9.78.05s1.37,8.54,9.61,8.16,12-6.84,10.14-8.64C171.5,167.58,168.86,170,163.67,170.1Z"/><path class="cls-15" d="M160.9,143.76c-4.05.21-4.87,11.17-6.28,16.33s-2.4,10.09-.25,11.63c5.3,3.78,16.19,1.46,19.34-1.39,1.23-1.14-1.72-6.48-4.05-11.83C167.59,153.77,165.48,143.5,160.9,143.76Z"/><path class="cls-14" d="M200.82,142.7c-9.47-5.15-17,15-6.55,17.57a12.14,12.14,0,0,1,8.12-2.27C205.91,153.77,205.9,145.46,200.82,142.7Z"/><path class="cls-16" d="M123.36,145c-3.78,1.25-1,8.59,2.73,6C128.76,149.07,126.74,143.9,123.36,145Z"/><path class="cls-16" d="M198.4,145.27c-3.6.89-1.56,7.93,2.09,5.76C203.12,149.48,201.62,144.5,198.4,145.27Z"/><path class="cls-12" d="M205.2,186.46c-1.61-3.37-11.25-1.72-11.25-1.72-1.65.32,1.36.94,5.28,1.95a2.26,2.26,0,0,1,1.48,1c-18.87,5.56-60,7.65-85-1.12a5.52,5.52,0,0,1,.73-.5c3.8-2.11,9.14-2.08,7.68-2.89,0,0-9-.6-12.59,1.47-3.24,1.85-3.37,8.13-.82,8.5,2,.3,2.22-3.09,4-5.49,1.65,6.89,10.08,34,40.68,35.4,23.05,1.08,30.47-6.18,31.72-17.4.71-6.24,8.85-13.67,13.89-17.21.35,1.92-1.13,4.61.66,4.9C204.19,193.75,206.8,189.83,205.2,186.46Z"/><path class="cls-17" d="M120.38,191.38s9.09,28.24,36.44,28.21c24.63,0,27.8-9.46,29.09-16.09a17.48,17.48,0,0,1,8.46-12.18C152.13,201.5,120.38,191.38,120.38,191.38Z"/><path class="cls-18" d="M129.27,194.55s0,9.06,8.36,12.74c10.67,4.73,22.75,5.6,35.18,2.61,8.38-2,13.58-15.56,13.58-15.56S163.05,198.1,129.27,194.55Z"/><path class="cls-18" d="M163.16,209.68c-11.68-.19-21.71-2.08-27.11-4.46-4.49-2-4.62.58-3.84,2.89,0,0,1.22,9.37,22.47,11.69,18.59,2,27-9.56,25-12.05S174.85,209.87,163.16,209.68Z"/><path class="cls-19" d="M129.23,194.42a14.32,14.32,0,0,0,.8,4s44.33-3,54,.9a21.94,21.94,0,0,0,2.33-5S155,197.86,129.23,194.42Z"/><path class="cls-19" d="M138.47,205.36c18.13,9.51,38.69,1.83,38.69,1.83C154.28,211.23,138.47,205.36,138.47,205.36Z"/><path class="cls-20" d="M123.85,120.68c-3.64,1.1-17.16,10-20.66,12.23,1.14,3.14,3.69,3.16,6.41,2.31,1.93-.6,16.49-4.81,18.14-4.3,3.24,1,12.53,1.79,14.64-2.16C144.68,124.48,126,120,123.85,120.68Z"/><path class="cls-20" d="M179.88,131c1.78,3.87,10.1,2.9,13,1.86,1.48-.52,14.4,3.41,16.12,4,2.38.78,4.67.73,5.77-2.43-3.05-2.12-14.9-10.77-18.14-11.8C194.74,122,177.94,126.74,179.88,131Z"/></g></g></svg>