<svg xmlns="http://www.w3.org/2000/svg" xmlns:xlink="http://www.w3.org/1999/xlink" viewBox="0 0 300 300"><defs><style>.cls-1{fill:none;}.cls-2{clip-path:url(#clip-path);}.cls-3{fill:#cc88e5;}.cls-4{fill:#62698a;}.cls-5{fill:#3a3a4a;}.cls-6{fill:#f06799;}.cls-7{fill:#de3e78;}.cls-8{fill:#e10301;}.cls-9{fill:#ffcb9e;}.cls-10{fill:#c94614;}.cls-10,.cls-11{opacity:0.3;}.cls-11{fill:#bf3c1b;}.cls-12{fill:#262626;}.cls-13{fill:#1a1614;}.cls-14{fill:#b59898;}.cls-15{fill:#e35e59;}.cls-16{fill:#5e1b18;}.cls-17{fill:#fff7eb;}.cls-18{fill:#e8dac5;}</style><clipPath id="clip-path"><circle id="SVGID" class="cls-1" cx="150.11" cy="150.11" r="149.89"/></clipPath></defs><title>people avatar</title><g id="图层_6" data-name="图层 6"><g class="cls-2"><ellipse class="cls-3" cx="150.22" cy="150" rx="150" ry="149.94"/><path class="cls-4" d="M194,237.67c-9.84-7-59.26-9-71.5.59-17.77,13.94,8.18,21.41,8.18,51.71,0,1.7-1.05,5.13-2.56,10H189.6c-1.63-5.16-2.74-9-2.67-11C188,258.69,211.33,249.93,194,237.67Z"/><path class="cls-5" d="M146.07,261.8a3.92,3.92,0,1,0,3.92,3.92A3.92,3.92,0,0,0,146.07,261.8Z"/><path class="cls-5" d="M146.54,280.46a3.92,3.92,0,1,0,3.91,3.91A3.91,3.91,0,0,0,146.54,280.46Z"/><path class="cls-5" d="M170.93,261.8a3.92,3.92,0,1,0,3.92,3.92A3.92,3.92,0,0,0,170.93,261.8Z"/><path class="cls-5" d="M170.47,280.46a3.92,3.92,0,1,0,3.91,3.91A3.91,3.91,0,0,0,170.47,280.46Z"/><path class="cls-6" d="M169.43,226.81c-13.07-4.21-34.82-.12-30.81,12.31,2.13,6.65,3.65,13.8,19.82,13.59s17.68-6.94,19.81-13.59C180.22,233,175.88,228.88,169.43,226.81Z"/><path class="cls-7" d="M172.79,221.62c-3.91-.69-10.33,3.75-14.85,3.68-4.12-.06-10.59-4.75-14.26-3.4a6.73,6.73,0,0,0-3.08,3c-1.62,2.74-2.54,6.63-1.93,9,1,3.69,6.76,6.29,9.75,7,6.35,1.59,28.44,3,29.27-6.83C178,230.1,177.13,222.38,172.79,221.62Z"/><path class="cls-6" d="M174.77,219.88c-10.74,3.15-23.25,1.75-31.7.27-1.28-.22-2.4,1.49-3.35,2.89-1.77,2.63-2.78,6.35-2.1,8.59,1.06,3.53,7.36,6,10.62,6.73,6.91,1.52,31,2.83,31.86-6.54C180.48,228,179.34,218.54,174.77,219.88Z"/><path class="cls-8" d="M221.06,180.26a4.94,4.94,0,0,0-4.78,5,4.73,4.73,0,0,0,4.89,4.69,4.93,4.93,0,0,0,4.77-5A4.75,4.75,0,0,0,221.06,180.26Z"/><path d="M170,26.88c-16.89-2.71-27.35.88-31.93,5.8-4.32-3-19.19-1.9-26,1.36C77.21,50.78,54.6,93.33,75,149.78c-20.59,17.06-16.49,47.47-.45,60.54,17.24,14.07,43.05,10.21,54.69-6.13,12.33-17.32.36-44.09,25.19-46.13,15.23-1.25,20.25,3.14,31.8,11.26,6.65,4.65,17,18.32,24.9,14.44,19.73-9.7,22.15-48.82,23-66.25C235.66,86.53,223.15,35.43,170,26.88Z"/><path class="cls-9" d="M155.19,64.77C117.76,68.29,88.64,101.05,91,152.85s47.82,84.15,77.69,81.82c28.74-2.26,61.59-39.06,55.39-95.79C218.48,88.07,192.62,61.24,155.19,64.77Z"/><path class="cls-9" d="M78.11,139.27c-16.74,7.65-9,36.41,5.07,40.67,4.49,1.36,9.21,1,13.73.11.08-.19.17-.35.25-.54,1.9-4.09-2.38-23.36-3.55-27.29C90.66,142.3,86.15,135.59,78.11,139.27Z"/><path class="cls-10" d="M87.66,149.31c-4.49-2.41-16.17.77-11.26,10.16,3.29-8.24,8.08-2.43,7,3.51-.73,4-5,3.78-1,9.18,2.15,2.92,6.85,2.16,9.28.81C99.33,168.67,93.13,152.26,87.66,149.31Z"/><path class="cls-11" d="M200.44,67.84c-20.25-1.47-41.59,0-61.38,5.14C108,81.09,87.31,110.74,89.74,142.92c1.39,18.54-.22,53.1,29.79,50.7-20.09-7.15-24.9-26.09-18.83-68.16,5.14.22,27.6-11.24,32.07-26.16,8,17.32,87.06,30.19,92.82,45.09,1.5,3.88,2.13-4.21,2.54-17.44C228.8,105.43,207.28,68.35,200.44,67.84Z"/><path d="M207.08,61.4c-35.94-16.21-72.76-6-106.88,10.59A41.34,41.34,0,0,0,82.41,88.54c-7.47,13.07-.19,46.83,6.12,73.83,7,29.82,31,31.25,31,31.25-18.08-9.4-26.25-27.19-23.33-71,5.64-.32,28.81-12.32,36.57-23.34C166.31,121,220,124.07,226.61,140c4.95,11.93,1.48-58.14.55-61C224.49,70.94,214.86,64.9,207.08,61.4Z"/><path class="cls-8" d="M89.42,186.36a4.93,4.93,0,0,0-4.78,5A4.73,4.73,0,0,0,89.52,196a4.93,4.93,0,0,0,4.78-5A4.74,4.74,0,0,0,89.42,186.36Z"/><path class="cls-12" d="M165.82,57.65c-24.37,10.57-46.41,6.21-70.49-.59-9,9.06-20.84,32.26-19.39,53.68,18,3.25,46.3-4.16,54-22.49,5.53,4.26,50.61,25.39,96.38,32.73-.23-22.56-2.82-46.56-12.95-59.34C201.16,46.29,181.55,50.84,165.82,57.65Z"/><path class="cls-13" d="M191.89,138.44c10.32.56,18.1-5.8,33.58-5.11C214.55,128.82,199.28,130.11,191.89,138.44Z"/><path class="cls-10" d="M172.43,173.71c-3.51-.11-4.84-1.64-7.34-.4s2.61,6.23,6.95,6.06c4.91-.18,9.12-4,7.89-5.56C178.49,172.05,176.32,173.84,172.43,173.71Z"/><path class="cls-13" d="M135.39,145.8c-9-2.42-13.47,7.58-8.39,12.48,3.84-.77,8.4-.62,11.12.39C140.51,157.86,143.44,148,135.39,145.8Z"/><path class="cls-13" d="M111.81,132.86c19.29.45,24.65,6.49,38,6.14C142.81,130,126.44,129.07,111.81,132.86Z"/><path class="cls-13" d="M129.81,143.84c-7.18.58-11.48,6.68-18.89,4.07,0,0,4.66,6.16,18.17,2.66C140.22,147.7,149,155,149,155S143.72,142.73,129.81,143.84Z"/><path class="cls-14" d="M131.14,148c-3.24-.11-2.81,5.86.7,5C134.38,152.32,134,148.11,131.14,148Z"/><path class="cls-13" d="M205,145.49c-7.67,2.49-4.5,12.26-2.17,13,2.57-1.11,7-1.45,10.67-.83A7.64,7.64,0,0,0,205,145.49Z"/><path class="cls-13" d="M210.26,143.32c-13.42-.55-18,11.89-18,11.89s8.17-7.62,19-5.2c13.11,2.94,17.38-3.4,17.38-3.4C221.54,149.53,217.18,143.6,210.26,143.32Z"/><path class="cls-14" d="M206.3,147.65c-2.76.21-3,4.43-.5,5C209.21,153.4,209.42,147.41,206.3,147.65Z"/><path class="cls-15" d="M170.93,186.81c-13.08.42-26.36,2.09-37.07.46,10.41,19.66,22.91,26.49,36.57,25.65,14.67-.89,21.4-8.9,23.9-16.35,1.06-3.14,5.07-8.49,8.26-8.9C194,187.23,186.76,186.31,170.93,186.81Z"/><path class="cls-16" d="M136.38,189.12s10.47,16.21,31.4,16.5c13.41.18,22.21-3.68,24.67-9.19a16.67,16.67,0,0,1,8.37-8.23C164.36,196.13,136.38,189.12,136.38,189.12Z"/><path class="cls-17" d="M144.17,190.53s.63,3.26,8.08,4.92c9.56,2.12,19.85,2.2,30.47.87a15.51,15.51,0,0,0,10.65-6.68S172.94,193.53,144.17,190.53Z"/><path class="cls-17" d="M174,202c-8.19.56-15.12-.12-19.31-1.82-3-1.23-3.19.23-2.51,1.1,0,0,2.88,4.61,16.54,5.12,13.11.47,19.6-5.43,18-6.35S181.59,201.47,174,202Z"/><path class="cls-18" d="M144.17,190.53a4.49,4.49,0,0,0,2.63,2.9s34.73-2.68,43.31-.26c0,0,2.86-2.13,3.26-3.53C193.37,189.64,168.37,193.35,144.17,190.53Z"/><path class="cls-18" d="M157.16,201.17c9.13,3.5,19.25,2.77,24.19-.34C170.6,203.09,163.57,202.15,157.16,201.17Z"/><path class="cls-4" d="M129.36,254.2l-9.53-13.13c-3.41,2.47-9.31,6.8-16,58.93h16.37c5.12-39.2,9.2-45.65,9.74-46.35A3.43,3.43,0,0,1,129.36,254.2Z"/><path class="cls-4" d="M197.05,241.07l-9.53,13.13a3.43,3.43,0,0,1-.61-.55c.54.7,4.61,7.15,9.74,46.35H213C206.36,247.87,200.45,243.54,197.05,241.07Z"/></g></g></svg>