<svg xmlns="http://www.w3.org/2000/svg" xmlns:xlink="http://www.w3.org/1999/xlink" viewBox="0 0 300 300"><defs><style>.cls-1{fill:none;}.cls-2{clip-path:url(#clip-path);}.cls-3{fill:#968256;}.cls-4{fill:#c9beb7;}.cls-5{fill:#949494;}.cls-21,.cls-5{opacity:0.5;}.cls-6{fill:#2d2d30;}.cls-7{fill:#ffe0bb;}.cls-8{fill:#bf3c1b;}.cls-10,.cls-14,.cls-24,.cls-8{opacity:0.3;}.cls-9{fill:#ffcb9e;}.cls-10{fill:#c94614;}.cls-11{fill:#444751;}.cls-12{fill:#898996;}.cls-13{fill:#261b18;}.cls-14{fill:#b54d26;}.cls-15{fill:#ffdfc2;}.cls-16{fill:#e6d2c3;}.cls-16,.cls-26{opacity:0.7;}.cls-17{fill:#2b221c;}.cls-18{fill:#797b82;}.cls-19{fill:#f5b37a;}.cls-20{fill:#bf795c;}.cls-21{fill:#313235;}.cls-22{opacity:0.15;}.cls-23{fill:#3a3a4a;}.cls-24,.cls-25,.cls-26{fill:#fff;}.cls-27{fill:#c1c5c9;}</style><clipPath id="clip-path"><circle id="SVGID" class="cls-1" cx="150.12" cy="150.11" r="149.89"/></clipPath></defs><title>people avatar</title><g id="图层_8" data-name="图层 8"><g class="cls-2"><ellipse class="cls-3" cx="150.22" cy="150" rx="150" ry="149.94"/><path class="cls-4" d="M77.57,300c0-1.39,1.05-17.5,1.91-27.87,1.57-18.9,15-39.58,38.56-43.95l4.67,23.74C110,258.57,108.31,300,108.31,300Z"/><path class="cls-4" d="M222.59,300c0-1.39-1.05-17.5-1.92-27.87-1.57-18.9-15-39.58-38.55-43.95l-4.67,23.74c12.68,6.65,14.4,48.08,14.4,48.08Z"/><path class="cls-4" d="M115.57,229.4c-20.73,13.47-16,35.77-10.48,70.6h90c6.07-32.91,11.32-61.48-9-72.42C163.46,215.47,130.56,219.64,115.57,229.4Z"/><path class="cls-5" d="M150.13,258.25c42.38,0,54.63-60.48-3.59-60.48C104.68,197.77,104.79,258.25,150.13,258.25Z"/><path class="cls-4" d="M150.08,253c45.22,0,58.29-57.27-3.83-57.27C101.59,195.74,101.7,253,150.08,253Z"/><path class="cls-6" d="M219.3,74.86a56.54,56.54,0,0,0-12.43-22c-23.44-25.73-62.37-28.48-106.39-9.44a82.68,82.68,0,0,0,22.85-.94C100.23,53.17,72.9,67.19,66.93,94.4c-14.77,67.34,40.74,36.27,59.6,41.67,21.39,6.11,74.61-.8,89.51-23C222.75,103.14,223.13,88.11,219.3,74.86Z"/><path class="cls-7" d="M82,175.37c5,36.52,33.13,76.57,75.55,73.56,43.28-3.08,64.82-56.77,59.23-101.67C210.72,98.44,187.6,57.75,137,67.61,100.85,74.66,75.38,126.62,82,175.37Z"/><path class="cls-8" d="M109.56,108.74c-5.1,2.65-18.59,9.14-25.5-1.71-3.25-5.12-.84-12.85,1.19-18.69,2.48-7.13,10.63-11.12,17.26-14,12.07-5.31,26.14-4.6,39.09-4.38a164.2,164.2,0,0,1,43,6.56c9.23,2.68,26.58,5.07,29.78,15.49,4,13.19-10.06,14.89-19.84,14.9C171.05,106.92,120.65,103,109.56,108.74Z"/><path class="cls-9" d="M73.28,191.06a34.88,34.88,0,0,0,14.34,1.56c.08-.15.18-.29.28-.44,2.12-3.37-.85-22.25-1.94-25.81-2.72-9-8-13.65-16.55-11.31C51.67,160,58.79,185.86,73.28,191.06Z"/><path class="cls-10" d="M80.15,184.66c6.47-4.07.35-17.82-4.51-20.06-4-1.84-13.94,1.47-9.26,9.27,2.46-7.23,6.87-2.49,6.19,2.65-.45,3.45-4.15,3.49-.47,7.91C74.09,186.83,78.12,185.94,80.15,184.66Z"/><path class="cls-6" d="M193.78,53.68c-27.3-14.32-69.26-10.59-92.2,6.45C86,71.7,77.77,85.6,78.69,105c.5,10.67,14.85,12.31,20.89,4.66,5.17-6.53,12.43-8.22,20.71-8.52,13.71-.51,67.41-3,80,1.28,6.92,2.37,16.11,6,17.49-5,1.51-12-1.71-24.53-10-33.28A52.67,52.67,0,0,0,193.78,53.68Z"/><path class="cls-11" d="M212.62,91.74a49.43,49.43,0,0,0-1.53-16.58c-2.11-6.75-6-12-11.06-16.89-10.32-9.82-24.77-17.36-38.72-18.65-7.27-.68-21.89-.4-28.83,2.66,2.31,1.27,8.32,2.59,10.33,4.21A154.74,154.74,0,0,0,113.57,56c-2.91,1.32-26.78,17.53-26.77,17.53,6.64,3.61,14.46,2.26,21.62.67,10.93-2.44,21.74-3.4,32.75-.9,10.22,2.33,19.41,7.43,29.54,9.79.3-4.58-4.08-8.58-6-11.68,5.8-.1,28,14,32.59,17.67-1.1-3.9-6.5-12.13-7.08-16.28C195.87,73.68,208.72,85.13,212.62,91.74Z"/><path class="cls-12" d="M96.4,112.5c-4.08,22.77-7.28,33.82-4.35,54.39,0,0-10.44-11.42-18.91-12.42-.71-1.92-1.81-15.69-1.29-28C72.33,115.47,88.43,112.4,96.4,112.5Z"/><path class="cls-13" d="M117.26,162.19a13.34,13.34,0,0,0-9.22-.79c-6.35-5.39-.49-21.91,8.82-17.9C123.79,146.49,123.52,159,117.26,162.19Z"/><path class="cls-14" d="M172.75,172.85c-2.32-2.86-5.59.3-11.62.37-5.45.07-7.6-2.42-11.41-.15s1.64,9.52,11.27,9.17S174.76,175.3,172.75,172.85Z"/><path class="cls-15" d="M159.7,152.77c-10.23-.89-11,20.72-8.66,22.57,5.73,4.53,17.71,1.33,21.2-2.31C173.62,171.59,169.46,153.62,159.7,152.77Z"/><path class="cls-13" d="M206.53,142.87c5.09,3,5,13.53,1.24,17.74-2.41-1.12-7.38-1.63-9.86,0C190.1,155.46,197.06,137.18,206.53,142.87Z"/><path class="cls-16" d="M112.38,147.54c3.36-1.13,5.44,4,2.78,6C111.48,156.18,108.6,148.83,112.38,147.54Z"/><path class="cls-16" d="M201.67,146c3.31-.65,4.63,4.51,1.87,6C199.72,154.11,197.94,146.77,201.67,146Z"/><path class="cls-17" d="M125.56,123.07a7.34,7.34,0,0,1,5.84,10.11c-1.64,4.8-9.17,2.57-19.4,3.07-11.11.58-14.57,2-15.23-1.13s-.25-8.17,9.66-10.9A47,47,0,0,1,125.56,123.07Z"/><path class="cls-17" d="M191.09,123.63c-3.43.64-7.68,4.5-5.25,10.42,1.92,4.69,9.3,2,19.54,2,11.12-.06,14.67,1.21,15.14-2s-.2-8.17-10.26-10.32A46.56,46.56,0,0,0,191.09,123.63Z"/><path class="cls-18" d="M188.79,182c3.66,2.56,13,12.53,20.69,5.17,3.69-3.53,9.6-17.9,7.65-36.82,9.48,6.47,9.09,25,7.05,35.1-.83,4.12-3.74,8.76-3.42,12.76.48,6.28,5.46,12.78,6.48,19.27,1.21,7.65,1.12,18.39-8,20.63,1,9.69-1.77,15.17-12.5,14.15,3.39,12.19-8.88,20.1-19.08,12.17.91,13.14-27.11,7.48-32.16,1.37-1.33,6.19-10.85,6.85-15.88,5.76-6.27-1.35-10-6.16-12.9-11.53-3.64,4.09-12.74,4.08-17.21,1.21-5.71-3.67-5.35-10.79-4.73-16.94-11.14,3.11-12.28-9.42-10.17-17.09-7.6-1.65-8.34-15.4-8.33-21.7,0-7.73-6.43-47.51,1.52-50,7-2.19,6,7.74,6.75,12.2,4.4,28,24.83,32.61,33.09,21.75,10.68-14,18.35-9.65,34-9.89C173.38,178.15,179,175.07,188.79,182Z"/><path class="cls-19" d="M189.49,204.16c-.88-4-10.06-5.66-13-8.64-2,5.12-11.07,1.89-14.47-.25-3.38,3.69-12.92,4.76-16.49,1.16-.63,2.86-10,5.39-10.39,9.16C143.22,219.14,185,214.15,189.49,204.16Z"/><path class="cls-20" d="M146.39,202.37c3.89-2,24.84-3.69,29.69-1.17C165.21,204.88,146.39,202.37,146.39,202.37Z"/><path class="cls-21" d="M202.86,230.9c.94,2.9,3.49,8.55,1.75,11.34-3.4,5.43-14.52,1.82-18.61-.33,1.51,3,5.87,8.22,2.81,11.48-4.94,5.26-12.11-5.38-16.21-3.6-2.56,1.11-.28,7.7-4.37,9.5-5.69,2.5-10.87-6-15.29-8a12.51,12.51,0,0,1-12.19,5.41c-7.13-1.06-6.46-5.22-8.08-10.85-5.71,6.14-15.35,8.91-16.26-2.23-7.44,9.64-8.19-11-4.79-16.28A47.65,47.65,0,0,1,121,216.86c5.52-4.63,8.31-2.86,15-1.23,10.95,2.65,25.06,5.14,36.26,3.24,13.27-2.24,23.81-11.94,34.15.25,1.79,2.11,6.26,6.85,5.13,10.09C210.75,231.41,203.77,233.73,202.86,230.9Z"/><path class="cls-22" d="M181.47,173a18.14,18.14,0,0,1-4.65-5.46,17.9,17.9,0,0,1-.7-14.6c2.39-6.52,9.29-6.91,15-7.32,3.82-.27,7.66-.34,11.49-.4,3,0,6.85.41,9.71-.78,4-1.68,3.18-7.24.73-10.07-2.62-3-6.35-2-9.83-1.61a91.34,91.34,0,0,0-13.34,2.37c-5.45,1.39-11.86,2-16.91,4.57-4.66,2.43-6.61,3.94-12.44,3.73-10.45-.37-19.29-6.82-29.71-7.84-10.86-1.06-22-2.28-32.66.74-2.78.78-11.17,4-5.47,7s13.85,1.91,19.93,2.11c2.81.09,5.63.15,8.42.38,9.94.86,25.19-.61,24.47,11.79-.49,8.51-5.92,17.27-12.82,18.91a89.84,89.84,0,0,1-20.42,2.22,35.29,35.29,0,0,1-14.8-3.09c-1.33-.61-5.32-3.12-6.6-1.32-2.17,3.07,5.93,8.09,8.05,9,4.84,2.15,10,2.78,15.23,3.31,12.94,1.3,26.26.53,33.5-11.4,4.19-6.92,6.27-15.05,10.15-22.15,6.36-11.62,9.07,4.2,10.87,11.11a36.54,36.54,0,0,0,4.72,11c3.89,5.84,11.67,9.11,18.23,9.56,4.05.27,16.91-.64,20.74-2.21,2.3-.95,3.52-4.8.79-5.93-1.65-.69-13.25,1.6-15,1.48a48.85,48.85,0,0,1-7.63-.78A22,22,0,0,1,181.47,173Z"/><path class="cls-23" d="M71.72,145.78a14.78,14.78,0,0,0,6.84,1.82c1,5.88,1.61,21.2,13.1,30.15,9.61,7.46,39.38,7.86,48.3,2.63,11-6.49,15.22-17.45,16.55-28.09,3.28-26.07-57.55-18.15-69.55-17-8.51.83-15.94-1.07-17.83.78C66.66,138.47,71.72,145.78,71.72,145.78Zm15.65,1.33c10.37-7.21,51.11-7.35,60.95-.8,4.78,3.18,0,21-8.2,27.09-10.79,8-39.82,6.46-47.91-2.31C86,164.31,84,149.46,87.37,147.11Z"/><path class="cls-23" d="M241.4,132.34c-1.7-1.76-8,.48-15.4.06-10.39-.61-63.07-5.68-59.48,20.21,1.47,10.55,5.4,21.31,15.11,27.27,7.84,4.81,33.52,3,41.57-4.88,9.65-9.47,9.76-24.8,10.39-30.72a11.77,11.77,0,0,0,5.86-2.12S243.6,134.63,241.4,132.34Zm-18.87,36c-6.71,9.15-31.7,12-41.24,4.55-7.24-5.68-11.91-23.28-7.89-26.68,8.3-7,43.43-8.74,52.59-2C229,146.4,227.71,161.32,222.53,168.37Z"/><path class="cls-24" d="M180.36,144.34c6.51-2.5,39.41-3.65,43,.08,2.55,2.68-7,6.3-11.45,6.89-8.37,1.14-17.22,1.2-24.94-.45C184.74,150.39,174.48,146.6,180.36,144.34Z"/><path class="cls-25" d="M206.11,144.3c6.7-.72,18.18.83,16.84,2.93s-19.77,2.76-21.3-.24C200.87,145.48,203,144.64,206.11,144.3Z"/><path class="cls-26" d="M185.78,166.36c4.18.26,11.06,2.92,10,4.43s-12.43-.29-13.05-2.85C182.43,166.64,183.8,166.23,185.78,166.36Z"/><path class="cls-26" d="M98.69,168.52c4.61.43,12.09,3.37,10.88,4.84s-13.7-.79-14.27-3.37C95,168.67,96.53,168.32,98.69,168.52Z"/><path class="cls-24" d="M94.28,146.11c3.68-3.59,41.66-3.23,49.44-1,7.05,2-4.32,5.81-6.81,6.3-8.7,1.74-18.89,1.87-28.66,1C103.12,151.9,91.65,148.69,94.28,146.11Z"/><path class="cls-25" d="M127.15,144c7.4-.73,20.07.82,18.58,2.93s-21.83,2.76-23.51-.23C121.36,145.16,123.68,144.32,127.15,144Z"/><path class="cls-23" d="M147.41,137.83a46.34,46.34,0,0,0,27.12-.44c8-2.4-.24,4.19-1.71,5.93s-2.17,20.72-5.59,13.43-8.82-7-11.65.92-1.67-6.11-2.67-10.43S138.88,135.52,147.41,137.83Z"/><path class="cls-27" d="M146.88,141.16c-9.55-6.87-25.26-7.5-55.76-3.59C114.21,137.24,132.63,136.69,146.88,141.16Z"/><path class="cls-27" d="M177,139.92c7.62-6.72,20.14-6.19,47-5.63C203.92,136.11,188.93,134.82,177,139.92Z"/></g></g></svg>