<svg xmlns="http://www.w3.org/2000/svg" xmlns:xlink="http://www.w3.org/1999/xlink" viewBox="0 0 300 300"><defs><style>.cls-1{fill:none;}.cls-2{isolation:isolate;}.cls-3{clip-path:url(#clip-path);}.cls-4{fill:#d35c02;}.cls-5{fill:#fccb68;}.cls-6{fill:#eea54c;}.cls-7{fill:#ffae6d;}.cls-8{fill:#ebebeb;}.cls-9{fill:url(#linear-gradient);}.cls-10,.cls-21{fill:#c4170e;}.cls-10,.cls-12{opacity:0.2;}.cls-11{fill:#ffe496;}.cls-12{fill:#ba5124;mix-blend-mode:multiply;}.cls-13{fill:#1e4c76;}.cls-14{fill:#9cd0ff;}.cls-15{fill:#6e4c3c;}.cls-16{fill:#121b21;}.cls-17{fill:#ff3b3b;}.cls-18{fill:#a80a0a;}.cls-19{fill:#fff9f0;}.cls-20{fill:#e8dac5;}.cls-21{opacity:0.1;}.cls-22{fill:url(#linear-gradient-2);}.cls-23{fill:url(#linear-gradient-3);}.cls-24{opacity:0.6;fill:url(#linear-gradient-4);}.cls-25{fill:url(#linear-gradient-5);}.cls-26{fill:url(#linear-gradient-6);}.cls-27,.cls-28{fill:#fff;}.cls-27{opacity:0.5;}.cls-29{fill:url(#linear-gradient-7);}.cls-30{fill:url(#linear-gradient-8);}.cls-31{fill:url(#linear-gradient-9);}</style><clipPath id="clip-path"><circle id="SVGID" class="cls-1" cx="150.05" cy="150.11" r="149.89"/></clipPath><linearGradient id="linear-gradient" x1="154.67" y1="240.82" x2="154.03" y2="257.53" gradientUnits="userSpaceOnUse"><stop offset="0" stop-color="#ee996d"/><stop offset="0.06" stop-color="#f09b6d"/><stop offset="0.56" stop-color="#fba96d"/><stop offset="1" stop-color="#ffae6d"/></linearGradient><linearGradient id="linear-gradient-2" x1="157.33" y1="153.62" x2="171.78" y2="153.62" gradientUnits="userSpaceOnUse"><stop offset="0" stop-color="#b89377"/><stop offset="0.14" stop-color="#c59e83"/><stop offset="0.44" stop-color="#dab297"/><stop offset="0.73" stop-color="#e7bda3"/><stop offset="1" stop-color="#ebc1a7"/></linearGradient><linearGradient id="linear-gradient-3" x1="71.17" y1="162.54" x2="71.17" y2="141.05" xlink:href="#linear-gradient-2"/><linearGradient id="linear-gradient-4" x1="70.7" y1="161.34" x2="70.7" y2="142.07" gradientUnits="userSpaceOnUse"><stop offset="0" stop-color="#f2ebe6"/><stop offset="0.2" stop-color="#f9f5f3"/><stop offset="0.48" stop-color="#fdfdfc"/><stop offset="0.85" stop-color="#fff"/></linearGradient><linearGradient id="linear-gradient-5" x1="114.85" y1="187.74" x2="114.85" y2="115.16" xlink:href="#linear-gradient-2"/><linearGradient id="linear-gradient-6" x1="114" y1="186.65" x2="114" y2="113.61" gradientUnits="userSpaceOnUse"><stop offset="0" stop-color="#f2ebe6"/><stop offset="0.38" stop-color="#f9f5f3"/><stop offset="0.8" stop-color="#fffdfd"/></linearGradient><linearGradient id="linear-gradient-7" x1="209.65" y1="183.89" x2="209.65" y2="115.01" xlink:href="#linear-gradient-2"/><linearGradient id="linear-gradient-8" x1="242.22" y1="163.39" x2="180.83" y2="129.76" xlink:href="#linear-gradient-6"/><linearGradient id="linear-gradient-9" x1="164.28" y1="179.9" x2="164.28" y2="109.49" xlink:href="#linear-gradient-6"/></defs><title>people avatar</title><g class="cls-2"><g id="图层_9" data-name="图层 9"><g class="cls-3"><ellipse class="cls-4" cx="150.33" cy="150.11" rx="150" ry="149.94"/><path class="cls-5" d="M196.43,280.62c12.59-17.44,25.8-31.31,31.45-52.91,2.1-8,1.45-16.26.51-24.42-1.9-16.36.22-30.57,3.77-46.44,3.37-15.08,2.58-31.67,2-47.11-3.3-81.21-107.44-98.85-146-51.74-45.63,55.81-21.6,95.3-23.94,108.51-3.53,20-14.77,35.61-11.8,51.91,4.56,25,28.28,27.78,11,61.14,10.06,3.17,23-5.75,29-14.41,7,15.82,20,29,36.12,34.85h38.34C178.81,296.27,190,289.54,196.43,280.62Z"/><path class="cls-6" d="M93.56,158.69c-12.6,27.73-16.11,58.14-2.46,79.5,17.71,27.72,45.76,35.16,76.4,25.21,29.47-9.57,40.45-36.71,48.92-64.15,8.86-28.68,12.44-55.3-3.17-82.24C179.63,59,118.62,103.55,93.56,158.69Z"/><path class="cls-7" d="M133.52,269.66c3.3-1.14,8.51-10.63,6.77-13.8s-3.47-4.66-6.72-3.35c-18,7.27-22.09,22-23.26,47.49H123.4C124.54,289.94,123.49,273.11,133.52,269.66Z"/><path class="cls-7" d="M173.72,251.39c-3.26-1.35-5,.19-6.72,3.43s3.46,13,6.76,14.12c10,3.53,9,20.76,10.12,31.06H197C195.81,273.92,191.71,258.83,173.72,251.39Z"/><path class="cls-8" d="M181.83,282.88c2.78-9.78,3.11-24.78-6.1-30.47-11.27-7-30.75-5.92-42.93.24-9.27,4.68-13,9.42-6.4,28.61A120.18,120.18,0,0,1,131.52,300H178A134.23,134.23,0,0,1,181.83,282.88Z"/><path class="cls-7" d="M125.75,279.26c6.25-7.52,6.27-18.1,6.6-26.38C123.23,256.83,119.5,262.2,125.75,279.26Z"/><path class="cls-7" d="M175.73,252.41a27.06,27.06,0,0,0-5-2.36c5.38,9.33,4.86,21.74,12.4,26.55C185.41,267.27,183.15,257,175.73,252.41Z"/><path class="cls-9" d="M166.9,250.85c-2.11-4.34-.26-10.92.15-18.07.94-16.21-27.07-16.82-27,.88,0,7.84.23,13.61-1,16.36-.53,1.15.47,15.15,1.19,23.31,3.76-1.53,8.71-1.62,13.46-1.74,6.88-.17,11.83-.39,15.24.59C168.83,264.72,168.12,253.35,166.9,250.85Z"/><path class="cls-7" d="M142.88,71.26c-35,6.19-60.54,56-54.95,103.19,4.14,35,33.94,72.82,70,70.54,43.33-2.75,65.2-53.79,60.76-95.41C213.6,102.3,192,62.59,142.88,71.26Z"/><path class="cls-10" d="M204,85.45C185.12,77.56,166.75,72.89,145.91,72c-12.74-.54-29.86-1.65-41.88,3.29-25.69,10.55-23.83,33-24.49,55.37-.33,11.49-5.08,22-2.17,33.52,1.38,5.43,4.73,12.37,11.16,12.69,7.86.39,10.4-9.83,13.21-15.41,7.22-14.36,20.61-23.6,34.11-31.5,3.47-2,7.43-3.94,11.41-6,9.8-5,19.77-10.75,23.24-21.17,6.8,10.9,39.2,33.44,51.38,20C231.65,112.15,214.24,89.73,204,85.45Z"/><path class="cls-5" d="M193.8,62.48c-19-16.72-44.18-17-68-13.34C110.1,51.56,96.46,62.67,87.15,75c-10.37,13.75-13.08,26.55-14.8,43.59-1.1,10.94.36,25.14,1.42,36.31.55,5.86.74,24.51,8.38,26.55,9,2.39,13.07-25.65,17-31.16,9-12.69,22.5-21.11,36.76-27.48,13.34-6,28.82-13.55,34.13-28.41,10.47,10.54,30.59,27.76,46.76,26.9,13-.69,6.64-16.34,3.5-24.32C215,83.59,203.84,71.3,193.8,62.48Z"/><path class="cls-11" d="M141.57,39.32c-24.16,1.2-48.65,18.1-59.38,40.15-3.88,8-10.94,24.45-9.6,33.52a11.31,11.31,0,0,0,9.58,10c3.51.68,16.37-2.11,17.21-6.6-1,5.36-5.65,9.84-7.5,15.16,20.16-4.19,41.89-12.42,58.09-25.68,2.72-2.23,21.18-20.62,18.23-24.25,15.19,18.76,37.6,25.87,60,17.59C221.37,53.1,173.75,37.71,141.57,39.32Z"/><path class="cls-11" d="M74.87,186.87C59,197.05,52,233.39,78.17,228.63,72.6,213.45,74.87,186.87,74.87,186.87Z"/><path class="cls-12" d="M164,172.63c-4.51.28-4.7-1.74-7.71.19s.23,7.54,8.19,6.86,10.95-6,9.13-7.83C171.46,169.72,169,172.33,164,172.63Z"/><path class="cls-13" d="M205.87,142.71c-12.43-5.3-23.78,10-14.84,18,1.81-1.95,11.55-5.1,17.56-.56C213.7,156.51,212.53,145.56,205.87,142.71Z"/><path class="cls-14" d="M200.5,145c-5.78,1.81-3.05,12.93,2.87,9C207.65,151.23,205.65,143.41,200.5,145Z"/><path class="cls-13" d="M113.26,143.72c-6.57,3.05-7.42,14-2.21,17.53,5.88-4.71,15.71-1.85,17.56.05C137.32,153.06,125.53,138.06,113.26,143.72Z"/><path class="cls-14" d="M121,145.48c-5.19-1.45-7,6.42-2.6,9.1C124.44,158.31,126.85,147.13,121,145.48Z"/><path class="cls-15" d="M130.62,128.66c-6.18-.26-12.07-.3-18.23,1.06a31.44,31.44,0,0,0-11.48,4.92c-1,.79-2.27,2.16-2.22,3.38,1,.15,1.77-.48,2.69-.73,4.67-1.3,9.57-1.44,14.35-1.54,3.73-.07,7.43.2,11.15,0,2.5-.1,5.9.4,7.25-2C135.84,130.65,133.94,128.8,130.62,128.66Z"/><path class="cls-15" d="M215.81,132.91a30,30,0,0,0-11.25-4.3c-6-1.07-11.75-.8-17.77-.31-3.25.26-5.06,2.12-3.36,5,1.35,2.3,4.66,1.68,7.09,1.69,3.64,0,7.24-.38,10.87-.45,4.65-.1,9.45-.16,14,.91.9.22,1.65.79,2.63.6C218.06,134.89,216.82,133.62,215.81,132.91Z"/><path class="cls-16" d="M203.39,140.59c-11.46-2.08-14.7,9.2-14.7,9.2s5.55-7.15,13-4c16.9,7.21,25.83-4.78,25.83-4.78C215.45,146.68,209.26,141.65,203.39,140.59Z"/><path class="cls-16" d="M116.15,141.84c-5.85,1.13-12,6.23-24.11.72,0,0,9.06,11.88,25.87,4.49,7.42-3.26,13,3.84,13,3.84S127.59,139.64,116.15,141.84Z"/><path class="cls-17" d="M112.94,187.9c19.57,28.75,31.45,33.92,46.42,34.58,18.76.81,25-11.17,27.7-20.13,1.15-3.78,10.5-13.62,14.15-15.88-11.65,2.75-23.17,1.54-40.79,2.31C145.85,189.42,124.52,193.74,112.94,187.9Z"/><path class="cls-18" d="M121.84,192.83s11.79,19.36,35.11,19.49c15,.08,24.72-4.64,27.4-11.29a19.17,19.17,0,0,1,9.26-10C153.06,201,121.84,192.83,121.84,192.83Z"/><path class="cls-19" d="M130.52,194.46s.78,5.89,9.11,8.06c10.69,2.78,22.15,2.81,34,.92,8-1.25,11.76-10.57,11.76-10.57S162.62,198.27,130.52,194.46Z"/><path class="cls-19" d="M162.77,204.36c-10.66.51-19.53-.05-24.91-3.2-3.84-2.24-4.15.23-3.31,1.76,0,0,3.55,8,21.27,9.67,17.05,1.57,25.72-8.2,23.76-9.85S172.65,203.89,162.77,204.36Z"/><path class="cls-20" d="M130.52,194.46a9.34,9.34,0,0,0,2.17,4.13s39.86-3.71,49.44-.53c0,0,2.77-3.3,3.21-5.19C185.34,192.87,157.52,198.06,130.52,194.46Z"/><path class="cls-20" d="M141.05,202.31c14.42,7.88,31.46.86,31.46.86C154.55,207.26,141.05,202.31,141.05,202.31Z"/><path class="cls-21" d="M179.55,172.34c-3.26-2.71-4.36-7.78-5.45-11.67-1.37-5-1-10.51-7.89-9.76-5.73.63-10,5-11.45,10.44-2.29,8.63-5.43,12.17-13,16.49-6.95,4-14.33,5.74-22.28,6.25-11.06.69-20.2-2.45-28.14-10.68-4.93-5.11-5.87-12.87-7.59-19.47-1.1-4.23-1.37-9.55-4.29-13.05-3.57-4.25-7.24-.17-8.46,3.84-2.75,9,2.91,20.34,6.4,28.32,3.34,7.63,6,13.45,14.13,17.18,7.45,3.46,16.83,4.91,24.51,1.41A41.06,41.06,0,0,1,128.87,188c14.67-2,24.24-7.74,28.61-18.22,2.67-6.39,1.9-13,6.65-13.28,3.24-.18,2.9,3.44,4.11,7.11,4.31,13,13,18.52,33.47,23.94,4.16,1.11,10,2.26,11.95,6.72A29.41,29.41,0,0,0,217,188c.79-2.1,2.75-5,3.2-7,.3-1.31,1.12-2.57,1.18-3.92-3.31,2.1-7.52,2.61-11.37,2.49C201.06,179.29,186.84,178.45,179.55,172.34Z"/><path class="cls-22" d="M164.56,148.22s-3.79-.12-5.49,1.05c-1,.71-3.52,7.33.41,9.76,1.11-3.42,3.33-3.8,5.08-3.82s4,.37,5.07,3.77c3.94-2.48,1.46-9,.43-9.72C168.33,148.09,164.56,148.22,164.56,148.22Z"/><path class="cls-23" d="M68.21,146.31A2.66,2.66,0,0,0,66,149.73c.77,1.87,3.51,8.45,4.16,10s3.91,1.44,6.3,1.18l-4-15.11C72,145.84,68.78,146.2,68.21,146.31Z"/><path class="cls-24" d="M67.68,146.72a2.24,2.24,0,0,0-1.93,3c.79,1.69,3.54,7.64,4.18,9s3.68,1.36,5.9,1.17l-4.22-13.59C71.19,146.36,68.21,146.63,67.68,146.72Z"/><path class="cls-25" d="M79,120.05c-21,12.39-1.51,58.17,17,65.35,18.18,7,50.15-2.7,59.36-14.62,8.1-10.32,5.24-30.68-8-41.65C133.7,117.72,100.13,107.87,79,120.05Zm68.69,49.16c-7.47,8.38-31.77,13.48-45,7-13.4-6.64-25.46-42.07-9.12-50s44.21,3.9,51.47,11.05C152.05,144.2,154.2,161.93,147.65,169.21Z"/><path class="cls-26" d="M146.69,128.24c-11-9.26-32.19-16.34-53-14.43a39.13,39.13,0,0,0-16.2,4.75c-9.69,5.7-9.25,18.38-8.13,25.44,2.77,17.44,14.76,36.51,25.63,40.76,5.94,2.31,13.74,2.94,22.59,1.83h0c15.73-2,31.39-9,37.24-16.57C163,159.51,159.4,138.88,146.69,128.24Zm2.06,41.56c-4.28,4.78-13.84,8.73-24.36,10-8.85,1.09-16.89.16-22.68-2.67C93.19,173,85,158,83.9,144.59c-.81-9.67,2.24-16.69,8.57-19.74a29.05,29.05,0,0,1,9.75-2.56c16.27-1.57,37.17,7.37,43.84,13.94C153.33,143.37,155.91,161.89,148.75,169.8Z"/><path class="cls-27" d="M144.32,137.32c-7-6.79-34-17.88-49.94-10.35-7.51,3.56-8.9,13-6.88,22.6,2.23,10.75,64.09,3.06,61.36-4.66A19.93,19.93,0,0,0,144.32,137.32Z"/><path class="cls-28" d="M94.42,126.65c-10.36,5.09-9,21.78-3.09,34.62-5.6-12.74-3.1-24.38,7.07-29.39,15.95-7.74,39.36-.67,46.43,6.42a18.49,18.49,0,0,1,3.56,5.36,19.12,19.12,0,0,0-3.85-6C137.47,130.54,110.35,118.9,94.42,126.65Z"/><path class="cls-29" d="M242,119.76c-19.54-11.71-50-2.43-62.33,8.88-12,11.15-14.3,31.5-6.71,41.3,8.66,11.11,38.27,18.38,54.87,10.88C244.65,173.37,261.48,131.26,242,119.76Zm-19.7,53c-12,6.7-34.45,3.14-41.45-4.62-6.14-6.84-4.42-24.39,1.91-31.37,6.53-7.13,31.76-18.59,46.88-11.11S234.43,166,222.28,172.72Z"/><path class="cls-30" d="M242.87,118.23a35.78,35.78,0,0,0-14.81-4.6c-18.94-2-38.09,4.83-47.94,14-11.43,10.81-14.43,31.45-6.79,41.44,5.47,7.12,19.93,13,34.4,13.94,8.13.55,15.27-.46,20.65-2.91,9.85-4.44,20.35-22.35,22.47-38.38C251.7,135.25,251.8,123.58,242.87,118.23Zm-4,24.4C238.1,155,231,169.07,223.3,173.31c-5.22,2.91-12.53,4.2-20.63,3.63-9.62-.67-18.4-4-22.39-8.38-6.64-7.4-4.55-25.69,2-32.88,5.95-6.51,24.76-15.31,39.53-13.8a26,26,0,0,1,8.88,2.44C236.45,127.17,239.36,133.66,238.83,142.63Z"/><path class="cls-27" d="M230.2,126.34c-14.48-7-38.61,3.62-44.82,10.28a19.38,19.38,0,0,0-4,7.43c-2.36,7.55,53.67,12.83,55.47,3C238.46,138.22,237,129.62,230.2,126.34Z"/><path class="cls-28" d="M230.16,126.05c-14.48-7.24-38.71,3.93-45,10.86a19.51,19.51,0,0,0-3.41,5.92,18.47,18.47,0,0,1,3.15-5.27c6.28-6.94,27.33-14.91,41.81-7.67,9.26,4.59,11.69,16.15,6.9,27.89C238.66,146,239.58,130.71,230.16,126.05Z"/><path class="cls-31" d="M169.59,149.19c-1.65-.87-5.28-.75-5.28-.75s-3.63-.06-5.3.85c-1,.54-3.41,5.59.37,7.42,1.09-2.61,3.2-2.92,4.89-2.94s3.81.24,4.87,2.83C172.93,154.68,170.57,149.71,169.59,149.19Z"/></g></g></g></svg>