<svg xmlns="http://www.w3.org/2000/svg" xmlns:xlink="http://www.w3.org/1999/xlink" viewBox="0 0 300 300"><defs><style>.cls-1{fill:none;}.cls-2{clip-path:url(#clip-path);}.cls-3{fill:#fbd7ff;}.cls-4{fill:#9c552c;}.cls-5{fill:url(#linear-gradient);}.cls-6{fill:#ff392b;}.cls-7{fill:#854326;}.cls-8{fill:#261b18;}.cls-9{fill:#573d2f;}.cls-10,.cls-11{fill:#661004;}.cls-10,.cls-19,.cls-21{opacity:0.3;}.cls-11{opacity:0.4;}.cls-12{fill:#bf6c3c;}.cls-13{fill:#f0ded1;}.cls-13,.cls-23{opacity:0.7;}.cls-14{fill:#d47b48;}.cls-15{fill:#78231f;}.cls-16{fill:#fff7ea;}.cls-17{fill:#ecdcc4;}.cls-18{fill:#161110;}.cls-19{fill:#b54d26;}.cls-20{fill:#f06799;}.cls-21,.cls-22,.cls-23{fill:#fff;}.cls-24{fill:#ffd1e2;}</style><clipPath id="clip-path"><circle id="SVGID" class="cls-1" cx="149.89" cy="150" r="150"/></clipPath><linearGradient id="linear-gradient" x1="155.5" y1="233.23" x2="155.5" y2="253.28" gradientUnits="userSpaceOnUse"><stop offset="0" stop-color="#854326"/><stop offset="1" stop-color="#9c552c"/></linearGradient></defs><title>people avatar</title><g id="图层_12" data-name="图层 12"><g class="cls-2"><ellipse class="cls-3" cx="150.33" cy="150" rx="150" ry="149.94"/><path class="cls-4" d="M131.63,265c5.43-4.56-.9-20.92-8.24-17-13.5,7.29-18.6,31-23.34,52h16.21C119.87,285.56,124.2,271.21,131.63,265Z"/><path class="cls-4" d="M190.92,248c-7.34-4-13.67,12.4-8.24,17,7.43,6.25,11.76,20.6,15.37,35h16.22C209.53,279,204.42,255.29,190.92,248Z"/><path class="cls-5" d="M182.56,243.37c-3.07-2.3-7.38-2.69-10-3.85-5.11-2.23-5.61-6.56-6.93-10.06-2.64-7-15.73-8.33-16.92-.58-2.08,13.55-13.52,11.92-20.79,16.14-14.69,8.54-5.9,16.18,5.17,27.24,12.25,12.26,33.8,14,50.61-1.18C195.81,260.09,190.54,249.3,182.56,243.37Z"/><path class="cls-6" d="M179,277c13.44,0,28.44-17.36,28.44-17.36s-15.3-14-25.45-17.87C182,241.72,165.58,277,179,277Z"/><path class="cls-4" d="M127.79,274.43c.8,7.05,3.53,15.66,6,25.57h47.59c.83-7.11,1.33-16.42,2.65-24.85C185,268.57,126.67,264.51,127.79,274.43Z"/><path class="cls-7" d="M128.67,279.64c1.13,16.81,56.6,14.62,55.27-3.78C183.23,266,127.93,268.59,128.67,279.64Z"/><path class="cls-6" d="M121.33,249.34A27.94,27.94,0,0,0,108,261.72s13,25,50,24.73c27.27-.23,30.24-17.16,30.24-17.16s3-19.21-6.21-27.57C182,241.72,166.12,263.62,121.33,249.34Z"/><path class="cls-8" d="M67.89,58.3C51.07,72.46,51.29,96.6,64,111.71s36.65,15.86,53.47,1.71,20.15-37.87,7.44-53S84.71,44.15,67.89,58.3Z"/><path class="cls-9" d="M71.21,61.07C63.09,67.9,58,80.27,63.6,89.29c4.68,7.54,7.8-1,9-6.2,4.11,7.63,7.59-2.11,7.6-7,3.48,3.4,8.93-3.42,9.41-6.76,6.87-1.55,12.1-9,18.28-11.75C100.78,47.45,79.55,54.05,71.21,61.07Z"/><path class="cls-8" d="M199.13,60.43C149.84,26.23,84,55.38,75,99.45c-6.26,30.53,3.47,56.8,20.74,76,8.66,9.62,14.87,21.12,23.29,30.72,8.12,9.28,17.35-6.73,24.13-10.64,9-5.19,19.93-8,30.28-6.51,9.17,1.33,15.67,10.9,25,11.07,12.24.23,15.59-20.25,18.39-28.95,2.57-8,4.53-16.3,6.3-24.54C231.06,109.6,224.78,78.22,199.13,60.43Z"/><path class="cls-4" d="M145.11,71.06c-33.53,6.65-57,55-50.69,100.2,4.73,33.88,39.83,68,70.37,68,32.56.06,60-52.9,54.65-94.56C213.64,99.45,192.05,61.74,145.11,71.06Z"/><path class="cls-10" d="M188.35,78a151.22,151.22,0,0,0-40.7-6.25c-12.25-.17-25.55-.82-36.95,4.39C104.44,79,96.75,83,94.43,89.92c-2.89,8.64-1.45,19.5,0,28.33,1.59,9.67,4,19.54,9.15,28,.38-6,3.05-11.7,4.35-17.56,4.19-18.8,16.26-25.66,30.79-28.13,12.08-2.06,25.85-1.1,38.22-1.47,6.62-.19,45,6.17,36.74-9.19C210,83,195.14,80.05,188.35,78Z"/><path class="cls-4" d="M82.65,152.45c-16.46,4.59-8.79,30.4,4.69,35.17,4.31,1.53,8.43,1.94,12.33-.37.08-.14.17-.27.26-.41,2-3.13-.85-20.65-1.87-24C95.49,154.59,90.55,150.24,82.65,152.45Z"/><path class="cls-11" d="M88.46,161.28c-3.71-1.69-12.93,1.41-8.56,8.64,2.26-6.72,6.37-2.33,5.76,2.43-.41,3.21-3.85,3.26-.42,7.36,1.86,2.21,5.59,1.38,7.48.18C98.69,176.08,93,163.34,88.46,161.28Z"/><path class="cls-8" d="M172.41,57.28a113.8,113.8,0,0,0-34.51-.91c-19,2.31-41.88,11.4-47.82,31.56-3.65,12.37-1.67,26.7-.68,39.33.6,7.65-2.43,22.43,4.13,28.2,7.63,6.69,10.62-3.44,11.31-10.71.78-8.18.12-17.11,2.44-25.06C113,100.34,123.22,96.59,151,94.36c14.43-1.16,50.07-4,57,8.79,2.56,4.77,23.47-9.35,4.51-30.29C204.23,63.73,184.07,59.5,172.41,57.28Z"/><path class="cls-9" d="M123.46,54.76a59.71,59.71,0,0,0-24,13.53A56.43,56.43,0,0,0,87.61,83.24a34.18,34.18,0,0,0-4.14,19.68c.45,4.6,4.42,14.33,11.44,11.68-.26-4.47-1-9.25-1.69-13.69,1.49,1,8.15,5.42,10.14,4.26s.77-7.54,1.07-9.47c8.07,8.53,12.07-4.36,11.46-11.08,3.4,2,5.79,5.69,9.34,7.36,5.07,2.41,10.44-.34,16.13-1.39a177.05,177.05,0,0,1,22.37-2.89c7.73-.38,9.17.55,12.21-6.5a7.27,7.27,0,0,0,3,5.43,7.92,7.92,0,0,0,4.27-7.29c.16,8,17.75,12.5,23.75,10.62,9.27-2.9-1.2-17.1-6.93-22.72C180.53,48.06,148.74,47.85,123.46,54.76Z"/><path class="cls-8" d="M131.53,146.7c-12-3.21-19.52,10.2-11.32,14.54a27,27,0,0,1,11.88.6C140.14,159.19,140.46,149.09,131.53,146.7Z"/><path class="cls-11" d="M166.92,168.4c-3,.26-5.77-1.19-8.45.49s.94,6.23,8.88,5.44,9.74-5.26,8.12-6.77C173.6,165.79,170.25,168.12,166.92,168.4Z"/><path class="cls-12" d="M165.65,154.28c-5.67-.07-9.2,10.72-6.51,14,1.89,2.28,14.3,1.32,16-1.64C175.76,165.55,171.07,154.34,165.65,154.28Z"/><path class="cls-13" d="M130.62,153.76c-3.64,1-.84,7,2.71,4.8C135.9,157,133.87,152.82,130.62,153.76Z"/><path class="cls-8" d="M207.94,143.54c-12.33-1.6-18,12.7-9.28,15.92a26.51,26.51,0,0,1,11.86-1C218.14,154.77,217.11,144.71,207.94,143.54Z"/><path class="cls-13" d="M207.6,150.88c-3.4,1.52.11,7,3.27,4.42C213.15,153.41,210.63,149.53,207.6,150.88Z"/><path class="cls-14" d="M202.77,186.46c-20.78-3.49-53.3,1.28-72.28,1.83-1.54,0-2.77.49-2.09,2.14,2.93,7,14,32.78,40,32.57,21.72-.17,23.76-15.35,24.86-23.34.55-3.93,6.46-8.69,11-11.6C205.81,187.11,204.68,186.78,202.77,186.46Z"/><path class="cls-15" d="M131.33,190.86a34.57,34.57,0,0,0,33.81,20.3c22.89-.95,25.86-8.31,27.07-13.46A15.08,15.08,0,0,1,200.1,188C160.82,197.43,131.33,190.86,131.33,190.86Z"/><path class="cls-16" d="M139.58,193s0,7,7.74,9.48c9.92,3.22,21.14,3.44,32.71.68,7.79-1.86,12.63-12.47,12.63-12.47S171,194.42,139.58,193Z"/><path class="cls-16" d="M171,203.31c-10.86.29-20.16-.78-25.17-2.41-4.19-1.35-4.31.63-3.57,2.37,0,0,1.1,7.15,20.85,8.13,17.28.84,25.15-8.35,23.28-10.19S181.92,203,171,203.31Z"/><path class="cls-17" d="M139.54,192.87a9.1,9.1,0,0,0,.73,3s41.2-4,50.23-1.34a16.59,16.59,0,0,0,2.16-3.91S163.49,194.54,139.54,192.87Z"/><path class="cls-17" d="M148.12,200.91c16.83,6.63,35.94,0,35.94,0C162.8,204.83,148.12,200.91,148.12,200.91Z"/><path class="cls-18" d="M125.42,143c-6.45,1.5-14.63,8.32-25.21.83,0,0,3.64,12.43,24.61,4.76,8.53-3.11,13.3,5.92,13.3,5.92S138.05,140.13,125.42,143Z"/><path class="cls-18" d="M207.28,141.28c-11.84-3-12.52,11-12.52,11s4.57-8.36,13.26-5.15c19,7,23.11-4.69,23.11-4.69C220.78,149.53,213.34,142.81,207.28,141.28Z"/><path class="cls-8" d="M203.92,126.36c-8.28.66-16.35,5.64-15.38,9.72,1.07,4.57,7.12-2.73,15.21-4.68,10.13-2.44,16.44,1.91,16.15.86C219,129.16,211.48,125.73,203.92,126.36Z"/><path class="cls-8" d="M127.88,128.3c-9.29-.86-19.3,2-19.67,5.09-.23,2,7.86-2.64,20.28.06,9.92,2.16,16.87,9.06,18.21,4.71C147.9,134.3,138,129.23,127.88,128.3Z"/><path class="cls-19" d="M214.15,132.23a97.13,97.13,0,0,0-19.84,3c-5.53,1.44-12,2.08-17.13,4.7-4.7,2.42-6.68,4-12.35,3.75-10.14-.45-18.67-6.79-28.79-7.88-10.54-1.13-21.33-2.41-31.73.43-2.7.73-10.89,3.8-5.38,6.72s13.45,2,19.35,2.23c2.72.11,5.46.19,8.18.45,9.63.91,24.47-.36,23.66,11.66-.56,8.27-5.91,16.73-12.62,18.26a87.19,87.19,0,0,1-19.87,2,34.19,34.19,0,0,1-14.34-3.14c-1.28-.6-5.14-3.08-6.4-1.34-2.14,3,5.69,7.9,7.74,8.84,4.69,2.13,9.67,2.78,14.76,3.34C132,186.64,144.9,186,152,174.49c4.14-6.69,6.23-14.56,10.06-21.42,6.28-11.24,9.17,4.05,11.12,10.74a34.92,34.92,0,0,0,5,10.58c4.06,5.61,12,8.67,18.71,9,4.12.2,8.33,0,12.19-1.59,2.34-.95,3.29-3.65.5-4.71-1.69-.64-4.39-.19-6.16-.27a53.22,53.22,0,0,1-7.77-.64,23,23,0,0,1-9.29-4,18,18,0,0,1-4.82-5.23,16.64,16.64,0,0,1-1-14.17c2.33-6.37,9.34-6.85,15.14-7.34,7-.58,14.16-.43,21.16-1.05a74.83,74.83,0,0,1,9.35.26c4,.14,12.67-1.11,7.93-6.94C229.61,132.07,220.63,131.92,214.15,132.23Z"/><path class="cls-20" d="M94.32,131.8C86,132.05,79,129.73,77,131.39c-2.55,2.16,1.89,9.59,1.89,9.59a14.43,14.43,0,0,0,6.51,2.2c.53,5.75.19,20.65,10.75,30.07,8.82,7.85,37.66,10.17,46.65,5.67,11.12-5.57,15.87-15.92,17.85-26.15C165.5,127.71,106,131.44,94.32,131.8Zm49.07,40.37c-11,7.06-39,3.68-46.29-5.34-5.61-7-6.58-21.49-3.14-23.56,10.52-6.31,50-3.82,59.13,3.17C157.52,149.83,151.71,166.81,143.39,172.17Z"/><path class="cls-20" d="M230.41,129.75c-10.59,0-64.39-2-59.31,22.9,2.08,10.16,6.66,20.38,16.85,25.62,8.24,4.23,34.22,1.08,42-7,9.28-9.73,8.55-24.6,8.87-30.38a12.12,12.12,0,0,0,5.82-2.38s3.81-7.54,1.44-9.64C244.23,127.24,237.9,129.76,230.41,129.75Zm-1.54,35.09c-6.32,9.24-31.54,13.44-41.65,6.69-7.67-5.11-13.38-21.92-9.47-25.43,8-7.26,43.63-10.9,53.3-4.89C234.21,143.17,233.74,157.72,228.87,164.84Z"/><path class="cls-21" d="M184.71,143.86c-5.86,2.52,4.78,5.62,7.06,6,7.94,1.18,16.93.63,25.37-.94,4.44-.82,14-4.86,11.23-7.32C224.54,138.14,191.18,141.07,184.71,143.86Z"/><path class="cls-22" d="M210.86,142.4c-3.18.5-5.26,1.43-4.38,2.86,1.72,2.82,20.38,1.21,21.65-.95S217.63,141.32,210.86,142.4Z"/><path class="cls-23" d="M190.64,165.64c-2-.09-3.4.33-3,1.59.68,2.48,12.27,4.07,13.32,2.57S194.9,165.83,190.64,165.64Z"/><path class="cls-23" d="M103.55,164.76c-2.09-.34-3.59-.09-3.39,1.2.39,2.55,12.31,5.55,13.61,4.19S108,165.47,103.55,164.76Z"/><path class="cls-21" d="M148.71,145c-7.39-2.65-44.19-5.47-48-2.21-2.73,2.33,8.18,6.17,13.13,7,9.41,1.49,19.3,2,27.84.91C144.15,150.32,155.41,147.38,148.71,145Z"/><path class="cls-22" d="M132.72,142.81c-3.39.11-5.68.77-5,2.3,1.43,3,21.17,3.74,22.78,1.75S139.94,142.59,132.72,142.81Z"/><path class="cls-20" d="M178.1,137.64c-7.69,3.51-15.19,4.05-25.89.23-8.07-2.88,4.25,5.27,5.18,9.47s-.48,17,2.34,9.38,8.47-8.11,12.07-1.09,3.36-11.73,4.82-13.45S185.8,134.12,178.1,137.64Z"/><path class="cls-24" d="M98.21,134.27c22.4,1.16,40.3,1.84,53.82,7.08C143.22,134.08,128,132.45,98.21,134.27Z"/><path class="cls-24" d="M228.5,131.7c-27.34.94-40.09,1.12-47.46,8.06C192.89,134.15,208.19,134.58,228.5,131.7Z"/></g></g></svg>