<svg xmlns="http://www.w3.org/2000/svg" xmlns:xlink="http://www.w3.org/1999/xlink" viewBox="0 0 300 300"><defs><style>.cls-1{fill:none;}.cls-2{clip-path:url(#clip-path);}.cls-3{fill:#c0b9ab;}.cls-4{fill:#e0e0e0;}.cls-5{opacity:0.1;}.cls-6{fill:#f2f2f2;}.cls-7{fill:#8f4721;}.cls-8{fill:#535363;}.cls-9{fill:#261b18;}.cls-10{fill:#9c552c;}.cls-11,.cls-12{fill:#661004;}.cls-11{opacity:0.3;}.cls-12{opacity:0.4;}.cls-13{fill:#bf6c3c;}.cls-14{fill:#f0ded1;opacity:0.7;}.cls-15{fill:#d47b48;}.cls-16{fill:#78231f;}.cls-17{fill:#fff7ea;}.cls-18{fill:#ecdcc4;}.cls-19{fill:#45362e;}</style><clipPath id="clip-path"><circle id="SVGID" class="cls-1" cx="149.89" cy="150" r="150"/></clipPath></defs><title>people avatar</title><g id="图层_13" data-name="图层 13"><g class="cls-2"><rect class="cls-3" x="-0.15" width="300" height="299.99"/><path class="cls-4" d="M116.27,238.61s-34.6,7.64-31.7,61.38H107.8a231.21,231.21,0,0,1,4.38-34.37Z"/><path class="cls-4" d="M177.6,238.61l4.09,27A232.81,232.81,0,0,1,186.07,300H209.3C212.2,246.25,177.6,238.61,177.6,238.61Z"/><path class="cls-4" d="M179.82,238.9c-16.28-5.67-47.34-7.85-66.6.77-10.39,4.65-8.28,34.26-6.27,60.32h79.57C188,273.26,190.17,242.51,179.82,238.9Z"/><path class="cls-5" d="M113,256.49c1.79,18.19,18,28.76,18,28.76L147,269.72l16.94,14.69c16.2-14.67,16.88-20.33,17.44-31.21S111.5,241,113,256.49Z"/><path class="cls-6" d="M111.8,243.2c-7.32,20.65,19.27,37.45,19.27,37.45l15.84-10.93L161.7,280s29.24-16.79,18.16-40.86C169.91,217.5,120.27,219.24,111.8,243.2Z"/><path class="cls-7" d="M146.28,210.63c-11.41.18-27.38,7.25-28.26,25-.4,8.28.88,13.06,5.16,17.57,6.86,7.21,22.13,13.83,23.95,13.85,1.84-.32,16.89-7.27,23.51-14.73,4.15-4.67,5.29-9.48,4.63-17.75C173.86,216.86,157.68,210.39,146.28,210.63Z"/><path class="cls-8" d="M127.47,286.2l19.64-12.11-20.79-9.16C122.19,269.08,123.85,282.46,127.47,286.2Z"/><path class="cls-8" d="M147.11,274.09l19.64,12.11c3.63-3.74,5.28-17.12,1.14-21.27Z"/><path class="cls-8" d="M147.3,268.81c-.5,0-1,0-1.36,0-3.19-.11-5.75.05-5.64,3.88.1,3.59,1,6.54,5,6.45,2.73,0,5.75,1.05,6.94-1.82.77-1.88,2.39-6,.62-7.61C151.67,268.62,149.21,268.74,147.3,268.81Z"/><path class="cls-6" d="M146.93,289.1a2.78,2.78,0,1,0,2.78,2.78A2.78,2.78,0,0,0,146.93,289.1Z"/><path class="cls-9" d="M228.69,71.75c3.55-4.44-1.85-11.63-7.38-11.15,1.15-4.23-2.6-7.47-7.57-5.32-.41-7.91-7.34-9.47-13.52-7-1.35-5.44-6.75-7.06-10.82-3.26-1.42-6.78-9.17-6.18-14.2-3.18a11.46,11.46,0,0,0-16.47-2.36c-4.64-4.79-13.19-3-17.5,1.74-5.29-4.54-11.2-2.16-14.44,3.43-5.1-5.36-11.86-.25-15.53,4.37-5-4.53-12.54-.41-14.18,5.42-5.23-2.54-13.4,1.09-14.08,7.36C75.41,61.19,67.45,68,72.1,75.58c-5.66.88-11.7,7.7-5.63,12.33-6.09.65-6.47,7.27-3.23,11.22-6.79,3.14-7.27,17.63-1.12,14.11-4.77,2.73-5.2,9,1,9.75-4.47,2.94-9,9.17-.44,10.2-2.87,2.73-5,9,.23,10.43-3.12,5.51-3.13,7.67,2.37,11.64-1.47-1-1.15,6.54-.86,7.22,1.28,3,4.54,4.8,6.94,6.7,4.32,3.41,7.31,7.72,11,11.87,9.79,10.95,16.79,24,26.31,34.94,9.18,10.55,19.71-7.57,27.41-12,10.21-5.84,22.63-9,34.36-7.26,10.41,1.55,17.73,12.41,28.31,12.65,11,.23,15.69-15.49,17.82-23.58,1.38-5.24,1.73-12.56,4.41-16.74,2.35-3.65,7.86-5.81,4-11.84,3.38.28,5.17-7.32,1.08-8.59,4.11-.67,4.46-7.08,1.33-9.09,5.11-1.87,6.93-5.39,1.08-8.12,8.67-2,4.61-11.43-1.95-13.09,6.67-2.94,7.33-9.74,2.28-11.73,5.85-1.87,6.81-9.68,2-11.3,4.95-1.86,3.86-8.09-.37-12.17C236.51,82.29,236.85,69.7,228.69,71.75Z"/><path class="cls-10" d="M138.81,62.9C100.76,70.32,74,125,80.93,176.35c5.24,38.45,34.89,80.62,79.55,77.44,45.57-3.24,68.24-59.76,62.35-107C216.43,95.36,192.09,52.51,138.81,62.9Z"/><path class="cls-9" d="M125.32,131.29c-12-1.59-25.56,1.77-29.28,8.91,17.73-2.35,32.88,6,39.16,1.49C141.91,136.84,135.3,132.59,125.32,131.29Z"/><path class="cls-9" d="M198.93,129.29c-9.33,1.75-15.66,6.36-9.62,11.05,5.65,4.39,20.1-4.82,36.49-3.14C222.64,130.05,210.17,127.18,198.93,129.29Z"/><path class="cls-11" d="M187.83,71a171,171,0,0,0-46.13-7.25c-13.9-.25-29-1-41.94,4.84-7.12,3.22-15.85,7.63-18.51,15.51-3.31,9.79-1.72,22.13-.11,32.14,1.76,11,4.44,22.17,10.27,31.75.45-6.8,3.5-13.27,5-19.89,4.83-21.33,18.53-29,35-31.81,13.7-2.28,29.31-1.14,43.35-1.51,7.51-.19,51.06,7.17,41.72-10.29C212.31,76.65,195.52,73.29,187.83,71Z"/><path class="cls-10" d="M67.66,155c-18.68,5.15-11.19,32.42,4.07,37.9a37,37,0,0,0,15.09,1.64l.3-.46c2.24-3.55-.89-23.43-2-27.18C82.21,157.44,76.63,152.5,67.66,155Z"/><path class="cls-12" d="M74.21,165c-4.2-1.94-14.67,1.55-9.75,9.75,2.6-7.61,7.24-2.62,6.53,2.79-.48,3.63-4.38,3.68-.5,8.33,2.09,2.52,6.33,1.59,8.48.24C85.77,181.84,79.34,167.37,74.21,165Z"/><path class="cls-9" d="M169.83,47.38a128.8,128.8,0,0,0-39.14-1.18C109.15,48.77,83.15,59,76.33,81.82c-4.18,14-2,30.28-.92,44.61.65,8.68-2.85,25.43,4.57,32,8.63,7.62,12-3.86,12.87-12.1.92-9.26.2-19.39,2.88-28.41,6.51-21.92,18.16-26.14,49.7-28.56C161.8,88.09,202.23,85,210,99.54,212.9,105,236.66,89,215.23,65.19,205.9,54.81,183.05,49.92,169.83,47.38Z"/><path class="cls-9" d="M121.56,143.93c-13.61-3.68-22.18,11.5-12.89,16.46a30.22,30.22,0,0,1,13.47.72C131.28,158.14,131.68,146.68,121.56,143.93Z"/><path class="cls-12" d="M165.44,175.31c-5.73.07-10.76-2.54-16.14-.15s.8,10,16,9.65,19.35-7.31,16.52-9.89C178.55,171.91,171.8,175.24,165.44,175.31Z"/><path class="cls-13" d="M165.11,147.59c-10.78-.94-19.24,20-14.66,26.8,3.21,4.8,26.93,4.64,30.65-1C182.45,171.36,175.38,148.48,165.11,147.59Z"/><path class="cls-14" d="M116.71,146.58c-5.52,1.18-1.32,7.93,4.07,5.48C124.67,150.28,121.62,145.54,116.71,146.58Z"/><path class="cls-9" d="M209.68,141.6c-14-1.84-20.44,14.35-10.58,18a30.22,30.22,0,0,1,13.45-1.08C221.2,154.39,220.08,143,209.68,141.6Z"/><path class="cls-14" d="M205.23,144.87c-5.32,1.9-.25,8,4.76,4.89C213.61,147.48,210,143.18,205.23,144.87Z"/><path class="cls-15" d="M203.52,186.41c-24.44-4.85-64.19,3.3-86.18,4.54-1.78.1-3.07.13-2.36,2.72,2.76,9.92,13.64,46,52.19,45.51,28.31-.33,26.05-20.28,26.59-32.48.26-6,6.66-13.36,11.71-17.88C207.13,187.34,205.78,186.86,203.52,186.41Z"/><path class="cls-16" d="M121,195.9s11.82,29.85,41.22,27.92c26.48-1.74,29.21-12.14,30.11-19.39a18.81,18.81,0,0,1,8.21-13.72C155.85,204.62,121,195.9,121,195.9Z"/><path class="cls-17" d="M130.75,198.7s.71,9.78,9.92,13.18c11.83,4.35,24.87,4.47,38,.38,8.87-2.75,13.46-17.75,13.46-17.75S167.34,200.2,130.75,198.7Z"/><path class="cls-17" d="M168.29,212.68c-12.58.61-23.49-.73-29.47-2.94-5-1.83-4.93,1-3.91,3.39,0,0,2,10,25,11.06,20.13.89,28.37-12.18,26-14.73S180.88,212.08,168.29,212.68Z"/><path class="cls-18" d="M130.7,198.57a15.86,15.86,0,0,0,1.15,4.25s47.44-6.3,58.16-2.78a23.32,23.32,0,0,0,2.14-5.53S158.67,200.5,130.7,198.57Z"/><path class="cls-18" d="M141.45,209.72c20.17,9,41.71-.69,41.71-.69C158.86,215,141.45,209.72,141.45,209.72Z"/><path class="cls-12" d="M208.49,184.15c-5-3.33-11.81-2.34-17.42-1.85l-4.4.87c4.61.48,8.84,1.14,13,3.24s7.68,4.37,9.09,9c.78,2.52,1,10.72,4,5C215.6,195.15,213.22,187.3,208.49,184.15Z"/><path class="cls-12" d="M113,187.32c-4.64,3.29-6.79,11.2-3.87,16.33,3.23,5.64,3.19-2.57,3.9-5.11,1.28-4.62,4.8-7,8.83-9.2s8.32-3,12.92-3.62l-4.41-.75C124.72,184.65,117.88,183.86,113,187.32Z"/><path class="cls-19" d="M77.7,102.13h0C77.9,102.14,77.89,102.13,77.7,102.13Z"/><path class="cls-19" d="M218.21,71.43c1.42-4-2-9.69-6.52-7,3-4.16-2.43-12-6.85-5.6-1.1-2.42.14-4.6-3.58-4.43-3.29.16-4.13,2.85-5.51,5.33-1.53-4.76-1.75-11-7.63-12.85-6.77-2.17-8,4-11.18,8-1.68-2.84-2.08-6.53-5.05-8.59-4.11-2.85-6.22,1.23-8.19,4.3-2.29-1.5-3-4.56-6.26-3.4-3.6,1.3-4.8,6.78-6.53,9.79-3.14-3.57-5.75-9.35-10.79-10.54-6.44-1.52-9.1,3.4-11.4,8.13-2.57-1.41-4.15-4-7.46-2.67-3.12,1.26-4.25,5-5.26,7.9-3.07-2.2-7.49,0-6.64,4-2-4-8.72-6.14-12.69-4.79-3.07,1-4.47,3-4.61,5.3A10,10,0,0,0,93.72,70C88,67.09,86,71.83,88.88,76.78c-2.28-2.13-8.09-5.91-11.23-3.9S75.09,84,77.14,86.45c0-.06,0-.09-.11-.09-6,.79-1.48,4,1.89,5-8.71-2.65-7.11,10.72-1.29,10.75h.07c.19,0,.2,0,0,0h-.11c-5.67-.95-6.72,7-1.57,8.31-6.56-1.38-3.4,5.23.92,6.29,5.78,1.43,7.16-4.46,2.49-7.14,6.23,3.58,7.62-2.76,3.19-6.55,7.85,3.24,3.64-8.52,2.26-11.62,2.25,1,4.37,3.91,7,3.22,3-.76,3-4.71,2.9-7.28,1.1,3.09,6.74,5.86,9.46,3.44,2.22-2,1.26-7.94,2-10.57,1.92,2.58,6.6,9.19,10.69,7.25,3.08-1.47,2-7.42,2.89-10.25,1.73,4.24,6.13,8.25,11,7.82,6.09-.53,6.37-4.5,8.06-9.83.89,3.36,5.14,8.36,9.29,8,5.25-.42,6.17-5.6,8.08-10.28,5.36,10.08,16.82,12,20.94,0,3.21,15.74,15.59,9.83,24.22,2.69-1.43,8.88,5.08,11.56,10.08,4.77-4.25,5.77,2.25,10.12,7.8,8.57a8,8,0,0,0,5.81-7,9.32,9.32,0,0,0-1.59-6.27C223.23,75.3,218.41,70.85,218.21,71.43Z"/></g></g></svg>