<svg xmlns="http://www.w3.org/2000/svg" xmlns:xlink="http://www.w3.org/1999/xlink" viewBox="0 0 300 300"><defs><style>.cls-1{fill:none;}.cls-2{clip-path:url(#clip-path);}.cls-3{fill:#750c01;}.cls-4{fill:#1e1e29;}.cls-5{fill:#ca3564;}.cls-6{fill:#3a3a4a;}.cls-7{fill:#fff;}.cls-8{fill:#b51b4c;}.cls-9{fill:#eba971;}.cls-10{fill:#d99a64;}.cls-11{fill:#ffbc82;}.cls-12{fill:#b54d26;opacity:0.4;}.cls-13{fill:#261b18;}.cls-14{fill:#ffd4ad;}.cls-15{fill:#e6d2c3;opacity:0.7;}.cls-16{fill:#80523a;}.cls-17{fill:#8f2722;}.cls-18{fill:#fff7eb;}.cls-19{fill:#e8dac5;}.cls-20{fill:#5b5bd6;}.cls-21{fill:#4f3e38;}.cls-22{fill:#ff697c;}.cls-23{fill:#ff8f9d;}</style><clipPath id="clip-path"><circle id="SVGID" class="cls-1" cx="149.99" cy="149.99" r="149.99"/></clipPath></defs><title>people avatar</title><g id="图层_15" data-name="图层 15"><g class="cls-2"><ellipse class="cls-3" cx="150.11" cy="149.99" rx="150" ry="149.94"/><path class="cls-4" d="M71.16,300h33.56l-2.22-59.56C90.52,247.29,71.81,254.79,71.16,300Z"/><path class="cls-4" d="M203.47,240.41,201.26,300h33.55C234.17,254.79,215.45,247.29,203.47,240.41Z"/><path class="cls-5" d="M188.42,233.05c-22.24-11.94-54.66-7.83-69.44,1.79-21.84,14.21-18.91,29.4-13.92,65.13h95.52C206.13,267.46,210,244.62,188.42,233.05Z"/><path class="cls-4" d="M97.52,243.2c-1,2.6-1.89,30.83-1.91,56.77h38c-4.39-23.47-10.73-50.47-16.41-68.92C117.23,231.05,99.4,238.32,97.52,243.2Z"/><path class="cls-6" d="M94.4,243.63c.25,3,30.06,11.94,29.31,8.93s-4.13-25-4.13-25C101,228.8,94.15,240.61,94.4,243.63Z"/><path class="cls-6" d="M101,260.76c.7,1.94,10.62,20.42,20.22,39.21h13.38C130.92,275.25,126,254.8,123,249.55,120.63,245.56,99.79,257.24,101,260.76Z"/><path class="cls-7" d="M99.63,237.89a2.53,2.53,0,1,0,2.52,2.52A2.52,2.52,0,0,0,99.63,237.89Z"/><path class="cls-7" d="M109.73,232.48a2.53,2.53,0,1,0,2.52,2.53A2.53,2.53,0,0,0,109.73,232.48Z"/><path class="cls-7" d="M109.54,241.5a2.53,2.53,0,1,0,2.53,2.52A2.52,2.52,0,0,0,109.54,241.5Z"/><path class="cls-7" d="M107,259.35a2.53,2.53,0,1,0,2.52,2.52A2.53,2.53,0,0,0,107,259.35Z"/><path class="cls-7" d="M116.58,256.46A2.53,2.53,0,1,0,119.1,259,2.53,2.53,0,0,0,116.58,256.46Z"/><path class="cls-7" d="M115.86,266.92a2.53,2.53,0,1,0,2.52,2.53A2.53,2.53,0,0,0,115.86,266.92Z"/><path class="cls-7" d="M115.32,277.2a2.53,2.53,0,1,0,2.52,2.53A2.53,2.53,0,0,0,115.32,277.2Z"/><path class="cls-7" d="M123.61,286.22a2.53,2.53,0,1,0,2.53,2.52A2.52,2.52,0,0,0,123.61,286.22Z"/><path class="cls-7" d="M124.52,273.77A2.53,2.53,0,1,0,127,276.3,2.53,2.53,0,0,0,124.52,273.77Z"/><path class="cls-4" d="M209.05,243.2c-1.88-4.88-19.77-12.15-19.77-12.15-5.68,18.45-12,45.45-16.38,68.92H211C210.94,274,210.05,245.8,209.05,243.2Z"/><path class="cls-6" d="M187,227.52s-3.38,22-4.13,25,29-5.92,29.31-8.93S205.53,228.8,187,227.52Z"/><path class="cls-6" d="M183.62,249.55c-3,5.25-8,25.7-11.69,50.42h13.38c9.6-18.79,19.53-37.27,20.22-39.21C206.78,257.24,185.94,245.56,183.62,249.55Z"/><path class="cls-7" d="M206.81,237.89a2.53,2.53,0,1,0,2.52,2.52A2.52,2.52,0,0,0,206.81,237.89Z"/><path class="cls-7" d="M196.71,232.48a2.53,2.53,0,1,0,2.52,2.53A2.53,2.53,0,0,0,196.71,232.48Z"/><path class="cls-7" d="M196.89,241.5a2.53,2.53,0,1,0,2.52,2.52A2.52,2.52,0,0,0,196.89,241.5Z"/><path class="cls-7" d="M199.41,259.35a2.53,2.53,0,1,0,2.52,2.52A2.52,2.52,0,0,0,199.41,259.35Z"/><path class="cls-7" d="M189.86,256.46a2.53,2.53,0,1,0,2.52,2.53A2.53,2.53,0,0,0,189.86,256.46Z"/><path class="cls-7" d="M190.57,266.92a2.53,2.53,0,1,0,2.53,2.53A2.52,2.52,0,0,0,190.57,266.92Z"/><path class="cls-7" d="M191.12,277.2a2.53,2.53,0,1,0,2.52,2.53A2.53,2.53,0,0,0,191.12,277.2Z"/><path class="cls-7" d="M182.82,286.22a2.53,2.53,0,1,0,2.53,2.52A2.53,2.53,0,0,0,182.82,286.22Z"/><path class="cls-7" d="M181.92,273.77a2.53,2.53,0,1,0,2.52,2.53A2.52,2.52,0,0,0,181.92,273.77Z"/><path class="cls-8" d="M149.51,203.67c-41.25,0-41.15,59.6,3.53,59.6C194.81,263.27,206.88,203.67,149.51,203.67Z"/><path class="cls-5" d="M149.22,201.67c-44,0-43.91,56.44,3.77,56.44C197.56,258.11,210.44,201.67,149.22,201.67Z"/><path class="cls-9" d="M219.92,154.67c-7.9-3-12.87,1.94-15.46,11.78-1,3.9-3.93,24.77-2,28.63.08.17.17.33.25.5,2.23,5.67,5.5,7.54,9.82,5.91C226.08,196.41,236.39,161,219.92,154.67Z"/><path class="cls-10" d="M77.12,95.66C72.43,117.74,71.39,147,82,168.14c5.54,11,18.79,3.67,28.14,1.35,11.5-2.85,23.06-5.44,34.63-8,19-4.2,39.86,0,59.15,1.81,15.11,1.44,16.22,8.5,16.24-3.79,0-15.23,3.9-40.35,0-57.07C201.36,21.13,88.37,42.55,77.12,95.66Z"/><path class="cls-11" d="M143,68.59C89.1,75.92,80.59,125.21,85.83,173.51c3.93,36.19,30.67,76.49,72.64,74.64,42.81-1.88,65.51-54.31,61.19-98.79C215,101,204.56,60.21,143,68.59Z"/><path class="cls-11" d="M73.92,153.17c-17.68,4.67-9.67,44.65,3.57,52.4,5.26,3.08,13.43-.2,14.07-10.6,3-4.83,1.33-18.14-1.64-29.68C87.5,155.93,82.41,150.93,73.92,153.17Z"/><path class="cls-12" d="M79.81,162.71c-3.88-1.92-13.79,1.08-9.38,8.91,2.63-7.08,6.85-2.28,6,2.77-.55,3.39-4.2,3.34-.68,7.81,1.89,2.42,5.9,1.64,7.94.44C90.23,178.78,84.56,165.05,79.81,162.71Z"/><path class="cls-13" d="M119.67,142.49c-12-3.05-17.79,12.47-9.38,17a22.29,22.29,0,0,1,11.58.12C129.38,156.2,128.59,144.76,119.67,142.49Z"/><path class="cls-12" d="M164.51,174.82c-5.6.2-7.88-2.31-11.75.12s1.91,9.75,11.82,9.17,14-7.46,11.89-9.94C174,171.29,170.73,174.62,164.51,174.82Z"/><path class="cls-14" d="M161.94,149.57c-4.55.72-10.08,25.11-7.55,26.85,6.2,4.26,18.74,1.73,22.08-2.25C177.78,172.6,167.07,148.77,161.94,149.57Z"/><path class="cls-13" d="M210.84,144c-11.65-5.45-21,11.15-11.38,16.08,3.15-1.44,9.35-.85,12.33.24C216.68,156.54,217.09,146.91,210.84,144Z"/><path class="cls-15" d="M115.8,145.35c-4.6,1.43-.34,8,4,5.27C123,148.68,119.89,144.08,115.8,145.35Z"/><path class="cls-15" d="M206.15,145.73c-4.7.59-2.71,7.36,2.13,5.55C211.79,150,210.32,145.21,206.15,145.73Z"/><path class="cls-16" d="M114,123.82c-2.53.44-20.17,7.48-14.68,10.24a7.84,7.84,0,0,0,3.47.87c2.64,0,5.16-1.15,7.61-2.19a23.22,23.22,0,0,1,14.86-1.24c2.7.74,9,2.42,10.13-1.52C137.51,122.08,117.68,123.18,114,123.82Z"/><path class="cls-16" d="M207.47,123.11c-3.48-.45-22.08-.55-20.15,7.16,1,3.87,7,1.86,9.5,1a21.23,21.23,0,0,1,14.83.83,30.67,30.67,0,0,0,6.43,2c2.74.44,5.09,0,4.29-3C221.3,127,211.15,123.59,207.47,123.11Z"/><path class="cls-12" d="M160.84,188.81c-25.89,1.52-35.61-3-42.08-3.12,3.73,26.51,20.55,45.39,39.35,45.45,9.88,0,23.56-.9,30.82-12.78,2.83-4.63,3.39-9.52,4.71-14.82,2.18-8.74,4.68-13.27,10.59-18.45a7.28,7.28,0,0,0-1.73-1.8C197.2,179.41,190.82,187.05,160.84,188.81Z"/><path class="cls-17" d="M122.75,189.79s7.79,37.12,37.12,35.44c26.42-1.52,30.48-14.3,32.32-23.22,2.45-11.95,9.92-16.76,9.92-16.76C156.1,201.37,122.75,189.79,122.75,189.79Z"/><path class="cls-18" d="M130.52,192.13a11.45,11.45,0,0,0,8.85,10.72c11.43,3.17,24.36,3.35,37.65.55,9-1.89,13.79-13.75,13.79-13.75S164.32,195.71,130.52,192.13Z"/><path class="cls-18" d="M164.69,217.67c-10.17-.11-18.82-1.59-23.44-3.47-3.84-1.57-4,.48-3.43,2.32,0,0,.72,7.47,19.14,9.23,16.1,1.55,23.86-7.68,22.2-9.67S174.86,217.79,164.69,217.67Z"/><path class="cls-19" d="M130.52,192.13a9.48,9.48,0,0,0,1.27,4.82s45.53-4.34,55.93-1.77a41.13,41.13,0,0,0,3.09-5.53S166.72,195.48,130.52,192.13Z"/><path class="cls-19" d="M142.77,215.86c15.44,7.52,33.6,1.34,33.6,1.34C156.32,220.5,142.77,215.86,142.77,215.86Z"/><path class="cls-10" d="M148.25,59.14c-43.7-.36-74.78,31-71.88,93.57,1.82-.06,5.56-.06,8.28,2.62,3.62,3.56,3.49,7.46,4.48,9.42.47,1,1,2.65,4.44,2.48-6.49-21-2.74-50.52,4.4-60.1,17.71-23.76,57.51,8.36,70.7,7.88,10-.36,33.92-30.31,43.42-7.82C218.56,122.52,218.38,59.72,148.25,59.14Z"/><path class="cls-20" d="M81.85,186.84a7.49,7.49,0,1,0,7.49,7.49A7.48,7.48,0,0,0,81.85,186.84Z"/><path class="cls-21" d="M189.45,91.93c10.18-16.43-5.57-38.71-19-47.6C149.92,30.81,114.83,27.37,95,44c-5.46,4.56-7.81,9.85-9,17A19.93,19.93,0,0,0,75.6,57.08C82.25,62.59,88.4,70.35,90,72c15-5.94,34,6.66,43.72,16.58,5.83,5.91,7.49,12.84,15.26,19.54,4.13,3.56,9.95,3.7,16.58,11.84,2.79-6.3,7.31-5.49,14.3-10.36s11.56-14.3,22.92-16.92A17.2,17.2,0,0,0,189.45,91.93Z"/><path class="cls-22" d="M211.71,43.35c-4.87.69-14.12,3.31-18.77,3.58,1-7.65-1-12.06-5.7-18.13-2.05,2.6-9,10.15-12,11.87-2.83-6.61-4.29-8-5.58-16.09-1.72,2.06-9.32,8.93-12,10.26-1.89-4.54-6.53-13-11.43-15.56C140.44,37.49,135,22.42,128.35,21c-.64,3.69-.94,7.86-2.54,11.15-2.44-3.3-7.15-10.22-9.3-5.33-.61,1.37-1,4.89-3,5.4-2.52.65-6.88-10.8-12.65,3.18-.88,2.12-3,6.72-5.56,7.26s-4.55-3.45-7-1.68C87,41.93,86,45.85,85.8,47.35c-1.56-1.71-4.17-2.21-6.43-2.39.59,2.22,2.2,4.15,3.21,6.22,1.54,3.19,3.06,10.26,7.65,10.31,4,0,6.7-5,6.67-8.48,1.89,10.65,12.83,7.87,15-.93,4.4,4.65,7.41,11.75,13.85,14,8.17,2.86,12-9.3,17.41-7.87,3.68,1,.62,11.55,4,13,3.51,1.49,6.66-7.49,13.54-10.24-1.76,6.17.43,29,.43,29a130.87,130.87,0,0,0,11.72-10c3.32-3.37,9.09-6.46,13.69-4.24-7.68,10.09,11.43,14.64,14.47,3.61-9,.53-9.5-2.45-5.36-9.3C199.21,64,207.25,49.67,211.71,43.35Z"/><path class="cls-23" d="M183.59,58.34c.21-5,3.74-16.07,2-19.14-5.4,10.6-18,12.43-21.3-2.16-2.27,3.62-4.28,6.27-8.75,3.44-3-1.91-6.06-7.41-6.62-10.75-3.41,9.19-12.68,5.93-17.69-.43,0,3.43-2.37,9.49-6.41,9.42-3.86-.06-4.25-4.19-5.53-6.92-2.13,7.67-7.77,7.16-13,3.32-2.05,5.77-8.74,15-16.13,10.94.63,7.6,6.6,5.19,10,.37,2.77,1.58,2.22,3.24,5.2,2.47,2.46-.63,3.66-2.89,4.27-5.16,6.1,7.53,13.68,10.85,19.79.44,2.73,12.22,9.5,4.67,13.84,7.79,2.46,1.79,7.11,4.84,9.05.69,1.6,2.86,1.35,4.88,4.84,5.35,2.52.33,6.36-1.38,8.27-2.89,1.63,7.2,7.83,13.4,15.5,14.1,10,.9,21.78-13.67,19.08-19.27C197.24,52.27,187.1,59.16,183.59,58.34Z"/><path class="cls-20" d="M223.08,113.9a13.09,13.09,0,0,0-12.18,9.7l7.9,2.16a5,5,0,0,1,4.7-3.69,5.42,5.42,0,0,1,5.41,3.77c1.34,3.48.06,6.2-1.8,7.36-.85.54-3.05,1.48-5.41-1l-6,5.56a12.77,12.77,0,0,0,9.37,4.3,12,12,0,0,0,6.37-1.87c5.57-3.48,7.66-10.57,5.09-17.23A13.67,13.67,0,0,0,223.08,113.9Z"/></g></g></svg>