<svg xmlns="http://www.w3.org/2000/svg" xmlns:xlink="http://www.w3.org/1999/xlink" viewBox="0 0 300 300"><defs><style>.cls-1{fill:none;}.cls-2{clip-path:url(#clip-path);}.cls-3{fill:#2b6877;}.cls-4{fill:#25252e;}.cls-5{fill:#918fa0;}.cls-6{fill:#f29f63;}.cls-7{fill:#eba971;}.cls-8{fill:#fcb077;}.cls-9{fill:#ffbc82;}.cls-10{fill:#b54d26;opacity:0.4;}.cls-11{fill:#261b18;}.cls-12{fill:#ffd4ad;}.cls-13{fill:#e6d2c3;opacity:0.7;}.cls-14{fill:#80523a;}.cls-15{opacity:0.5;}.cls-16{fill:#94110c;}.cls-17{fill:#ffb278;}.cls-18{fill:#fff;}</style><clipPath id="clip-path"><circle id="SVGID" class="cls-1" cx="150" cy="150" r="150"/></clipPath></defs><title>people avatar</title><g id="图层_17" data-name="图层 17"><g class="cls-2"><rect class="cls-3" x="-0.03" width="300" height="299.99"/><path class="cls-4" d="M129.4,243.61C111.64,246.4,93.48,267.08,90.62,300H120.3c.92-17.07,2.46-35.28,5.25-40.2Z"/><path class="cls-4" d="M177.73,243.61l3.87,16.17c2.78,4.92,4.33,23.13,5.23,40.2h29.7C213.65,267.08,195.51,246.4,177.73,243.61Z"/><path class="cls-4" d="M182.78,244.9c-17.11-6.9-44.46-4.67-58.73.28-8.7,3-7.6,30.52-6.42,54.8h71.9C190.78,275.84,191.68,248.49,182.78,244.9Z"/><path class="cls-5" d="M127.55,240.56c-8.68,14,26,28.38,26,28.38s30.69-13.37,27.4-26C177.07,227.94,135.36,228,127.55,240.56Z"/><path class="cls-6" d="M153.21,222.52c-9,0-21.7,4.57-22.61,16.57-.42,5.59.53,8.82,3.87,11.93,5.33,5,11.92,9,18.74,9.08C160,260,166.64,256,172,251c3.33-3.11,4.28-6.34,3.86-11.93C174.93,227.09,162.23,222.51,153.21,222.52Z"/><path class="cls-7" d="M221.91,155.47c-7-2.69-11.42,1.71-13.72,10.42-.92,3.45-3.48,21.93-1.74,25.34.08.15.16.29.23.44a24.11,24.11,0,0,0,11.84-.91C230.5,186.27,236.52,161.05,221.91,155.47Z"/><path class="cls-8" d="M78,95.94c-4.68,22.08-5.72,51.38,4.9,72.48,5.55,11,18.8,3.67,28.16,1.36,11.49-2.85,23.06-5.45,34.63-8,19-4.2,39.86,0,59.15,1.8,15.11,1.44,16.22,8.51,16.23-3.79,0-15.23,3.91-40.35,0-57.07C202.24,21.4,89.24,42.82,78,95.94Z"/><path class="cls-9" d="M143.86,68.87C90,76.2,81.45,125.49,86.7,173.8c3.93,36.19,30.67,76.49,72.64,74.65,42.81-1.89,65.52-54.32,61.19-98.8C215.84,101.28,205.43,60.49,143.86,68.87Z"/><path class="cls-9" d="M74.8,153.41c-17.66,4.35-9.15,37.47,4.12,44.9,5.28,3,11.23,1.51,13.72-5.06,3-4.58,1.23-17.24-1.8-28.24C88.38,156.1,83.27,151.32,74.8,153.41Z"/><path class="cls-10" d="M80.69,163c-3.89-1.92-13.8,1.08-9.4,8.9,2.64-7.06,6.86-2.27,6,2.79-.54,3.38-4.19,3.34-.68,7.8,1.9,2.42,5.9,1.65,8,.44C91.1,179.07,85.43,165.33,80.69,163Z"/><path class="cls-11" d="M122.88,141.84c-10.37-3.59-15.4,14.69-8.12,20a14.4,14.4,0,0,1,10,.14C131.27,158,130.59,144.51,122.88,141.84Z"/><path class="cls-10" d="M166.59,176.51c-5.6.2-7.87-2.31-11.74.12s1.9,9.75,11.81,9.17,14-7.46,11.9-9.94C176.1,173,172.81,176.31,166.59,176.51Z"/><path class="cls-12" d="M164,151.26c-4.54.72-10.08,25.11-7.55,26.85,6.2,4.26,18.75,1.73,22.09-2.25C179.87,174.29,169.15,150.46,164,151.26Z"/><path class="cls-11" d="M211.63,143.37c-10.08-6.42-18.14,13.15-9.85,18.95,2.73-1.69,8.09-1,10.67.28C216.68,158.16,217,146.81,211.63,143.37Z"/><path class="cls-13" d="M119.53,145.21c-4,1.68-.3,9.39,3.46,6.21C125.72,149.13,123.07,143.71,119.53,145.21Z"/><path class="cls-13" d="M207.56,145.42c-4.05.7-2.33,8.68,1.86,6.54C212.45,150.43,211.17,144.81,207.56,145.42Z"/><path class="cls-14" d="M120.83,127.61c-6.14,0-15.41,6.1-19.88,10.19,1.06,2,4.76.95,6.5.49,3-.76,6-2,7.23-2.3a24.2,24.2,0,0,1,15.86,1.16c2.53,1.2,8.5,4,10.26.31C144.32,130,124.61,127.64,120.83,127.61Z"/><path class="cls-14" d="M188.52,137.5c1.48,3.68,6.74.81,9-.41a18.76,18.76,0,0,1,13.88-1.37c1,.3,3.71,1.5,6.28,2.22,1.51.44,4.73,1.48,5.68-.56-3.83-4-11.84-10-17.2-9.94C202.81,127.51,185.56,130.16,188.52,137.5Z"/><g class="cls-15"><path class="cls-16" d="M114.08,189.4c5,9.74,17.47,5.22,12.36-4.72A9.3,9.3,0,0,1,114.08,189.4Z"/><path class="cls-16" d="M196.35,183.9c-2.87,10.2,10.55,13.9,13.33,3.94C205.84,190.23,199.58,188.64,196.35,183.9Z"/><path class="cls-16" d="M202.1,189.2a2.91,2.91,0,0,0-3.72,1.48c-5.1,13.73-20,22.62-37.24,22.28-16.57-.32-29.73-9.12-35-20.6a3.27,3.27,0,0,0-3.86-1.63,2.38,2.38,0,0,0-1.59,3.32c6,13.17,20.72,23.24,39.14,24.08l1.56,0c19.82.39,36.72-9.74,42.61-25.58A2.71,2.71,0,0,0,202.1,189.2Z"/></g><path class="cls-17" d="M149.13,59.41c-43.71-.35-74.79,31-71.89,93.58,1.82-.05,5.56-.05,8.28,2.62C89.14,159.17,89,163.07,90,165c.47,1,1,2.65,4.44,2.49-6.5-21-2.75-50.53,4.4-60.11,17.72-23.76,57.52,8.37,70.71,7.88,10-.37,33.92-30.31,43.42-7.82C219.43,122.8,219.26,60,149.13,59.41Z"/><path class="cls-18" d="M82.72,187.13a4.64,4.64,0,1,0,4.65,4.64A4.64,4.64,0,0,0,82.72,187.13Z"/></g></g></svg>