<svg xmlns="http://www.w3.org/2000/svg" xmlns:xlink="http://www.w3.org/1999/xlink" viewBox="0 0 300 300"><defs><style>.cls-1{fill:none;}.cls-2{clip-path:url(#clip-path);}.cls-3{fill:#ed9335;}.cls-4{fill:#9c552c;}.cls-5{fill:#e8dbdb;}.cls-6{fill:url(#linear-gradient);}.cls-7{fill:#fff9f0;}.cls-8{fill:#fff;}.cls-11,.cls-8{opacity:0.4;}.cls-9{fill:#261b18;}.cls-10,.cls-11{fill:#661004;}.cls-10{opacity:0.3;}.cls-12{fill:#573d2f;}.cls-13{fill:#bf6c3c;}.cls-14{fill:#f0ded1;opacity:0.7;}.cls-15{fill:#d47b48;}.cls-16{fill:#78231f;}.cls-17{fill:#fff7ea;}.cls-18{fill:#ecdcc4;}.cls-19{fill:#161110;}</style><clipPath id="clip-path"><circle id="SVGID" class="cls-1" cx="150.06" cy="149.83" r="149.83"/></clipPath><linearGradient id="linear-gradient" x1="154.68" y1="233.77" x2="154.68" y2="249.99" gradientUnits="userSpaceOnUse"><stop offset="0" stop-color="#854326"/><stop offset="1" stop-color="#9c552c"/></linearGradient></defs><title>people avatar</title><g id="图层_18" data-name="图层 18"><g class="cls-2"><rect class="cls-3" x="0.22" width="299.66" height="299.66"/><path class="cls-4" d="M183.32,250a7,7,0,0,0-8.88,10.84c.61,1.81.91,6.9,1.14,10.67.48,8,1.16,18.44,4.64,28.11h15.37c-4.19-7.49-5.29-17.71-6-29C189,260.83,188.58,253.69,183.32,250Z"/><path class="cls-4" d="M135.2,261.42a7,7,0,0,0-8.89-10.84c-5.26,3.65-5.69,10.79-6.29,20.67-.67,11-1.73,21-5.67,28.41h15.26c3.31-9.52,4-19.76,4.44-27.56C134.28,268.32,134.59,263.23,135.2,261.42Z"/><path class="cls-4" d="M180.54,248.7c-9.3-6.74-40.45-8.28-52.6.88-12.56,9.47,2.28,27.68,5.07,50.08h44.36C179.69,277.43,193.3,258,180.54,248.7Z"/><path class="cls-5" d="M182.25,279.22c-4-8.62-3.79-23.63-1.71-30.52a9.13,9.13,0,0,0-4.17-2.64c-11-3.62-31.32-4.84-43.39.33a19.26,19.26,0,0,0-5,3.19c1.72,6.18,2.89,18.43-1.1,27.93a107.4,107.4,0,0,1,5.35,22.15h46.15A115.23,115.23,0,0,1,182.25,279.22Z"/><path class="cls-6" d="M167.48,227.12c.93-16.21-27.07-16.82-27,.88,0,7.83.34,12.8-1.81,14.91-1.27,1.24-5.65,3.48-5.65,3.48,2.54,16.42,4.3,23,21.84,23,15.87,0,20.09-5.08,21.55-23.33,0,0-5.45-2.07-7.39-3.61C166.46,240.44,167.07,234.27,167.48,227.12Z"/><path class="cls-7" d="M137.82,243.06a2.39,2.39,0,1,0,2.45,2.31A2.38,2.38,0,0,0,137.82,243.06Z"/><path class="cls-7" d="M143.28,246.76a2.39,2.39,0,0,0,.16,4.77,2.36,2.36,0,0,0,2.29-2.45A2.39,2.39,0,0,0,143.28,246.76Z"/><path class="cls-7" d="M150.35,249.26a2.39,2.39,0,1,0,2.44,2.31A2.37,2.37,0,0,0,150.35,249.26Z"/><path class="cls-7" d="M157.42,249.64a2.39,2.39,0,1,0,2.45,2.31A2.38,2.38,0,0,0,157.42,249.64Z"/><path class="cls-7" d="M170.25,242.82a2.39,2.39,0,1,0,2.45,2.3A2.38,2.38,0,0,0,170.25,242.82Z"/><path class="cls-7" d="M164.57,247a2.39,2.39,0,1,0,2.45,2.31A2.38,2.38,0,0,0,164.57,247Z"/><path class="cls-8" d="M166.39,271.14c-7.93,2.8-17.59,1.63-25.74-.41-4.68-1.18-7.31,4.13-5.86,8.66,1.9,6,11.62,7.59,20.09,7.45,16.69-.26,23-6.47,20.11-13.86C174.24,271,170.67,269.63,166.39,271.14Z"/><path class="cls-9" d="M76.68,81.88c-11.79,32.37-12.51,57.27-20.1,108.29-1.92,12.91-9.73,32.87-6.11,40.65,5.07,10.91,17.49,4.41,27.83,7.59,11.18,3.44,23.58,8.44,26-7.28a23.92,23.92,0,0,1,1.34,9.51c8.63.07,38.08-9.76,58.07-9.28,17.79.43,54.88,16,62.05-4.58,5.34-15.33,9.77-82.84,7-104.85-.16-1.35,5.23-3.29,5.38-4.46.48-3.94.77-6.72.81-7.82C242.39,21.85,106,1.21,76.68,81.88Z"/><path class="cls-4" d="M146.63,69.11c-34.43,6.67-58.77,56.15-52.51,102.6,4.64,34.48,36.56,68.41,70.09,68.41,35.5,0,63.41-54.05,58.36-95C216.85,98.59,194.87,59.78,146.63,69.11Z"/><path class="cls-10" d="M207.11,82.13c-18.73-7.47-36.92-11.79-57.47-12.34-12.57-.33-29.46-1.14-41.23,3.91-17.62,7.58-25.22,19.17-27.68,37-1.68,12.1,10.47,23.67,19.78,31.22,6.64-6.46,3.51-15.2,3.33-22.84,1.59,8.7,8.7,6.16,16.22,6.53,6.69.32,18.17,3.23,24.28-.07,2.74-1.48,3.23-3.46,4.27-6.39a10.41,10.41,0,0,0,3.74,3c4.49,2.16,10.38,1.44,15.35,1.65,7.34.32,15.09,1.1,22.17-1.33,3.09-1.06,4.93-2,5.84-5.46,1.2,7.38,12.37,6.11,18.46,5.91C240.59,122,221.72,88,207.11,82.13Z"/><path class="cls-4" d="M82.13,152.35C65.22,157,72,181.67,85.77,186.65a33.3,33.3,0,0,0,13.66,1.5c.08-.14.18-.27.27-.41,2-3.21-.78-21.21-1.81-24.6C95.3,154.61,90.25,150.12,82.13,152.35Z"/><path class="cls-11" d="M88.05,161.44c-3.8-1.75-13.28,1.39-8.84,8.82,2.37-6.88,6.55-2.36,5.9,2.53-.43,3.28-4,3.32-.46,7.55,1.9,2.28,5.74,1.44,7.67.22C98.49,176.69,92.68,163.58,88.05,161.44Z"/><path class="cls-9" d="M147.47,108.6c0,.07.06.18.1.27,0-.06,0-.11,0-.17S147.51,108.46,147.47,108.6Z"/><path class="cls-9" d="M193.91,108.42v0s0,0,0,0C193.88,108.18,193.88,108.19,193.91,108.42Z"/><path class="cls-9" d="M196.68,59.65c-19-16.17-43.82-16.08-67.24-12.06-9,1.53-21.76,3.79-29.79,8.26-7,3.89-9.79,13.08-13,20-5.79,12.45-7.61,27.52-8.75,41-.62,7.28,2.24,14.72,3,22,.72,7.11,3.87,13.21,5.22,20.2A63,63,0,0,1,84,191c-1.43,4.34-4.87,7.91-1.71,11.79,2.48,3,8.54,4.43,11.18,1.66,2.21-2.33,6.51-21.4,7.45-26.27,2.32-12,2-26,1.56-38.07-.43-11.43-.06-23.18,3.75-34-.38,4.64,1.43,10.68,1.73,15.57,11.64-1.39,24.07-.42,35.76-.88a44.66,44.66,0,0,0,3.85-11.83c0-.09-.07-.2-.1-.27s.08-.1.14.1,0,.11,0,.17c.78,2.11,1.57,6.72,3.09,7.93,2.81,2.26,11,.88,14.36,1.11,6.39.42,17.23,2.68,23.34,0,4-1.71,4.56-5.41,5.56-9.5v0c0-.23,0-.24,0,0,0,0,0,0,0,0,1.24,2.1,1.79,5.8,3.78,6.78,2.32,1.15,8.82,2,11.59,2.09,3.21.11,10.62.37,13.86-.23,9.18-1.69,2.59-17.93.19-23.79C217.93,80.12,206.73,68.18,196.68,59.65Z"/><path class="cls-12" d="M140.92,39C123.18,40.87,98,55.06,90.11,71,72.29,107.08,65.45,147.1,64,186.89c-.38,10.07-6.21,25.44-5.62,34.66.54,8.51,4.64,8.68,11.43,3.86,8.86-6.29-1-39.17.71-59.64,1.3-16.09,14.58-16.85,19-38.12,5,28.56.52,66-10.35,97.21,37.55-63.21,8.06-96,27.72-138.35C115.4,96,130.46,99,143.14,93.67,154.42,89,170.26,88.13,182,92.58c15.39,5.86,29.77,8.78,49,.54C221.68,48.12,173.09,35.63,140.92,39Z"/><path class="cls-9" d="M131.82,143.11c-12-3.2-19.49,10.2-11.31,14.53a26.77,26.77,0,0,1,11.87.61C140.42,155.59,140.74,145.5,131.82,143.11Z"/><path class="cls-11" d="M167.17,164.79c-3,.26-5.76-1.19-8.44.49s.94,6.22,8.87,5.43,9.73-5.25,8.11-6.76C173.85,162.19,170.49,164.52,167.17,164.79Z"/><path class="cls-13" d="M165.9,150.69c-5.66-.07-9.19,10.71-6.5,14,1.89,2.28,14.28,1.31,16-1.64C176,161.94,171.32,150.75,165.9,150.69Z"/><path class="cls-14" d="M130.92,150.16c-3.64,1.05-.85,7,2.69,4.81C136.18,153.39,134.16,149.24,130.92,150.16Z"/><path class="cls-9" d="M208.14,140c-12.32-1.59-18,12.69-9.27,15.9a26.48,26.48,0,0,1,11.85-1C218.33,151.18,217.3,141.13,208.14,140Z"/><path class="cls-14" d="M207.8,147.29c-3.39,1.52.11,7,3.27,4.42C213.35,149.82,210.83,146,207.8,147.29Z"/><path class="cls-15" d="M203,182.83c-20.76-3.48-53.25,1.28-72.21,1.83-1.53.05-2.76.49-2.07,2.14,2.93,7,14,32.74,40,32.53,21.69-.18,23.73-15.34,24.84-23.32.54-3.92,6.44-8.67,11-11.58C206,183.48,204.88,183.15,203,182.83Z"/><path class="cls-16" d="M131.63,187.23s8.37,21.32,33.76,20.28c22.87-.95,25.84-8.31,27-13.45a15,15,0,0,1,7.88-9.66C161.08,193.8,131.63,187.23,131.63,187.23Z"/><path class="cls-17" d="M139.86,189.33s0,6.95,7.74,9.46c9.9,3.22,21.11,3.44,32.66.69C188,197.61,192.88,187,192.88,187S171.22,190.78,139.86,189.33Z"/><path class="cls-17" d="M171.29,199.66c-10.85.29-20.14-.78-25.15-2.41-4.18-1.35-4.3.63-3.56,2.37,0,0,1.1,7.15,20.83,8.12,17.25.84,25.11-8.34,23.25-10.17S182.15,199.37,171.29,199.66Z"/><path class="cls-18" d="M139.82,189.23a9,9,0,0,0,.73,3s41.16-4,50.17-1.34a16.44,16.44,0,0,0,2.16-3.9S163.75,190.9,139.82,189.23Z"/><path class="cls-18" d="M148.39,197.27c16.81,6.61,35.91,0,35.91,0C163.05,201.19,148.39,197.27,148.39,197.27Z"/><path class="cls-19" d="M125.72,139.45c-6.45,1.49-14.62,8.3-25.19.82,0,0,3.65,12.42,24.58,4.75,8.52-3.1,13.29,5.92,13.29,5.92S138.34,136.55,125.72,139.45Z"/><path class="cls-19" d="M207.49,137.71c-11.83-3-12.51,10.95-12.51,10.95s4.56-8.35,13.24-5.15c18.95,7,23.09-4.68,23.09-4.68C221,145.94,213.54,139.23,207.49,137.71Z"/><path class="cls-9" d="M204.12,122.8c-8.26.66-16.32,5.64-15.36,9.71,1.07,4.56,7.12-2.73,15.2-4.68,10.12-2.44,16.42,1.91,16.13.86C219.22,125.59,211.68,122.18,204.12,122.8Z"/><path class="cls-9" d="M128.17,124.73c-9.28-.85-19.27,2-19.64,5.09-.23,2,7.84-2.63,20.25.07,9.91,2.15,16.85,9.05,18.2,4.7C148.17,130.73,138.32,125.67,128.17,124.73Z"/></g></g></svg>