<svg xmlns="http://www.w3.org/2000/svg" xmlns:xlink="http://www.w3.org/1999/xlink" viewBox="0 0 300 300"><defs><style>.cls-1{fill:none;}.cls-2{clip-path:url(#clip-path);}.cls-3{fill:#51d696;}.cls-4{fill:#ffc38f;}.cls-5{fill:url(#linear-gradient);}.cls-6{fill:#ad9162;}.cls-7{opacity:0.1;}.cls-8{fill:#d4c1a1;}.cls-9{fill:#fff;opacity:0.07;}.cls-10{fill:#1c9e8f;}.cls-11{fill:#261b18;}.cls-12{fill:#bc551e;}.cls-12,.cls-13{opacity:0.4;}.cls-13{fill:#d14f2e;}.cls-14{fill:#45362e;}.cls-15{fill:#1c5c57;}.cls-16{fill:#6cd9d2;opacity:0.7;}.cls-17{fill:#121b21;}.cls-18{fill:#ff3b3b;}</style><clipPath id="clip-path"><circle id="SVGID" class="cls-1" cx="150.17" cy="149.83" r="149.83"/></clipPath><linearGradient id="linear-gradient" x1="153.29" y1="229.72" x2="153.29" y2="253.08" gradientUnits="userSpaceOnUse"><stop offset="0" stop-color="#ee996d"/><stop offset="0.02" stop-color="#ee9a6e"/><stop offset="0.37" stop-color="#f8b181"/><stop offset="0.71" stop-color="#fdbf8d"/><stop offset="1" stop-color="#ffc491"/></linearGradient></defs><title>people avatar</title><g id="图层_19" data-name="图层 19"><g class="cls-2"><rect class="cls-3" x="0.29" width="299.66" height="299.66"/><path class="cls-4" d="M133.51,261.35c5.57-4.69,4.75-20.2-3.35-17.36-16.28,5.71-17.41,24.82-24.13,55.67H121.1C124,286.09,126.49,267.25,133.51,261.35Z"/><path class="cls-4" d="M176.4,244c-8.09-2.84-8.92,12.67-3.34,17.36,7,5.9,9.48,24.74,12.41,38.31h15.07C193.82,268.81,192.68,249.7,176.4,244Z"/><path class="cls-5" d="M168.17,240.27c-9.44-4.12-3.08-15.39-15.46-15.39-12.18,0-6.69,12.71-15.53,16-20.59,7.78-20.43,19.72-8.24,31.91s33.6,13.95,50.28-1.18S177.59,244.4,168.17,240.27Z"/><path class="cls-6" d="M178.58,282.36c8.7-19.43-.43-29.71-5-40.12A23.89,23.89,0,0,0,168,239.7c1.72,7.62,4.32,26.16-14.76,26.16-19.27,0-17.39-15.34-16-25.61a6.52,6.52,0,0,0-4.18,1.91c-5.4,16.38-14.39,21-6.12,40.76,2.12,5.06,5.19,11.13,4.92,16.74h40.93C172.9,293.22,175.82,288.55,178.58,282.36Z"/><path class="cls-7" d="M135.35,285.59c1.93,3.25,7.8,3.2,12.39,4.05-.8.12-1.59.44-2.43.56,5.54,1.53,13.24.36,18.72-1.25,1.76-.52,6.46-3.45,7.39-3.55a141.48,141.48,0,0,1-19.11,1.14C146.54,286.43,141,285.68,135.35,285.59Z"/><path class="cls-8" d="M166.53,237.67a2.09,2.09,0,0,0-1.56,2.49c.88,3.88,3.21,14.2-1.18,19.68-2.09,2.62-5.63,4-10.51,4-5.34,0-9.14-1.26-11.3-3.74-3.69-4.23-2.64-11.89-1.8-18.05l.18-1.32a2.07,2.07,0,1,0-4.11-.55l-.18,1.31c-.95,7-2.15,15.69,2.78,21.34,3,3.42,7.84,5.16,14.43,5.16,6.21,0,10.84-1.86,13.76-5.51,5.63-7,3-18.77,2-23.19A2,2,0,0,0,166.53,237.67Z"/><path class="cls-8" d="M132.26,241.4a2.08,2.08,0,0,0-2.62,1.33c-1.32,4-2.69,7.2-3.89,10-2.16,5-3.87,9-4.17,14.87a2.08,2.08,0,0,0,2,2.18h.1a2.08,2.08,0,0,0,2.08-2c.26-5.13,1.76-8.61,3.83-13.44,1.24-2.87,2.64-6.14,4-10.35A2.07,2.07,0,0,0,132.26,241.4Z"/><path class="cls-8" d="M176.21,242.73a2.08,2.08,0,1,0-4,1.3c1.39,4.2,2.79,7.45,4,10.33,2.08,4.83,3.58,8.31,3.84,13.45a2.07,2.07,0,0,0,2.07,2h.11a2.09,2.09,0,0,0,2-2.18c-.31-5.88-2-9.85-4.18-14.89C178.9,249.92,177.53,246.75,176.21,242.73Z"/><path class="cls-9" d="M166.58,266.7c-9.36,3.21-20.77,1.92-30.34-.36-5.54-1.3-8.67,4.71-7,9.83,2.22,6.79,13.69,8.53,23.66,8.34,19.71-.37,27.11-7.4,23.82-15.75C175.84,266.5,171.62,265,166.58,266.7Z"/><path class="cls-10" d="M153.21,246.21a4,4,0,1,0,4,4A4,4,0,0,0,153.21,246.21Z"/><path class="cls-10" d="M162.26,244.16a3.51,3.51,0,1,0,3.5,3.51A3.51,3.51,0,0,0,162.26,244.16Z"/><path class="cls-10" d="M167,239.07a2.86,2.86,0,1,0,2.88,2.86A2.86,2.86,0,0,0,167,239.07Z"/><path class="cls-10" d="M167.45,235.22a2,2,0,1,0,2.05,2A2,2,0,0,0,167.45,235.22Z"/><path class="cls-10" d="M144.19,244.16a3.51,3.51,0,1,0,3.51,3.51A3.51,3.51,0,0,0,144.19,244.16Z"/><path class="cls-10" d="M139.42,239.07a2.86,2.86,0,1,0,2.85,2.86A2.85,2.85,0,0,0,139.42,239.07Z"/><path class="cls-10" d="M139,235.22a2,2,0,1,0,2,2A2,2,0,0,0,139,235.22Z"/><path class="cls-11" d="M168.65,42.26C165.49,34,165,31,166.38,25.61c-6.31,2.65-12.33,9.4-13.29,14.62-5.27-8.29-17.55-15.36-27.78-14.74,4.81,4.58,8.92,11.09,10.36,16.6-6.81,1-11.61,1.11-18.46,2C82,48.75,61.31,70.05,52.1,102c-4.35,15.08-2.41,36-.22,51.44,1.1,7.81,8.95,27.67.2,33.7-5.11,3.52-12.35-.23-11.15-6.46-8.42,5-9.43,16.78-2.38,23,7.31,6.41,20.53,7,29.29,3.95-2.32,10.83,2,27,9,35,1.1-4.69,3.87-9.68,7.59-12.52-2.3,1.76,7.49,6.71,8.5,6.91,3.84.8,8-1,11.62-2.21,10.09-3.4,17.85-9.11,28.65-11.37,8.68-1.82,85.31,12.38,83-2.77.62,3.93,1,8,1.52,12,8.13-6.3,15.16-16.43,14.16-27.13,12-1.71,19.94-5.27,16.23-18.71-1.92,5.33-8.45,5-12.9,3-14.66-6.75-4.3-32.06,2.13-49.22a82.94,82.94,0,0,0,3.84-11.89c.42.31,8.42,13.53,8.31,14.09C253.79,120.21,255.07,46.09,168.65,42.26Z"/><path class="cls-10" d="M216.22,180.49a6.18,6.18,0,1,0,6.26,6.1A6.17,6.17,0,0,0,216.22,180.49Z"/><path class="cls-4" d="M138.3,62.32c-34.86,7.29-58.81,57.86-51.75,104.91,5.28,35.27,33,73.62,74,70.16,41.82-3.54,61.93-55.74,56-99.08C210,91.17,187.13,52.11,138.3,62.32Z"/><path class="cls-12" d="M207.37,78c-7.36-4.34-15.78-6.51-23.94-8.82A157.09,157.09,0,0,0,141,63.05c-12.75,0-26.63-.58-38.46,5C96,71.06,88,75.22,85.69,82.49c-2.92,9-1.3,20.36.3,29.52,1.76,10,4.34,20.32,9.83,29a36.22,36.22,0,0,1,7.61-19.49c3.41-4.36,8.3-12.32,14.22-13.37-.08,0-4,11.43-4.59,12.62-2.1,4-6,5.88-9.79,8.25,3.64,3.1,14.5,2.48,18.89,1.59,3-.62,6.64-1.55,9.08-3.45a11.19,11.19,0,0,0-.48,3.56c5.75-.79,11.6-.59,17.49-1.83a78.91,78.91,0,0,0,12.63-4.19,8.37,8.37,0,0,0-1.25,2.8,20,20,0,0,0,3.49-1.34,9.54,9.54,0,0,0-.87,4.14c11.25-.3,23-.49,34.19-1.57C214.67,127,220.2,92.52,216.13,86A25.23,25.23,0,0,0,207.37,78Z"/><path class="cls-4" d="M74.09,147.77c-17.1,4.95-9.88,29.92,4.21,34.75a33.67,33.67,0,0,0,13.89,1.34c.08-.15.17-.29.26-.44,2-3.28-1.11-21.5-2.21-24.93C87.48,149.86,82.29,145.38,74.09,147.77Z"/><path class="cls-13" d="M80.23,156.9c-3.88-1.72-13.46,1.62-8.84,9.1,2.3-7,6.62-2.51,6,2.48-.4,3.33-4,3.43-.35,7.66,2,2.28,5.83,1.38,7.79.12C91.05,172.23,85,159,80.23,156.9Z"/><path class="cls-11" d="M211.73,72.89c-7.48-5.06-11.73-13-20.39-17.15a100.74,100.74,0,0,0-24.73-8.07,118.54,118.54,0,0,0-36-.6c-19.75,2.63-43.52,12.34-49.48,33.4-3.68,12.92-1.48,27.83-.31,41,1.34,15.13-.89,33.17,13.42,43.17.89-3.64.65-7.65,1.21-11.37.71-4.91,2-9.86,1.74-14.89s-.85-9,.26-14.16c1.81-8.36,8-15.45,14.48-20.67,5.58-4.46,9.05-2.3,7.28,4.45-1.5,5.82-7.1,11.35-11.6,15,.51-.42,14.73,1,17.74-.06,6-2,11.75-5.63,15-11.3-2.84,5-1.89,8.23-6.44,12.73,13.67,3.95,21.32-.56,32.69-9a28.23,28.23,0,0,1-3.49,6.89c1.76-.94,4.68-2.68,6.16-3.41-.81,2.35-1.78,4.54-2.71,6.77,9-1.53,18.17,2,27.14-.24,11.16-2.82,28.74-16.61,30.63-28.56A20.67,20.67,0,0,0,221.4,83,32.39,32.39,0,0,0,211.73,72.89Z"/><path class="cls-14" d="M198.34,60.4c-25.94,2.48-44.29,29.87-71.83,24-11.59-2.48-22.27-5.8-34.29-5.56C80.57,79.1,65.13,83.65,59.91,95c-1.11,2.4-8.82,30.27-2.91,31,7.21.93,13.85-2.5,20.1-4.63s8.31,2,12.88,4.87c-3.46-2.2,11.14-19.32,13.37-21.12,4.44-3.59,10.81-6.35,16.1-4.18a10.5,10.5,0,0,1,1.66.86c5.64,3.67-.16,11.74-1.15,16.45a115.65,115.65,0,0,0,27-16.13,169.53,169.53,0,0,1-3.41,16.67c7.21-.42,13.28-4.68,18.33-9.51,2.76-2.65,5-6.65,8.47-8.46,1.79-.91,2.9-2,3.58.43.14.49-2.56,8-2.94,8.3,2.59-1.76,8.73-10.48,12.2-9.48,3.74,1.07-8.09,20.2-9.65,19.82,10.13,2.44,21.47-.74,30.13-6.16a45.47,45.47,0,0,0,11.25-10c3.74-4.82.61-8.77,2.11-14.16,1.67,2.78,3.65,4.37,4.78,7.66,2.95,8.52.76,16.22-1.32,24.87,11.9,4.68,14.31-4.31,16.37-14.67,2.44,3.23,3.88,7.13,6.39,10.34C248.18,92.42,226.33,57.76,198.34,60.4Z"/><path class="cls-10" d="M83.54,186.34a6.19,6.19,0,1,0,6.27,6.1A6.19,6.19,0,0,0,83.54,186.34Z"/><path class="cls-11" d="M185.59,132.45a276.23,276.23,0,0,0,34.2,2.46C214.71,126.57,193.38,125.19,185.59,132.45Z"/><path class="cls-13" d="M164,172.16c-3.33.12-4.69-1.27-7,.08s2.87,5.75,7,5.32c4.66-.49,8.41-4.41,7.12-5.79C169.67,170.19,167.73,172,164,172.16Z"/><path class="cls-11" d="M98.67,135.41c18.32-1.42,24.55-1.24,37.22-2.83C128.36,124.68,106,127.53,98.67,135.41Z"/><path class="cls-15" d="M120,142c-9.74-3.41-14.29,14.5-7.42,19.65a13,13,0,0,1,9.4,0C128.06,157.67,127.3,144.49,120,142Z"/><path class="cls-16" d="M118.38,148.46c-4,.71-2.31,8.86,1.82,6.7C123.17,153.6,121.93,147.84,118.38,148.46Z"/><path class="cls-15" d="M206.52,141.14c-9.72-6.19-18.25,16.51-7.46,19.77,2.6-1.79,5.74-1.8,8.51-1.36C211.29,154.73,211.71,144.47,206.52,141.14Z"/><path class="cls-16" d="M202.64,146.63c-3.83.11-3.29,8.61.85,7.05C206.49,152.54,206.05,146.56,202.64,146.63Z"/><path class="cls-17" d="M206.78,140.67c-8.88-3.44-11.81,7.12-11.81,7.12s4.31-5.32,10.37-1.95c13.74,7.68,22.61-1.64,22.61-1.64C217.05,147.87,211.55,142.51,206.78,140.67Z"/><path class="cls-17" d="M113.58,142.59c-3.51,1.88-11.65,7.5-22.67,4.56,0,0,10.64,8.82,23.7.32,5.72-3.72,10.8.58,10.8.58S122.75,137.65,113.58,142.59Z"/><path class="cls-18" d="M114.45,183.88c4.92,9.3,16.91,4.81,11.84-4.72A9,9,0,0,1,114.45,183.88Z"/><path class="cls-18" d="M193.7,177.55c-2.65,9.87,10.33,13.29,12.89,3.63C202.93,183.54,196.85,182.08,193.7,177.55Z"/><path class="cls-18" d="M199.3,182.6a2.77,2.77,0,0,0-3.56,1.47c-4.75,13.31-19,22.05-35.63,21.94-16-.09-28.78-8.44-34-19.44a3.17,3.17,0,0,0-3.75-1.52,2.3,2.3,0,0,0-1.48,3.23c6,12.62,20.25,22.15,38,22.71.5,0,1,0,1.49,0,19.11.13,35.3-9.83,40.77-25.19A2.6,2.6,0,0,0,199.3,182.6Z"/></g></g></svg>