<svg width="30" height="30" viewBox="0 0 30 30" fill="none" xmlns="http://www.w3.org/2000/svg">
<path d="M25.7817 0.381103L1.40669 14.4377C-0.608932 15.6038 -0.415572 18.5862 1.74068 19.4709L8.43794 22.2424V27.1877C8.43794 29.9065 11.9067 31.0256 13.5122 28.8635L16.0786 25.4006L22.6352 28.1077C22.9809 28.2483 23.3442 28.3186 23.7075 28.3186C24.1879 28.3186 24.6626 28.1956 25.0903 27.9553C25.8403 27.5334 26.3559 26.7834 26.4907 25.9338L29.9711 3.24634C30.3286 0.896728 27.809 -0.784913 25.7817 0.381103ZM11.2504 27.1877V23.4026L13.395 24.2874L11.2504 27.1877ZM23.7075 25.5061L14.6958 21.7854L22.9106 9.93188C23.5376 9.02368 22.354 7.96899 21.5219 8.6897L9.12935 19.4885L2.81294 16.8752L27.1879 2.81274L23.7075 25.5061Z" fill="#3ABEF9"/>
</svg>
