<svg xmlns="http://www.w3.org/2000/svg" xmlns:xlink="http://www.w3.org/1999/xlink" viewBox="0 0 300 300"><defs><style>.cls-1{fill:none;}.cls-2{clip-path:url(#clip-path);}.cls-3{fill:#938777;}.cls-4{fill:#fdd281;}.cls-5{fill:#f4bb6e;}.cls-6{fill:#ffcb9e;}.cls-7{fill:#1e1e29;}.cls-8{fill:#379bdb;}.cls-9{fill:url(#linear-gradient);}.cls-10{fill:#8dc7eb;opacity:0.5;}.cls-11{fill:#535361;}.cls-12{fill:#ffdec5;}.cls-13,.cls-14{fill:#bf3c1b;}.cls-13{opacity:0.15;}.cls-14{opacity:0.2;}.cls-15{fill:#ffe8bd;}.cls-16{fill:#a16b43;}.cls-17{fill:#305d80;}.cls-18{fill:#86bae3;}.cls-19{fill:#121b21;}.cls-20{opacity:0.8;}.cls-21{fill:#f04d4d;}</style><clipPath id="clip-path"><circle id="SVGID" class="cls-1" cx="150.65" cy="150.05" r="149.94"/></clipPath><linearGradient id="linear-gradient" x1="3488.58" y1="237.4" x2="3488.58" y2="253.48" gradientTransform="translate(-3332.04)" gradientUnits="userSpaceOnUse"><stop offset="0" stop-color="#eea17a"/><stop offset="0" stop-color="#eea17a"/><stop offset="0.36" stop-color="#f7b88e"/><stop offset="0.7" stop-color="#fdc69a"/><stop offset="1" stop-color="#ffcb9e"/></linearGradient></defs><title>people avatar</title><g id="图层_2" data-name="图层 2"><g class="cls-2"><ellipse class="cls-3" cx="150.65" cy="150" rx="150" ry="149.94"/><path class="cls-4" d="M60.46,226.07c-24.31,44.51,44.93,55.51,79.18,26,14.68-12.64,26.45,20.7,44.19,22.28,24,2.14,36.61-15.06,31.73-30.44,4.08,12.87,18.37,13.63,29.14,9a27.65,27.65,0,0,0,16.09-27.15c-4.42,5.46-13.4,6.76-19.71,4-8.84-3.92-11.67-12.87-6.24-20.62,6.63-9.45,25.5-21.48,7.09-31.45a13.51,13.51,0,0,0,12.36.24c15.11-6.92,8.71-39.2-8.37-28.77,11.6-.44.41,18-6.09,4.13-4.09-8.77,5.35-13,9.6-18.88,5.34-7.35,6.81-14.89,6-24.34-2.06-23.8-23.94-38.79-36.55-57.13-13.73-20-33.16-32.75-58.16-23.75-6.17,2.22-11.27,6.71-15.61,11.51a24.61,24.61,0,0,0-7.8-10.92c-.4,3.57-.58,7.15-.68,10.79-13.58-8.33-34.88-5-46.69,2.71-16.06,10.4-14.55,26.41-21,42C63,99.59,44.2,116.24,45.39,132.82c.75,10.38,8.17,15.75,7.68,26.43C52.65,168.18,43,173,47.39,181.7c4.22,8.3,22.64,5.79,13.35,20.75-8.5,13.7-25.15-2.5-14.72-4.71-11.51-5.6-16.3,9.3-14.61,18.21C33.77,228.33,51.13,228.6,60.46,226.07Z"/><path class="cls-5" d="M71.84,234c-6.66,6.19-8.68,11.23.84,17.41,15.43,10,37.12,10.59,61.54,2.42,11.59-3.88,49.2,16.9,62.05,10.17,10.31-5.4,13.48-10.79,17.58-29.38,3.31,4.14,7.79,10.92,13.89,10.89-4.7-8.86-3.27-20.5-2.1-30,1.13-9.12,7.66-16.25,7.86-25.43.08-3.26-1.77-9.89-.61-12.73s7.32-6.53,9.69-9.06c-4.42-2.54-7.57-5.08-8.83-10.32-2.22-9.22,5-16.35,5.22-25.08.22-8.35-22.5-48.15-31.95-34.15-2.19,3.25,10.37,22.37,7.59,25.31-3.05,3.22-7.79,5.2-11.94,6.47-17.44,5.35-36.1,7.37-54.09,10.05-11.16,1.66-22.07,4.53-33.17,6.25-7.16,1.12-14.94,2.59-22.11.93-8.3-1.92-8.37-10-15.32-13.53-13.26-6.7-23.93,7.1-22,19.68.86,5.62,5.17,12.06,8.83,16.33,6,7,13.28,9.25,17.3,18.22C89.49,204.88,84.76,221.92,71.84,234Z"/><path class="cls-6" d="M208.67,300c-.63-3.68-3.06-26-3.95-30.13l-15.39,3.32c.85,3.9,2.4,22.61,2.89,26.81Z"/><path class="cls-7" d="M179.32,279c-1.93-9-4.68-12.08-5.42-12.15l2.59-28.49c8.89.81,24.71,6.38,30.8,34.61Z"/><path class="cls-6" d="M105.2,300c.63-3.68,3.06-26,4-30.13l15.39,3.32c-.84,3.9-2.4,22.61-2.89,26.81Z"/><path class="cls-7" d="M134.55,279c1.94-9,4.69-12.08,5.42-12.15l-2.59-28.49c-8.89.81-24.71,6.38-30.8,34.61Z"/><path class="cls-8" d="M181.66,300A136.18,136.18,0,0,1,186,278.65c5-18.62,5.54-29.91-6-33.69-11.19-3.68-31.83-4.92-44.1.33-9.78,4.19-12.91,11-6.23,31.62,2.69,8.35,4.89,16.3,5.57,23.07Z"/><path class="cls-9" d="M170.81,244.06c-2.39-4.28-.26-11.08.15-18.35.95-16.47-27.5-17.08-27.46.89,0,8,.61,14-1,16.62C131.07,261,181.44,263.15,170.81,244.06Z"/><path class="cls-10" d="M137.75,272.58c1.93,6.1,11.8,7.71,20.41,7.57,17-.27,23.32-6.57,20.44-14.09-.77-2-4.4-3.39-8.74-1.86-8.06,2.85-17.88,1.65-26.16-.42C138.94,262.59,136.28,268,137.75,272.58Z"/><path class="cls-7" d="M143.07,239.2s-20.5,4.56-22.86,7.69c-9.71,12.91,6.67,33,4.55,53.1h23.49C148.21,280.6,146,254.07,143.07,239.2Z"/><path class="cls-11" d="M144.59,251.14c-1.58-2.76-24.54,2.72-23.91,5.07.44,1.65,12.47,25.84,20.26,43.79h8.11C149.91,278.24,147,255.37,144.59,251.14Z"/><path class="cls-11" d="M143.64,232.73c-11.42,4.55-26.28,10-26.54,12s29,13.35,28.77,11.37S143.64,232.73,143.64,232.73Z"/><path class="cls-7" d="M170.78,239.2s20.5,4.56,22.87,7.69c9.71,12.91-6.68,33-4.56,53.1H165.6C165.65,280.6,167.85,254.07,170.78,239.2Z"/><path class="cls-11" d="M169.26,251.14c1.58-2.76,24.54,2.72,23.92,5.07-.44,1.65-12.47,25.84-20.27,43.79H164.8C163.94,278.24,166.85,255.37,169.26,251.14Z"/><path class="cls-11" d="M170.21,232.73c11.43,4.55,26.28,10,26.55,12S167.76,258,168,256.05,170.21,232.73,170.21,232.73Z"/><path class="cls-12" d="M229,139.54c-1.9-52.16-40.61-74.4-78.6-69.54s-68.12,35.45-63.13,88.11,40.52,84.45,78.83,84.14C195.5,242,231,193.93,229,139.54Z"/><path class="cls-6" d="M75.51,173.43a35.24,35.24,0,0,0,14.81.53l.28-.48c2.11-3.65-2.2-21.24-3.4-24.85-3-9.08-7.79-15.3-16.51-12.23C52.53,142.82,60.46,169.14,75.51,173.43Z"/><path class="cls-13" d="M100.86,129.85a41.39,41.39,0,0,0-.26,4.32c-.06,6.36,5.6,16.36,4.54,22.57-2,11.62-10.47,19.48.29,29.91-10.64,5.84-21.84-.38-22.56-7.43-1.8-17.54,7.48-20.29-1.35-28.56-18-16.87-3.13-18.87-1.9-29.14,1.3-11,11-20.73,16.73-29.6,8-12.48,22.69-18.25,36.6-21.41C153,66,174.64,65.2,195.1,67.36c9.65,1,23.7,1.61,29,11.23,4.31,7.85,8.1,24.25,5,32.85-2,5.76-12.17,2.4-17,3-7.17.89-13.26,5.09-17.75,11.22-7.89,10.77-12.66,18.58-31.51,18.58-11.6,0-25.54-17-16-26.8-2.82-.59-5.56.47-8.18,1.51-7.92,3.13-36,13.77-33.84-5.65A95.82,95.82,0,0,0,100.86,129.85Z"/><path class="cls-14" d="M85.94,167.8c8.37-3.66,2-18.74-3.9-21.57-4.8-2.33-17.45.18-12.3,8.85,3.68-7.37,8.76-1.94,7.48,3.39-.85,3.59-5.46,3.28-1.26,8.3C78.23,169.48,83.31,168.94,85.94,167.8Z"/><path class="cls-4" d="M197.08,114.43c4-2.13,8.8-2.59,15.21-2.73,11.83-.24,15.92-8.82,15.37-20.11C226.2,60.94,197,45.23,169.87,42.83c-7.8-.69-15.14-3-23.1-2.79-13.28.35-26.13,4.85-37.83,11.08-17.44,9.29-28.68,30.34-33.78,49-3,10.91-4.54,23.17-2.16,34.36,2.12,10,15,13.73,15.82,24,.33,4.6-3.73,8.06-3.63,12.48A14.4,14.4,0,0,0,89.6,181c2.32,2.08,7.66,2.82,10.92,3.29-7.21-7.9-.25-12.5.41-20.23.45-5.3-.71-15.53-2.66-20.58-5.1-13.24-2-28.42,9.47-37.06,1.15,14.18,15.64,13.61,26,11.56,4.67-.91,18.23-6.4,20.6.65,1.48,4.41-5.56,8.22-7.17,3.19-.14,7.5.25,13.67,9.21,15.58,13.49,2.89,24.46-1.89,31.62-13.57C190.9,119,193.76,116.17,197.08,114.43Z"/><path class="cls-15" d="M211.53,98.08c-4.91,6.52-12.67,11.94-22.42,16.16-4,1.73-7.15,4.47-10.81,6.81-5,3.18-14.13,6.79-20.05,4,6.85-4.5,2.52-14.12-4-15.62-8.28-1.89-17,3.54-25.32.64C101.55,100.56,141.05,93.61,148,89s9.37-12.44,8.49-20.47c-.24-2.15-6.53-14.89-10.73-19.06a31.67,31.67,0,0,1,14.82-9.15c15.62-4.2,38.2,3.37,47.66,16.65C219.91,73.37,219.68,87.24,211.53,98.08Z"/><path class="cls-15" d="M89.61,122.29c-1.52,5.39-.18,13.19,2.37,18.19-7.76-.91-18.67-11-22.14-17.92-4.22-8.45.58-14.74,5.58-22,14.65-21.28,7.72-51,42.21-53.33C135.4,46.06,142,61,132.78,75.67,121.58,93.48,95.86,100.22,89.61,122.29Z"/><path class="cls-16" d="M224.93,133.37c-5.49-6.88-25.81-7-33.28.77C201.63,135.08,210,132.13,224.93,133.37Z"/><path class="cls-14" d="M176.75,174.07c1.25,1.42-2.65,5.33-7.4,5.72-4.2.35-9.37-4.27-7-5.58s3.74.12,7.13.08C173.26,174.25,175.28,172.42,176.75,174.07Z"/><path class="cls-16" d="M102.68,132c8.26-7.23,31.18-7.83,38,.94C127.7,133.27,121.39,132.44,102.68,132Z"/><path class="cls-17" d="M126.24,161.61a13.2,13.2,0,0,0-9.56-.26c-6.88-5.38-1.84-23.52,8-19.82C132,144.28,132.48,157.71,126.24,161.61Z"/><path class="cls-18" d="M126.23,147.52c3.62-.54,4.76,5.35,1.69,6.87C123.68,156.5,122.14,148.15,126.23,147.52Z"/><path class="cls-17" d="M211.37,141.72c5.3,3.37,4.88,13.82,1.11,18.74-2.84-.44-6-.42-8.69,1.39C192.8,158.54,201.48,135.41,211.37,141.72Z"/><path class="cls-18" d="M210.79,146.64c3.47-.08,3.92,6,.88,7.17C207.45,155.4,206.89,146.74,210.79,146.64Z"/><path class="cls-19" d="M233.2,144.82s-9,9.49-23,1.69c-6.18-3.44-10.57,2-10.57,2s3-10.74,12-7.26C216.51,143.1,222.1,148.55,233.2,144.82Z"/><path class="cls-19" d="M94.9,146.13s10.65,9.24,24.13.89c5.92-3.67,11,.84,11,.84s-2.47-10.65-11.92-5.83C114.47,143.86,106.07,149.38,94.9,146.13Z"/><g class="cls-20"><path class="cls-21" d="M127.4,184.54c5.11,9.7-7.08,14.24-12.06,4.76A9.12,9.12,0,0,0,127.4,184.54Z"/><path class="cls-21" d="M195.88,183.1c-2.71,10,10.47,13.52,13.1,3.72C205.24,189.2,199.09,187.71,195.88,183.1Z"/><path class="cls-21" d="M160.44,217c-18.05-.64-32.53-10.37-38.58-23.21a2.33,2.33,0,0,1,1.52-3.26,3.2,3.2,0,0,1,3.8,1.55c5.28,11.19,18.25,19.7,34.49,19.84,16.89.16,31.41-8.68,36.27-22.19a2.85,2.85,0,0,1,3.63-1.48,2.66,2.66,0,0,1,1.9,3.29c-5.62,15.6-22.09,25.67-41.5,25.49Z"/></g></g></g></svg>