<svg xmlns="http://www.w3.org/2000/svg" xmlns:xlink="http://www.w3.org/1999/xlink" viewBox="0 0 300 300"><defs><style>.cls-1{fill:none;}.cls-2{clip-path:url(#clip-path);}.cls-3{fill:#efa3ae;}.cls-4{fill:#e62628;}.cls-5{fill:#ea9357;}.cls-6{fill:#ff3b3b;}.cls-7{fill:#ffb06b;}.cls-8{fill:#fdd281;}.cls-19,.cls-9{fill:#c4170e;}.cls-9{opacity:0.2;}.cls-10{fill:#ffa763;}.cls-11{fill:#b54319;opacity:0.5;}.cls-12{fill:#ffebbd;}.cls-13{fill:#ffc48f;}.cls-14{fill:#305d80;}.cls-15{fill:#86bae3;}.cls-16{fill:#6e4c3c;}.cls-17{fill:#121b21;}.cls-18{opacity:0.35;}.cls-20{fill:#8f2621;}.cls-21{fill:#fff9f0;}.cls-22{fill:#e8dac5;}</style><clipPath id="clip-path"><circle id="SVGID" class="cls-1" cx="150" cy="150.05" r="149.94"/></clipPath></defs><title>people avatar</title><g id="图层_4" data-name="图层 4"><g class="cls-2"><ellipse class="cls-3" cx="150" cy="150.05" rx="150" ry="149.94"/><path class="cls-4" d="M182.28,281c4.91-18.34,5.46-29.45-5.88-33.18-11-3.63-31.34-4.84-43.42.33-9.63,4.12-12.72,10.8-6.15,31.14A126.85,126.85,0,0,1,132.05,300H178.3A144.2,144.2,0,0,1,182.28,281Z"/><path class="cls-5" d="M167.5,228.9c.94-16.22-27.08-16.82-27.05.88,0,7.85.23,13.62-1,16.37-1.5,3.29.7,14.38,15.4,14.38,13.31,0,13.61-11.31,12.52-13.55C165.24,242.63,167.1,236.06,167.5,228.9Z"/><path class="cls-6" d="M166.41,269.11c-7.94,2.81-17.6,1.63-25.75-.41-4.69-1.18-7.32,4.13-5.87,8.67,1.9,6,11.62,7.58,20.1,7.45,16.71-.27,23-6.47,20.14-13.87C174.27,269,170.69,267.6,166.41,269.11Z"/><path class="cls-4" d="M134.35,263.8l-7-12.17c-11.85,6.87-16,28-16.67,48.36h14.15C126,287.15,126.12,268.57,134.35,263.8Z"/><path class="cls-7" d="M116.89,264.81c12.6,3,17.68-3.14,15.37-16.31C122.75,251.83,119,259.51,116.89,264.81Z"/><path class="cls-4" d="M183.07,251.63l-7,12.17c8.23,4.77,8.34,23.35,9.57,36.19h14.15C199.1,279.66,194.93,258.5,183.07,251.63Z"/><path class="cls-7" d="M178.11,248.5c-2.31,13.17,2.78,19.31,15.37,16.31C191.39,259.51,187.62,251.83,178.11,248.5Z"/><path class="cls-8" d="M79.22,82.16c-12.32,32.2-13.45,57.11-21.88,108-2.13,12.89-10.27,32.73-6.77,40.57,4.9,11,17.43,4.7,27.74,8.05,11.11,3.63,23.45,8.84,26.1-6.86a24.17,24.17,0,0,1,1.19,9.54c8.64.21,38.26-9.15,58.25-8.35,17.79.72,54.66,16.88,62.17-3.57,5.59-15.26,11.12-82.73,8.74-104.8-.15-1.37,5.28-3.21,5.45-4.38.55-3.93.88-6.71.94-7.81C246,24.78,109.91,1.92,79.22,82.16Z"/><path class="cls-5" d="M149.42,70.52c-34.57,6.12-59.72,55.22-54.21,101.81,4.08,34.57,35.47,69,69,69.59,35.52.57,64.32-53.06,59.94-94.12C219.19,101.15,197.84,62,149.42,70.52Z"/><path class="cls-9" d="M209.73,84.53C191.1,76.74,173,72.13,152.41,71.25c-12.57-.54-29.45-1.62-41.32,3.25C93.34,81.78,85.55,93.26,82.8,111c-1.87,12.09,10.09,23.86,19.29,31.57,6.74-6.36,3.76-15.17,3.7-22.8,1.44,8.73,8.61,6.3,16.13,6.79,6.69.43,18.12,3.54,24.28.33,2.77-1.44,3.29-3.42,4.39-6.33a10.32,10.32,0,0,0,3.68,3c4.47,2.23,10.38,1.62,15.34,1.91,7.34.43,15.08,1.34,22.21-1,3.11-1,5-1.88,5.93-5.38,1.09,7.41,12.28,6.32,18.38,6.22C242.58,125,224.25,90.59,209.73,84.53Z"/><path class="cls-10" d="M83.53,152.76c-17,4.36-10.65,29.18,3.08,34.38a33.52,33.52,0,0,0,13.64,1.73c.08-.14.19-.27.28-.42,2.09-3.17-.44-21.22-1.42-24.64C96.67,155.23,91.69,150.66,83.53,152.76Z"/><path class="cls-11" d="M89.3,162c-3.77-1.81-13.31,1.17-9,8.68,2.48-6.85,6.6-2.25,5.87,2.63-.49,3.28-4,3.27-.59,7.54,1.86,2.32,5.72,1.54,7.67.36C99.49,177.38,93.91,164.17,89.3,162Z"/><path class="cls-8" d="M199.66,61.86c-18.77-16.49-43.59-16.79-67.1-13.16-9,1.39-21.83,3.43-29.94,7.79-7.06,3.78-10,12.93-13.36,19.84-6,12.35-8.06,27.41-9.42,40.92-.72,7.27,2,14.77,2.63,22.07.6,7.13,3.66,13.28,4.88,20.29a63.08,63.08,0,0,1-2.58,31.8c-1.5,4.32-5,7.84-1.9,11.77,2.44,3.1,8.47,4.58,11.16,1.85,2.25-2.3,6.85-21.31,7.88-26.17,2.52-12,2.42-25.94,2.17-38.07-.24-11.44.33-23.19,4.31-34-.45,4.64,1.26,10.71,1.48,15.61,11.67-1.21,24.09,0,35.79-.29a44.26,44.26,0,0,0,4.05-11.79c0-.08-.06-.19-.09-.27s.08-.1.13.11c0,0,0,.11,0,.16.75,2.13,1.47,6.76,3,8,2.76,2.3,10.95,1,14.35,1.33,6.38.53,17.19,3,23.36.42,4-1.65,4.64-5.34,5.7-9.42,0,0,0,0,0,0,0-.23,0-.24,0,0a.06.06,0,0,1,0,0c1.21,2.12,1.7,5.83,3.67,6.85,2.31,1.18,8.81,2.13,11.57,2.28,3.21.16,10.63.54,13.87,0,9.22-1.54,2.89-17.91.58-23.81C220.58,82.7,209.56,70.57,199.66,61.86Z"/><path class="cls-8" d="M149.62,110c0,.08.06.19.09.27s0-.11,0-.16C149.7,109.94,149.65,109.9,149.62,110Z"/><path class="cls-8" d="M196.08,110.62s0,0,0,0a.06.06,0,0,0,0,0C196.07,110.38,196.06,110.39,196.08,110.62Z"/><path class="cls-12" d="M144.19,40.3C126.41,41.87,101,55.68,92.83,71.52c-18.41,35.78-25.9,75.71-28,115.51-.55,10.07-6.63,25.35-6.19,34.59.41,8.53,4.5,8.76,11.37,4,9-6.14-.3-39.2,1.68-59.66,1.57-16.09,14.86-16.63,19.63-37.83,4.57,28.65-.55,66-11.93,97.1,38.6-62.64,9.62-95.94,30-138,8.41,9.67,23.43,12.85,36.21,7.75,11.37-4.54,27.22-5.1,38.88-.45,15.31,6.11,29.65,9.27,49.07,1.33C224.85,50.72,176.44,37.45,144.19,40.3Z"/><path class="cls-11" d="M171.1,169.26c-4.44-.31-4.35-2.7-7.56-.87s-.84,8.83,7,9.16,11.55-5.45,10-7.85C178.85,166.91,176,169.6,171.1,169.26Z"/><path class="cls-13" d="M170,156.34c-3.64.06-9,12.33-7.21,14.19,4.47,4.56,14.38,2.42,17.4-.7C181.37,168.6,174.12,156.27,170,156.34Z"/><path class="cls-14" d="M211.57,142.46c-12.27-5.23-23.47,9.9-14.64,17.78,1.78-1.93,11.38-5,17.32-.56C219.29,156.08,218.13,145.27,211.57,142.46Z"/><path class="cls-15" d="M212.93,151c-3.36,1.05-1.77,7.5,1.66,5.23C217.08,154.58,215.91,150,212.93,151Z"/><path class="cls-15" d="M201.43,144.26c-5.7,1.8-3,12.76,2.83,8.91C208.49,150.4,206.51,142.69,201.43,144.26Z"/><path class="cls-14" d="M120.2,143.46c-6.49,3-7.33,13.83-2.18,17.29,5.8-4.65,15.49-1.83,17.32.05C143.93,152.67,132.31,137.87,120.2,143.46Z"/><path class="cls-15" d="M119.09,152c-3-.85-4,3.72-1.52,5.28C121.07,159.44,122.47,153,119.09,152Z"/><path class="cls-15" d="M130.38,145c-5.12-1.42-6.87,6.34-2.57,9C133.76,157.62,136.14,146.58,130.38,145Z"/><path class="cls-16" d="M136.81,125.91c-6.1.31-11.88.81-17.81,2.72a30.84,30.84,0,0,0-10.82,5.89c-.92.87-2,2.33-1.86,3.52,1,.06,1.69-.63,2.57-1,4.46-1.71,9.27-2.3,14-2.84,3.65-.41,7.31-.49,11-1,2.44-.34,5.83-.16,6.94-2.67C142.13,127.38,140.1,125.73,136.81,125.91Z"/><path class="cls-16" d="M210.7,127.63c-5.79-1.74-11.43-2.14-17.38-2.37-3.21-.12-5.21,1.49-3.87,4.52,1.05,2.41,4.36,2.19,6.75,2.48,3.56.44,7.13.47,10.69.82,4.57.44,9.27.95,13.61,2.52.86.32,1.53,1,2.5.9.18-1.15-.89-2.53-1.78-3.35A29.85,29.85,0,0,0,210.7,127.63Z"/><path class="cls-17" d="M209.12,140.36c-11.31-2.05-14.51,9.08-14.51,9.08s5.48-7.05,12.82-3.92c16.67,7.12,25.48-4.7,25.48-4.7C221,146.38,214.91,141.42,209.12,140.36Z"/><path class="cls-17" d="M123.05,141.6c-5.77,1.11-11.84,6.14-23.79.71,0,0,8.94,11.72,25.53,4.43,7.31-3.21,12.86,3.78,12.86,3.78S134.34,139.43,123.05,141.6Z"/><g class="cls-18"><path class="cls-19" d="M119.89,185.6c19.3,28.36,31,33.47,45.79,34.11,18.51.8,24.65-11,27.33-19.86,1.13-3.73,10.35-13.43,14-15.66-11.49,2.71-22.85,1.52-40.23,2.28C152.36,187.1,131.31,191.36,119.89,185.6Z"/></g><path class="cls-20" d="M128.66,190.47s11.64,19.09,34.64,19.22c14.75.08,24.38-4.58,27-11.14a19,19,0,0,1,9.14-9.84C159.46,198.48,128.66,190.47,128.66,190.47Z"/><path class="cls-21" d="M137.23,192.07s.77,5.81,9,8c10.53,2.75,21.85,2.77,33.5.91,7.84-1.24,11.59-10.43,11.59-10.43S168.9,195.83,137.23,192.07Z"/><path class="cls-21" d="M169.05,201.84c-10.53.5-19.28-.05-24.58-3.16-3.79-2.21-4.1.23-3.27,1.74,0,0,3.51,7.93,21,9.54,16.81,1.54,25.38-8.1,23.44-9.73S178.79,201.37,169.05,201.84Z"/><path class="cls-22" d="M137.23,192.07a9.31,9.31,0,0,0,2.14,4.07s39.32-3.65,48.78-.52c0,0,2.73-3.25,3.16-5.12C191.31,190.5,163.86,195.62,137.23,192.07Z"/><path class="cls-22" d="M147.62,199.81c14.21,7.78,31,.85,31,.85C160.93,204.69,147.62,199.81,147.62,199.81Z"/></g></g></svg>