<svg xmlns="http://www.w3.org/2000/svg" xmlns:xlink="http://www.w3.org/1999/xlink" viewBox="0 0 300 300"><defs><style>.cls-1{fill:none;}.cls-2{isolation:isolate;}.cls-3{clip-path:url(#clip-path);}.cls-4{fill:#e4f4c3;}.cls-5{fill:#ffbc82;}.cls-6{fill:#85b428;}.cls-7{fill:url(#linear-gradient);}.cls-8{fill:#bbe351;}.cls-10,.cls-8{opacity:0.5;}.cls-9{fill:#fff9f0;}.cls-10{fill:#d9af96;mix-blend-mode:multiply;}.cls-11{fill:#330100;}.cls-12{fill:#b54d26;}.cls-12,.cls-21{opacity:0.3;}.cls-13{fill:#2f2120;}.cls-14{fill:#7d4732;}.cls-15{fill:#b08a72;}.cls-16{fill:#350101;}.cls-17{opacity:0.8;}.cls-18{fill:#ff3b3b;}.cls-19{fill:#a80a0a;}.cls-20{fill:#e8dac5;}.cls-21,.cls-25{fill:#d14f2e;}.cls-22{fill:#121b21;}.cls-23{fill:#540808;}.cls-24{fill:#784430;}.cls-25{opacity:0.4;}</style><clipPath id="clip-path"><circle id="SVGID" class="cls-1" cx="150.22" cy="150.11" r="149.89"/></clipPath><linearGradient id="linear-gradient" x1="4249.42" y1="235.91" x2="4249.42" y2="250.86" gradientTransform="translate(-4092.82)" gradientUnits="userSpaceOnUse"><stop offset="0" stop-color="#e88958"/><stop offset="0.34" stop-color="#f49d62"/><stop offset="0.69" stop-color="#fcab69"/><stop offset="1" stop-color="#ffb06b"/></linearGradient></defs><title>people avatar</title><g class="cls-2"><g id="图层_7" data-name="图层 7"><g class="cls-3"><ellipse class="cls-4" cx="150" cy="150.11" rx="150" ry="149.94"/><path class="cls-5" d="M123.78,300c1.29-11.2.1-29.95,11.49-33.78,3.74-1.27,9.66-11.84,7.68-15.37s-3.94-5.19-7.63-3.73c-20.44,8.1-25.08,24.51-26.4,52.88Z"/><path class="cls-5" d="M192.45,300c-1.28-11.2-.09-29.95-11.48-33.78-3.75-1.27-9.66-11.84-7.68-15.37s3.93-5.19,7.63-3.73c20.43,8.1,25.08,24.51,26.39,52.88Z"/><path class="cls-6" d="M179.55,245.63c-11.19-3.68-31.82-4.91-44.08.33-9.78,4.18-12.91,11-6.24,31.62,2.9,8.95,4.6,16.2,5.13,22.42h46.76c.47-4.94,1.78-10.9,4.4-20.69C190.5,260.69,191.06,249.41,179.55,245.63Z"/><path class="cls-7" d="M171.51,244.92c-3.08-3.82-1.41-11.27-1-18.53,1-16.47-27.49-17.08-27.46.89,0,8,.91,14.24-1,16.61-9.87,12.08,16.1,20.33,16.1,20.33S179.81,255.22,171.51,244.92Z"/><path class="cls-8" d="M136.79,274c1.93,6.1,11.8,7.71,20.4,7.57,17-.27,23.32-6.57,20.44-14.08-.76-2-4.4-3.4-8.74-1.87-8.06,2.85-17.87,1.65-26.14-.42C138,264,135.32,269.42,136.79,274Z"/><path class="cls-9" d="M152.53,252.72a4,4,0,1,0,4-4.05A4,4,0,0,0,152.53,252.72Z"/><path class="cls-9" d="M143.83,250.14a3.56,3.56,0,1,0,3.55-3.55A3.56,3.56,0,0,0,143.83,250.14Z"/><path class="cls-9" d="M139.63,244.32a2.91,2.91,0,1,0,2.92-2.91A2.9,2.9,0,0,0,139.63,244.32Z"/><path class="cls-9" d="M140,239.56a2.07,2.07,0,1,0,4.14,0,2.07,2.07,0,0,0-4.14,0Z"/><path class="cls-9" d="M169.3,250.14a3.56,3.56,0,1,1-3.56-3.55A3.56,3.56,0,0,1,169.3,250.14Z"/><path class="cls-9" d="M173.49,244.32a2.91,2.91,0,1,1-2.9-2.91A2.89,2.89,0,0,1,173.49,244.32Z"/><path class="cls-9" d="M173.09,239.56a2.06,2.06,0,1,1-4.12,0,2.06,2.06,0,1,1,4.12,0Z"/><path class="cls-10" d="M93.59,184.9s-19.26,2.53-21.89-18.16,4.78-27.34,13.65-26.43S93.59,184.9,93.59,184.9Z"/><path class="cls-11" d="M160.65,183.8c20.86-1.52,28.1,24.49,36.51,26.84,94.44,26.42,82.67-153-31.8-178.49C16.9,43.92,4.1,240.67,118.84,212.36,139.88,207.17,127.53,186.23,160.65,183.8Z"/><path class="cls-9" d="M209.25,178.06c-7.33.6-12.63,7.91-11.83,16.32s7.39,14.75,14.72,14.14,12.63-7.91,11.83-16.33S216.58,177.46,209.25,178.06Zm2.44,25.14c-5.32.44-10.09-4.15-10.68-10.25s3.27-11.41,8.59-11.85,10.09,4.15,10.67,10.26S217,202.76,211.69,203.2Z"/><path class="cls-5" d="M222.89,147c-2.89-48.85-21.71-78-70-76.54C102.56,72,86,105.15,87.33,154.73s36.87,82.25,74,84.44C189.84,240.86,225.81,196.5,222.89,147Z"/><path class="cls-12" d="M165.14,112.45C142,134,108.89,128.52,90.08,146.68c-2.93,2.82-1.48-3.69-4.49-6.79-4.61-4.77,3.16-18.4,5.63-22.7C102.6,97.38,123,82.81,143.66,73.86a107.75,107.75,0,0,1,21.41-6.8c11.42-2.29,24.31-2.79,34.6,3.65C215,80.32,226.1,96.38,224.9,115.26c-.38,5.92,0,27.5-4,16C216,117.1,183,95.07,184.81,86.17,180.45,93.32,172.49,105.6,165.14,112.45Z"/><path class="cls-13" d="M119.93,160.6a13.91,13.91,0,0,0-10-.26c-7.23-5.65-1.94-24.73,8.41-20.84C126,142.4,126.5,156.51,119.93,160.6Z"/><path class="cls-14" d="M105.27,126.7c2.39-6.65,7.24-9.56,11.62-10.31,6.18-1.06,11.42,3,14,7.76C126.3,122.32,118,116.11,105.27,126.7Z"/><path class="cls-15" d="M120.35,148.06c3.81-.58,5,5.6,1.78,7.19C117.66,157.49,116.06,148.7,120.35,148.06Z"/><path class="cls-16" d="M134.8,45.86a64.19,64.19,0,0,1,34.23,3c14.93,5.34,30.25,11.72,40.77,24,9.56,11.15,14.61,25.63,17,39.94,1.31,8-4.06,21.6-4.25,29.47-.27-31.56-35.26-39.94-36.27-61.56a102.76,102.76,0,0,1-59.55,45.95c-35.16,10.2-39.44,18.94-42.09,34.6-11.5-14.53-3.41-45.11-1.93-53.85C87.41,79.69,105.52,51.57,134.8,45.86Z"/><g class="cls-17"><path class="cls-18" d="M201.29,184.57c-11.3,2.6-22.37,1-39.38,1.33-14.06.25-34.74,4.25-45.74-2.25,18,31,29.36,36.81,43.76,37.91,18.06,1.38,24.41-11.14,27.28-20.56C188.43,197,197.72,186.86,201.29,184.57Z"/></g><path class="cls-19" d="M124.6,189.12s29.88,9.46,69.24.09a19.4,19.4,0,0,0-9.21,10.31c-2.78,7-12.33,11.71-26.73,11.21C135.42,210,124.6,189.12,124.6,189.12Z"/><path class="cls-9" d="M132.93,191.08s.59,6.26,8.56,8.79c10.21,3.25,21.26,3.59,32.7,1.92,7.7-1.12,11.62-10.88,11.62-10.88S163.76,196,132.93,191.08Z"/><path class="cls-9" d="M136.57,200.16c-.77-1.65-.4-4.27,3.24-1.77,5.1,3.49,13.63,4.32,23.93,4.07,9.54-.23,14.4-3.06,16.25-1.25s-6.81,11.91-23.18,9.78C139.77,208.78,136.57,200.16,136.57,200.16Z"/><path class="cls-20" d="M134.91,195.52s38.52-2.82,47.68.8c0,0,2.75-3.42,3.22-5.41,0,0-26.95,4.73-52.88.17A10.34,10.34,0,0,0,134.91,195.52Z"/><path class="cls-20" d="M142.85,199.69s12.87,5.62,30.3,1.78C173.15,201.47,156.53,208.44,142.85,199.69Z"/><path class="cls-21" d="M171.46,167.24c1.18,1.39-2.59,5-7.11,5.23-4,.21-8.85-4.33-6.58-5.51s3.54.22,6.78.28C168.14,167.31,170.09,165.63,171.46,167.24Z"/><path class="cls-13" d="M209.41,139.7c5.57,3.55,5.13,14.53,1.16,19.7-3-.46-6.33-.45-9.12,1.47C189.9,157.38,199,133.07,209.41,139.7Z"/><path class="cls-15" d="M208.91,146.9c3.64-.09,4.12,6.33.92,7.54C205.4,156.11,204.8,147,208.91,146.9Z"/><path class="cls-22" d="M232.36,143s-9.47,10-24.2,1.78c-6.49-3.62-11.11,2.08-11.11,2.08s3.13-11.3,12.65-7.63C214.81,141.15,220.69,146.88,232.36,143Z"/><path class="cls-22" d="M87,144.34s11.19,9.71,25.37.93c6.21-3.85,11.53.88,11.53.88S121.31,135,111.37,140C107.57,142,98.72,147.76,87,144.34Z"/><path class="cls-23" d="M205.85,52.06c27.7,18.42,36.72,42.22,36.72,42.22s-27,23-47.17.25c-4.1-4.63-6.8-10.19-7.36-18.68-16.75,24.27-42.48,41.52-60.8,41-9-.24-19.57-2.9-27.9-5.81-7.69-2.69-14.78-6.78-22.31-9.83-1.42-.58-16.22-5.86-17.06-4.58.05-.08,17.85-27.11,38.28-39C98.25,57.63,163.31,91.09,205.85,52.06Z"/><path class="cls-24" d="M219.44,126.72c-2.21-6.69-7-9.74-11.35-10.6-6.15-1.23-11.48,2.65-14.22,7.39C198.54,121.79,207,115.81,219.44,126.72Z"/><path class="cls-5" d="M82.33,178.83a18.57,18.57,0,0,0,10.81,1.11c.07-.15.14-.31.2-.48,1.61-3.7-1.27-22.15-2.09-25.94-2.07-9.54-5.46-16.2-11.88-13.33C66,146.15,71.4,173.79,82.33,178.83Z"/><path class="cls-25" d="M89.06,169.55c3.48-4.85-2.09-18.33-5.4-20.12-2.72-1.47-8.46,3-4.55,10.48.59-7.68,3.94-3.27,4.19,2.08.17,3.58-2.12,4,.73,8.17C85.57,172.42,88,171.09,89.06,169.55Z"/><path class="cls-9" d="M88.67,180.76c-7.35.07-13.17,7-13,15.42S82,211.42,89.3,211.35s13.18-6.95,13-15.4S96,180.7,88.67,180.76ZM89.25,206c-5.34,0-9.77-4.89-9.89-11s4.1-11.14,9.43-11.18,9.77,4.89,9.89,11S94.59,206,89.25,206Z"/></g></g></g></svg>