<svg xmlns="http://www.w3.org/2000/svg" xmlns:xlink="http://www.w3.org/1999/xlink" viewBox="0 0 300 300"><defs><style>.cls-1{fill:none;}.cls-2{clip-path:url(#clip-path);}.cls-3{fill:#ffb600;}.cls-4{fill:#5e4684;}.cls-5{fill:#bba7db;}.cls-6{fill:#ba6c3c;}.cls-7{fill:#261b18;}.cls-8{fill:#e29952;}.cls-9{fill:#bf3c1b;opacity:0.3;}.cls-10{fill:#b54319;opacity:0.5;}.cls-11{fill:#45362e;}.cls-12{fill:#ffc48f;}.cls-13{fill:#e6d2c3;opacity:0.7;}.cls-14{fill:#2b221c;}.cls-15{fill:#8f2621;}.cls-16{fill:#fff7ea;}.cls-17{fill:#ecdcc4;}.cls-18{fill:#c4bab1;}</style><clipPath id="clip-path"><circle id="SVGID" class="cls-1" cx="149.98" cy="150.1" r="149.88"/></clipPath></defs><title>people avatar</title><g id="图层_10" data-name="图层 10"><g class="cls-2"><ellipse class="cls-3" cx="149.98" cy="150.11" rx="150" ry="149.94"/><path class="cls-4" d="M192.75,275.55a78.17,78.17,0,0,1,3.76-22.22c.49-1.39.43-13.82-40.25-13.82-37.42,0-42.52,11.68-41.83,13.09a51.46,51.46,0,0,1,4.91,22.77c0,9.46.6,17.52,1.11,24.6h71.21C192.12,292.93,192.7,284.92,192.75,275.55Z"/><path class="cls-5" d="M130,245.38c-3.13,11.51,26.07,24.81,26.07,24.81s33-14.22,24.77-26.95C173.43,231.8,133.74,231.75,130,245.38Z"/><path class="cls-6" d="M156,217.4c-8.42,0-20.29,5.28-21.13,19.2-.4,6.47.5,10.23,3.61,13.82,5,5.75,11.14,10.41,17.52,10.55,6.38-.14,12.54-4.8,17.51-10.55,3.12-3.59,4-7.35,3.62-13.82C176.28,222.68,164.42,217.38,156,217.4Z"/><path class="cls-7" d="M77.89,65.66h0C78.07,65.66,78.06,65.66,77.89,65.66Z"/><path class="cls-7" d="M234.39,133.81c6.13-3,12.6-11.53,9.21-18.44-2.29-4.67-14.41-6.82-8.81-13.57,2.55-3.08,6.87-2.49,7.53-6.81.21-1.44-2.43-9.06-5.1-7.73,10.07-5,6.86-13.05-4.11-12.47,5.1-4.37,6-7.33,4.5-13.16-.15-.58-.32-1.18-.52-1.81-2.21,3.12-7.89,3-11.32,1.94-5.35-1.69-5.19-3.47-4.62-7.22.62-4.07,1.87-6.92-2.16-10.31-3-2.48-8.89-3.28-12-.83,1-3.79,1.36-9.6-3.47-10.95s-7.62,4.13-11.73,4.88c-8.59,1.54-8.19-5.71-11.29-10-3.76-5.23-12.73-4.28-17.18-.62-2.19,1.8-2.77,3.95-5.31,5.32-1.69.92-4.83,1.44-6.79,1.83-.61-3.27-2.5-8.1-5.45-10C134.86,17,133,32.55,126.62,35.72c-5.89,2.93-13.41-.46-10.12-7.26-4.3-.43-9.38,3.46-9.46,7.73-4.51-3.8-15.41-6.43-20.07-1,5.35,1.86,12.2,2.63,12.44,9.47.33,9.11-10.68,7.19-16.88,7.42-3.11.11-7,0-9.16,2.59-2.6,3.15-.45,11.1,4.51,11h0c.17,0,.18,0,0,0h-.05c-11.75-.5-17.55,6.13-15.76,17-.41-2.51,9-6.62,7.79.62-.62,3.55-6.91,6-8.92,8.77-4.9,6.87-7.26,16.56-.23,21.57-6.71-2.32-11.16,3.09-9,8.75,2,5.23,8.65,6.25,13.12,8.52-6.51.47-11.76,5.51-14.89,10.68-1,1.56-4.11,16.21-2,15,4.84-2.72,12-4.66,14,1.72,1.46,4.52-2.1,8.71-4.54,12.1-10.68,14.89,10.59,9.68,16,17.35,4.37,6.25,2.5,12.26-5.18,15,6.4,5.18,23.61,3.52,30.29-1.08,2.79-1.94,3.57-6,5.83-7.86s6.39-2.72,9.15-3.55q3.22-1,6.54-1.85a151.66,151.66,0,0,1,28.17-4.77c11.48-.76,28.23-2,39,2.8C193,189,198.57,193,204,196.18c7.47,4.29,17.07,8.62,25.36,3.81,3.77-2.2,8.92-7,9.6-11.34-6.35.61-12.21-2.84-7.36-9.17,1.62-2.12,4.37-2.17,5.06-5.35.62-2.9-1.09-4.82-2.3-7.2-4.77-9.49,4.2-15.75,11.88-7.86,1.28,1.32.27-12.18-.32-13.56C243.78,140.49,240.35,135,234.39,133.81Z"/><path class="cls-8" d="M140.9,68.55c-35.16,7.53-59.09,58.72-51.73,106.21,5.51,35.57,33.73,74.17,75.1,70.46,42.21-3.79,62.27-56.6,56-100.34C213.45,97.32,190.15,58,140.9,68.55Z"/><path class="cls-9" d="M195.21,78a158.45,158.45,0,0,0-51.61-8.68c-12.89,0-26.9-.45-38.81,5.21C87,83,79.55,95.37,77.58,114.17c-.72,7-.1,18.74,9.22,19.23,8.76.46,11.88-7.25,14.56-14.15,1.18-3,1.29-7.17,5-8.2s6.63,1.93,6.71,5.54c8.34-1,9.25-4.14,15.09-8.41,4.46-3.26,11.08-2.63,16.53-3.07.31,0,.66-.07,1-.13,2.68-.37,6.76-1.26,8.79-.61,4.73,1.52,1.69.44,2.83,4.3,1,3.22-1.38,4,2.13,6.71,2.55,2,5.43.69,8.16,1.43,10.89,2.93.24,6.51-5.64,7.92,4.88,4.61,17,5.69,20.91-.81,3-4.92.36-13.38,9-14.1.21,2,1,3-.13,5.06.19.4,8.64-.45,9.3-.55,4.72-.73,7.83-2.92,10.79-6.74A17.69,17.69,0,0,0,212.34,87C208.63,81.35,201.22,80,195.21,78Z"/><path class="cls-8" d="M76.49,155.16c-17.24,5.09-9.82,30.26,4.43,35.08a34.31,34.31,0,0,0,14,1.26c.08-.14.18-.29.26-.44,2-3.33-1.22-21.71-2.35-25.16C90,157.2,84.77,152.71,76.49,155.16Z"/><path class="cls-10" d="M82.75,164.36c-3.93-1.72-13.59,1.69-8.88,9.22,2.28-7.11,6.66-2.56,6.1,2.47-.38,3.37-4,3.48-.32,7.74,2,2.3,5.9,1.36,7.86.08C93.75,179.77,87.54,166.46,82.75,164.36Z"/><path class="cls-7" d="M211.47,81.91C207.23,72.34,200,64.38,192,57.82c-19.82-16.18-45.23-15.58-69.15-11-9.17,1.75-18.9,4.25-27,9C88.71,60,86,69.45,82.86,76.65c-7.44,16.87-12.69,66.9-4,78,1.79-.13,5.49-.3,8.3,2.22,3.73,3.36,3.77,7.21,4.84,9.1.5,1,4.5,2.26,7.9,1.94-1.39-8.34-7.24-68.64,11.19-63.11,1.51.45,8.2,7.86,5.45,8.55,5.17-1.3,13.32-11.14,3.27-14.36,9.77-.82,20.34.06,30.15.36,4.85.15,19.15-4.28,20.06,3.22.48,3.86-8.09,8.23-5.58,12.19,2.87,4.58,18.37-3.49,13.83,6.73-1.3,2.92-7.62,5-10.67,4.74,3,12.86,34.26-7.17,13.38-16.5,4.86,2.17,7.13-5.4,11.06-5.55a5,5,0,0,1,2,.31,4,4,0,0,1,1.32,6.81c12.55,5.56,23.33-8.29,21-17.18C215.4,90.22,213.11,85.61,211.47,81.91Z"/><path class="cls-11" d="M203.3,63.28c4.41-2.46,4.86-6.9,4.38-11.5-6.12,1.82-12.32,4.36-18.65.85,5.06-2.55,3.26-6.05-.72-8.06s-11.29,0-15.36.81c3.55-4.64,2.32-10.82-3.43-12.82-7.36-2.55-14.71,5.14-19,10C142,29.41,132,36.09,133.26,47.24c-6.28-8.18-17-3.32-16.25,3.18-2.52-4.81-6.43-3-8.71.32-2,2.93-.25,7.72-3.6,10.58-2.56,2.2-7.67,2-10.76,3.24-7.78,3-16.42,16.65-4,20.58,1-9,7.57-12.37,15.63-13.16-5.8,3.19-4.79,11,1.06,13.29,4.36,1.71,12.73-.79,16.81-2.81.29,8.2,11.86,7.36,17.43,6.07-3.3-5.49-3-13.81,4.58-15.45,7.9-1.73,11.33,9.69,3.09,10.65,4,9.11,16.62,1.44,21.77-1.77,2.35,16.41,20.62,12.39,25.34,0,.15,13.89,18,9,15.43-5.77,5.56.94,8.69,4.37,11.56,8.72C232.34,72.41,213.71,62.65,203.3,63.28Z"/><path class="cls-7" d="M128.82,142.89c-9.16-3.75-14.58,12.49-8.29,17.65a13.07,13.07,0,0,1,9,.6C135.6,157.87,135.64,145.68,128.82,142.89Z"/><path class="cls-10" d="M167.53,172.35c-5.3.17-7.45-2.22-11.14.06s1.78,9.27,11.18,8.74,13.31-7,11.31-9.37C176.57,169,173.42,172.18,167.53,172.35Z"/><path class="cls-12" d="M165.2,158.84c-4.34.47-9.79,14-7.48,15.77,5.69,4.31,17.32,1,20.67-2.65C179.7,170.54,170.1,158.31,165.2,158.84Z"/><path class="cls-7" d="M207.35,140.83c-9.35-5.38-15.82,12.59-8.1,17.49,2.39-1.64,7.25-1.24,9.62-.19C212.51,154,212.36,143.71,207.35,140.83Z"/><path class="cls-13" d="M127.49,149.15c-3.66,1.32-.73,8.45,2.82,5.77C132.88,153,130.75,148,127.49,149.15Z"/><path class="cls-13" d="M205.62,146.22c-3.63.8-1.75,7.93,1.94,5.83C210.22,150.54,208.84,145.52,205.62,146.22Z"/><path class="cls-14" d="M139.2,125.83c-7.45-.44-14.53-.57-21.86,1.29-4.55,1.15-10,3.57-13.48,6.82-1.17,1.09-2.6,3-2.45,4.73,1.22.22,2.1-.66,3.19-1,5.52-1.79,11.42-1.93,17.17-2,4.47-.06,8.94.34,13.41.15,3-.13,7.13.62,8.59-2.81C145.62,128.7,143.23,126.06,139.2,125.83Z"/><path class="cls-14" d="M207,125.94c-6.42-1.47-12.69-1-19.29-.22-3.57.41-5.77,3.13-4.27,7.3,1.19,3.31,4.86,2.38,7.51,2.36,4,0,7.92-.64,11.88-.79,5.08-.21,10.3-.34,15.12,1.15,1,.3,1.71,1.12,2.79.83.19-1.69-1-3.52-2-4.55C215.75,129,211,126.86,207,125.94Z"/><path class="cls-10" d="M196.84,177.52c-1.48.4,1.24.91,4.82,1.81a1.94,1.94,0,0,1,1.37,1c-17.38,5.8-51.28,12-77.07,2.27a4.38,4.38,0,0,1,.66-.55c3.39-2.35,8.24-2.53,6.9-3.31,0,0-8.14-.26-11.39,2-2.9,2.06-2.89,8.57-.58,8.85,1.83.23,2-3.29,3.5-5.85,1.63,7.09,12.6,39.73,40.37,40,20.92.19,24.68-12.49,25.61-24.19.52-6.52,7.76-14.58,12.25-18.46.36,2-.93,4.84.69,5.06,2.31.32,4.62-3.87,3.1-7.31S196.84,177.52,196.84,177.52Z"/><path class="cls-15" d="M130.28,187.38s8.77,29,33.56,27.86c22.32-1,25-11,26.07-17.92,1.38-9.29,7.43-13,7.43-13C161.51,202.06,130.28,187.38,130.28,187.38Z"/><path class="cls-16" d="M138.39,190.32s.2,9.41,7.82,12.91c9.76,4.48,20.73,4.9,31.95,1.29,7.55-2.42,12-16.74,12-16.74S168.67,196.64,138.39,190.32Z"/><path class="cls-16" d="M169.4,204.67c-10.6.28-19.72-1.27-24.67-3.54-4.11-1.89-4.17.8-3.41,3.17,0,0,1.28,9.69,20.59,11.23,16.88,1.34,24.32-11,22.45-13.53S180,204.4,169.4,204.67Z"/><path class="cls-17" d="M138.35,190.19s.3,5.26,1.9,7.41c0,0,37.88-6,46.77-2.31,0,0,2.69-5.25,3.14-7.51C190.16,187.78,163.25,196.61,138.35,190.19Z"/><path class="cls-17" d="M147,201.18c16.6,9.15,35.09.35,35.09.35C161.38,206.65,147,201.18,147,201.18Z"/><path class="cls-18" d="M125.05,275c3.63-3.75,3.65-29.9-.78-28.88C109.16,249.54,90.4,276.68,92,300h23.41C114.75,291.06,119,281.22,125.05,275Z"/><path class="cls-4" d="M124.49,243.89c-18.35,6.55-31.82,24.62-34.42,48.33,7.68,3.46,19.5,3.77,27.59,3.53.24-8.52,2.31-14.88,8-20.78C129.49,271.06,129,242.29,124.49,243.89Z"/><path class="cls-18" d="M187.93,246.08c-4.42-1-4.41,25.13-.77,28.88,6.07,6.26,10.3,16.1,9.6,25h23.41C221.8,276.68,203.05,249.54,187.93,246.08Z"/><path class="cls-4" d="M187.72,243.89c-4.47-1.6-5,27.17-1.21,31.08,5.72,5.9,7.8,12.26,8,20.78,8.09.24,19.91-.07,27.6-3.53C219.53,268.51,206.06,250.44,187.72,243.89Z"/></g></g></svg>