<svg xmlns="http://www.w3.org/2000/svg" xmlns:xlink="http://www.w3.org/1999/xlink" viewBox="0 0 300 300"><defs><style>.cls-1{fill:none;}.cls-2{clip-path:url(#clip-path);}.cls-3{fill:#ffecd4;}.cls-4{fill:#948a7e;}.cls-5{fill:#fff7eb;}.cls-6{fill:#313142;}.cls-7{fill:#b3aa9f;}.cls-8{opacity:0.1;}.cls-9{fill:#ffb67d;}.cls-10{fill:#e6ded4;}.cls-11{fill:#2b2521;}.cls-12{fill:#ffcb9e;}.cls-13{fill:#211011;}.cls-14{opacity:0.5;}.cls-15{fill:#94110c;}.cls-16{fill:#b54d26;}.cls-16,.cls-20{opacity:0.3;}.cls-17{fill:#ffd8b5;}.cls-18{fill:#a89191;}.cls-19,.cls-20,.cls-21{fill:#fff;}.cls-19{opacity:0.7;}</style><clipPath id="clip-path"><circle id="SVGID" class="cls-1" cx="150" cy="150" r="150"/></clipPath></defs><title>people avatar</title><g id="图层_11" data-name="图层 11"><g class="cls-2"><ellipse class="cls-3" cx="150" cy="150" rx="150" ry="149.94"/><path class="cls-4" d="M200.29,251.08l-12,19c9.3,5.85,14.86,17.15,15,29.88h22.44C225.58,279.57,216.12,261.06,200.29,251.08Z"/><path class="cls-4" d="M110.25,270.12l-12-19C82.43,261.06,73,279.57,72.79,300H95.24C95.4,287.27,101,276,110.25,270.12Z"/><path class="cls-5" d="M185.09,245c-22.25-11.94-54.67-7.83-69.45,1.78-17,11-16.61,28.13-12.88,53.27h94.11C201,274.7,201.68,253.86,185.09,245Z"/><path class="cls-4" d="M204.58,255.09c-1.87-4.88-22.14-12.38-22.14-12.38-5.35,17.39-7.67,38.55-8.43,57.29h24.18C201.93,278.78,205.86,258.43,204.58,255.09Z"/><path class="cls-6" d="M182.53,239.41s-3.38,22-4.13,25,19.59,1.27,19.83-1.75S193.47,244.87,182.53,239.41Z"/><path class="cls-7" d="M179.15,261.45c-2.79,4.8-4.62,21.26-5.27,38.55h10.25c3.77-9,7.28-16.7,7.87-18.22C193.36,278.27,181.47,257.45,179.15,261.45Z"/><path class="cls-4" d="M94.18,255.09c-1.28,3.34,2.66,23.69,6.39,44.91h23.88c-.92-18.65-3.4-39.71-8.74-57.06C115.71,242.94,96.05,250.21,94.18,255.09Z"/><path class="cls-6" d="M100.52,262.7c.26,3,20.6,4.77,19.85,1.75s-4.14-25-4.14-25C105.3,244.87,100.28,259.68,100.52,262.7Z"/><path class="cls-7" d="M106.76,281.78c.59,1.52,4.11,9.25,7.87,18.22h10.25c-.65-17.29-2.49-33.75-5.27-38.55C117.29,257.45,105.4,278.27,106.76,281.78Z"/><path class="cls-8" d="M116.05,257.53c4.8,15.23,21.38,23.86,21.38,23.86l14.25-13.57,15.15,12.84c9.13-6.43,18.7-16.77,18.87-27C185.82,246.26,111.24,242.29,116.05,257.53Z"/><path class="cls-5" d="M116.23,239.41c-13.2,16.78,20.14,38,20.14,38l15.31-9.55,14.28,9s28.27-14.67,17.57-35.7C173.9,222.18,129.52,222.53,116.23,239.41Z"/><path class="cls-9" d="M170.66,224.33c-7.48-5.9-22.07-6.84-31-4.92-9.31,2-15.5,10.68-16.15,19.61-.81,11.3,15.86,26.42,27.43,26.72C159.65,265.91,196.68,244.83,170.66,224.33Z"/><path class="cls-10" d="M148.89,283.8a3,3,0,1,0,2.94,2.94A2.94,2.94,0,0,0,148.89,283.8Z"/><path class="cls-11" d="M229.85,110.63C225.37,105.49,221,147,218,151c-6.94,9.38-5.45,25.61,6.09,30.44.95.39,12.54,2.13,11.45-.84C227.25,157.92,246.88,130.16,229.85,110.63Z"/><path class="cls-11" d="M133.55,45.76C33.66,64.58,51.13,179.2,80.3,174.41S207.05,147.8,216,145.47s19.16-3.69,13.64-41.27C223.6,63.29,174.8,38,133.55,45.76Z"/><path class="cls-12" d="M148.17,67.91c-43,1.22-76.66,44.64-75.18,97s37.55,93.76,80.56,92.54,76.66-44.64,75.18-97S191.18,66.7,148.17,67.91Z"/><path class="cls-13" d="M131.26,144.56c-9.4-4.56-16.21,12.19-9.91,18.05a13.76,13.76,0,0,1,9.47,1.25C137.41,160.81,138.28,148,131.26,144.56Z"/><g class="cls-14"><path class="cls-15" d="M204,192.5a3.52,3.52,0,0,0-4.57.5c-1,1.18-24.93,28.5-63.91,5.75a3.49,3.49,0,0,0-4.52.8,2.76,2.76,0,0,0,1,4,70.26,70.26,0,0,0,26.45,9.49,53.5,53.5,0,0,0,46.22-16.48A2.74,2.74,0,0,0,204,192.5Z"/></g><path class="cls-16" d="M169.34,168.75c-4.83,0-6.8-2-10.13-.3s1.11,8.87,9.65,8.77,12.61-6.63,10.78-8.57C177.5,166.41,174.69,168.8,169.34,168.75Z"/><path class="cls-17" d="M168.88,158.77c-8.48.17-12.84,7.31-8.53,10.63,5.34,4.08,15.19,2.65,18.53-.19C181.37,167.1,179,158.57,168.88,158.77Z"/><path class="cls-13" d="M207.28,142c-10.05-4.86-16.9,16.28-5.93,18.47a12.49,12.49,0,0,1,8.27-2.74C213.07,153.15,212.66,144.56,207.28,142Z"/><path class="cls-18" d="M128.39,146.86c-3.95,1.16-1.33,8.85,2.6,6.28C133.82,151.27,131.91,145.85,128.39,146.86Z"/><path class="cls-18" d="M204.91,144.72c-3.68,1.08-1.23,8.27,2.42,5.86C210,148.83,208.19,143.77,204.91,144.72Z"/><path class="cls-12" d="M61,154.66c-21.47,4.48-14.74,31.45,2.2,37.29a47.09,47.09,0,0,0,17,2.08l.37-.45c2.76-3.4-.61-21.33-1.66-25C76.21,159.21,71.3,152.51,61,154.66Z"/><path class="cls-16" d="M200.34,95.63c-20.09-4-41.56-5.2-61.9-2.49-16.21,2.16-33,7.59-41.49,22.62-4.29,7.6-6.33,16.08-7.9,24.57-1.94,10.52-.26,22.22,2.28,23.12,1.88-12.8,9.6-12.12,12.2-24.57,2.28-10.86,14.33-18.12,15-18.72-1.84,3.2-4.39,10.23-3.89,13.82,4.16-6.17,18.47-15.88,49.86-12.51,9.28,1,27.62,2.12,36.77.39,6.58-1.23,16.73-7,20.46-13.83C226.24,99.71,205,96.56,200.34,95.63Z"/><path class="cls-11" d="M188.63,75.85c-27.91-17.13-53.31-13.66-75.69-4.55-29.18,11.86-47.23,58.29-45,86.38,1.29,16,23.37,17,23.35,8,0-27.47,4.5-46.91,45.07-56.46,32.32-7.6,70.49-3.41,80.12,3.26S216.53,93,188.63,75.85Z"/><path class="cls-16" d="M71.8,165.08c-5.32-2.82-20.1-1.65-15,7.5,4.91-6.93,10.25-1,8.31,4.16-1.31,3.48-6.58,2.68-2.21,8.1,2.37,2.94,8.26,2.93,11.39,2.07C84.29,184.16,78.26,168.5,71.8,165.08Z"/><path class="cls-11" d="M184.5,48.77c-25.44-6.88-53-7.13-75.88,6.09C92.13,64.38,89.17,82.12,95,100.55c1.92,6.08,5.59,14.72,13.11,15.93,2.81.45,17.5-4.26,18.66-6.36a26.11,26.11,0,0,0-3.47,11.7c31.09-18.52,84.06,8.69,113.21-12.92C250.21,98.72,229,60.82,184.5,48.77Z"/><path class="cls-11" d="M86.61,148.93c-5.08-3.1-12.77-.58-18.33-3.84,2.63,1.58.46,12.63.34,15.13-.64,14.94,8,24.8,22.17,26.67.69.09,1.38.16,2.11.22.7-9.24-1.25-18.13-1.13-27.66C91.84,152.6,91.23,151.77,86.61,148.93Z"/><path class="cls-11" d="M125.48,47.37c-14.74,3-30.68,6.06-42.65-1.26,0,2.65-.56,9.65,5.64,13-3.68,3-11.45,3.24-18.8-.72,7.58,24.35,38.47,18.77,52.12,11C128.26,65.72,136.33,45.2,125.48,47.37Z"/><path class="cls-11" d="M213.18,123.59c-3.05-1.37-6.88-1.43-10.17-1.54-2-.06-9.7-1.33-11.24.32-5.69,6.18,17.6,6.59,19.65,6.51C216.82,128.66,218.52,126,213.18,123.59Z"/><path class="cls-11" d="M126.44,124.07c-3.27.44-7.07.87-10,2.53-5.07,2.9-3.13,5.4,2.27,5.09,2.06-.11,25.2-2.81,18.92-8.4C136,121.8,128.44,123.81,126.44,124.07Z"/><path class="cls-11" d="M182.68,138.14c-4.37,5.16-3,25.56.83,30.34s34.81,2.94,41.45-.25,7.72-26.26,2-33S189.11,130.54,182.68,138.14Zm41.27,25c-5.44,2.47-31.68,4.7-35.21,1.37s-6-17.9-2.59-21.74c5-5.63,32.16-8,37.45-3.35S229.39,160.62,224,163.1Z"/><path class="cls-11" d="M99.34,139.18c-5.19,5.41-3.43,27.28,1.14,32.51s41.61,4.2,49.52,1,9.1-27.88,2.21-35.27S107,131.24,99.34,139.18Zm49.47,27.67c-6.48,2.4-37.81,3.83-42,.26s-7.29-18.81-3.27-22.69c5.91-5.71,38.34-7.27,44.7-2.25S155.29,164.46,148.81,166.85Z"/><path class="cls-11" d="M160.72,148.33c-1,.42-9.53,6.22-6.43,7.37.8.29,5.46-2.81,6.42-3.16a29.37,29.37,0,0,1,9.11-1.49c4.33-.08,6.05,1.1,9.25,2.76,1.63.85,4.8,2.37,2.49-1.56C177.56,145.39,167,145.72,160.72,148.33Z"/><path class="cls-11" d="M92.05,147.78c-2.87.38-15.59.46-17.08,3.12-1.58,2.84,2.93,4.48,5,5a116.47,116.47,0,0,0,12.67,2.3c6.07.92,6.11-.77,6-6.4C98.38,146.59,97.14,147.1,92.05,147.78Z"/><path class="cls-19" d="M109.88,161.82c-1.69-.19-2.88.15-2.66,1.43.45,2.52,10.16,4.73,11.13,3.29S113.47,162.24,109.88,161.82Z"/><path class="cls-20" d="M145.86,143.16c-6.07-2.15-35.68-2.5-38.54,1-2.06,2.52,6.88,5.64,10.88,6.1,7.63.86,15.57.74,22.34-.95C142.49,148.82,151.35,145.12,145.86,143.16Z"/><path class="cls-21" d="M130.56,141c-3.15.39-5.25,1.34-4.48,3.06,1.53,3.4,20,2.7,21.35.27S137.27,140.18,130.56,141Z"/><path class="cls-19" d="M191,160.47c-1.54-.13-2.61.25-2.36,1.53.51,2.5,9.41,4.36,10.23,2.88S194.29,160.76,191,160.47Z"/><path class="cls-20" d="M222.93,140.53c-5.6-1.93-32.49-1.22-35,2.38-1.77,2.59,6.47,5.39,10.12,5.7,7,.59,14.16.18,20.24-1.75C220.09,146.31,228,142.29,222.93,140.53Z"/><path class="cls-21" d="M209,138.93c-2.85.49-4.71,1.52-3.95,3.21,1.53,3.34,18.26,2,19.4-.5S215,137.86,209,138.93Z"/></g></g></svg>