<svg xmlns="http://www.w3.org/2000/svg" xmlns:xlink="http://www.w3.org/1999/xlink" viewBox="0 0 300 300"><defs><style>.cls-1{fill:none;}.cls-2{clip-path:url(#clip-path);}.cls-3{fill:#bc68ad;}.cls-4{fill:#fec391;}.cls-5{fill:url(#linear-gradient);}.cls-6{fill:#e0e0e0;}.cls-7{opacity:0.1;}.cls-8{fill:#f2f2f2;}.cls-9{fill:#fff;}.cls-19,.cls-9{opacity:0.3;}.cls-10{fill:#d4a070;}.cls-11{fill:#f2d89b;}.cls-12{fill:#cf854d;opacity:0.5;}.cls-13,.cls-23{opacity:0.7;}.cls-14{fill:#ab6a3f;}.cls-15{fill:#f29f63;}.cls-16{fill:#e89361;}.cls-17{fill:#ffc892;}.cls-18{fill:#ffbc82;}.cls-19{fill:#bf3c1b;}.cls-20{fill:#694330;}.cls-21{fill:#fae7bb;}.cls-22{fill:#261b18;}.cls-23{fill:#e6d2c3;}.cls-24{fill:#1f1a17;}.cls-25{fill:#de6049;}</style><clipPath id="clip-path"><circle id="SVGID" class="cls-1" cx="150" cy="150" r="150"/></clipPath><linearGradient id="linear-gradient" x1="164.55" y1="235.66" x2="164.55" y2="256.99" gradientUnits="userSpaceOnUse"><stop offset="0" stop-color="#ee996d"/><stop offset="0.02" stop-color="#ee9a6e"/><stop offset="0.37" stop-color="#f8b181"/><stop offset="0.71" stop-color="#fdbf8d"/><stop offset="1" stop-color="#ffc491"/></linearGradient></defs><title>people avatar</title><g id="图层_14" data-name="图层 14"><g class="cls-2"><rect class="cls-3" width="300" height="299.99"/><path class="cls-4" d="M147.36,264.7a7.13,7.13,0,0,0,6.16-8,7.06,7.06,0,0,0-7.81-6.27c-16.08,1.94-19.05,16.58-21.44,28.34-1.63,8-3.31,16.34-8.45,21.07a1.09,1.09,0,0,1-.1.11h17.05c2.75-5.9,4.07-12.33,5.28-18.28C140.61,269.09,142.14,265.34,147.36,264.7Z"/><path class="cls-4" d="M204.82,278.81c-2.39-11.76-5.36-26.4-21.44-28.34a7.16,7.16,0,0,0-1.65,14.23c5.22.64,6.75,4.39,9.31,17,1.21,6,2.53,12.38,5.28,18.28h17.05a1.09,1.09,0,0,1-.1-.11C208.13,295.15,206.45,286.85,204.82,278.81Z"/><path class="cls-5" d="M179.45,246.24c-9.45-4.13-3.08-15.43-15.48-15.43-12.19,0-6.69,12.74-15.55,16.08-20.61,7.78-20.45,19.73-8.25,31.92s33.64,14,50.36-1.18S188.89,250.37,179.45,246.24Z"/><path class="cls-6" d="M189.88,288.36c8.7-19.44-.43-29.74-5-40.16a23.36,23.36,0,0,0-5.58-2.55c1.72,7.63,4.32,26.2-14.77,26.2-19.3,0-17.41-15.36-16-25.65a6.67,6.67,0,0,0-4.18,1.91c-5.39,16.4-14.39,21-6.12,40.8A84,84,0,0,1,142.43,300h42.51C186,296.12,188,292.6,189.88,288.36Z"/><path class="cls-7" d="M146.6,291.6c1.93,3.26,7.8,3.21,12.4,4.06-.8.11-1.59.42-2.42.55,5.53,1.53,13.24.35,18.74-1.25,1.74-.51,6.46-3.45,7.39-3.55a141.83,141.83,0,0,1-19.14,1.14C157.8,292.43,152.21,291.69,146.6,291.6Z"/><path class="cls-8" d="M177.82,243.63a2.06,2.06,0,0,0-1.56,2.48c.87,3.89,3.2,14.22-1.19,19.71-2.09,2.62-5.63,3.95-10.52,3.95-5.35,0-9.15-1.26-11.32-3.74-3.69-4.23-2.64-11.9-1.79-18.06l.18-1.33a2.07,2.07,0,0,0-1.78-2.33,2,2,0,0,0-2.34,1.78l-.18,1.31c-1,7-2.15,15.7,2.78,21.36,3,3.43,7.85,5.17,14.45,5.17,6.21,0,10.85-1.86,13.77-5.52,5.63-7.05,3-18.79,2-23.21A2.06,2.06,0,0,0,177.82,243.63Z"/><path class="cls-8" d="M143.51,247.36a2.07,2.07,0,0,0-2.62,1.33c-1.33,4-2.69,7.2-3.9,10-2.17,5-3.88,9-4.18,14.88a2.09,2.09,0,0,0,2,2.18h.11a2.07,2.07,0,0,0,2.07-2c.26-5.13,1.77-8.62,3.85-13.45,1.24-2.88,2.64-6.15,4-10.35A2.1,2.1,0,0,0,143.51,247.36Z"/><path class="cls-8" d="M187.5,248.69a2.07,2.07,0,1,0-3.94,1.3c1.38,4.2,2.79,7.47,4,10.35,2.09,4.83,3.59,8.32,3.85,13.45a2.08,2.08,0,0,0,2.07,2h.11a2.08,2.08,0,0,0,2-2.18c-.3-5.88-2-9.85-4.18-14.88C190.19,255.89,188.83,252.72,187.5,248.69Z"/><path class="cls-9" d="M177.05,271.9c-9.39,3.21-20.8,1.91-30.4-.37-5.53-1.3-8.66,4.72-7,9.84,2.23,6.79,13.7,8.54,23.7,8.35,19.72-.36,27.14-7.41,23.83-15.77C186.31,271.7,182.09,270.17,177.05,271.9Z"/><path class="cls-10" d="M128.1,153.48a24.74,24.74,0,0,0-13.43-6.73,31.56,31.56,0,0,0-21.28,3.63,58.74,58.74,0,0,0-18,16.63c-3.88,5.56-10.47,11-11.82,17.86-1,4.92,1,10.27,5.95,5.32-1.41,5.08-1.48,10.73-1.3,16,.21,6,3.54,10.66,8.49,4-.24,5-.67,26.66,7.59,15,1.17,4,.69,10.48,3.67,13.73,3.68,4,7.26-1.56,8.57-4.67.57,3.48,1.25,8.89,5.86,9.41,4.08.47,7.68-5.24,8.87-8.6,1.68,8.73,6.91,2.35,10-1.15,2.85,6.53,10.33,4.37,14.74.06,11.94-11.68,9.08-32.18,7.64-47A54.39,54.39,0,0,0,128.1,153.48Z"/><path class="cls-11" d="M129.77,145.91h0c-67.27.51-77,36.35-81.2,51.65l-.27,1A5.23,5.23,0,0,0,51.93,205a5.06,5.06,0,0,0,1.39.19,5.23,5.23,0,0,0,5-3.85l.27-1c4.14-15.19,11.85-43.48,71.18-43.94a5.23,5.23,0,0,0,0-10.46Z"/><path class="cls-11" d="M128.73,153.69c-53.34-1.28-73.47,44.59-76.59,69.12a5.25,5.25,0,0,0,4.53,5.86l.67,0a5.23,5.23,0,0,0,5.19-4.57c.31-2.48,8.27-60,63.75-60,.72,0,1.44,0,2.17,0a5.24,5.24,0,0,0,.28-10.47Z"/><path class="cls-11" d="M127.48,148.64c-35.86,19-56.87,45.15-66.13,82.44a5.23,5.23,0,0,0,3.82,6.34,5,5,0,0,0,1.27.15,5.23,5.23,0,0,0,5.07-4c5.35-21.51,17.47-52.76,60.86-75.71a5.23,5.23,0,1,0-4.89-9.25Z"/><path class="cls-11" d="M135,157.23c-45.91,16.07-58,61.34-61.11,86.89A5.24,5.24,0,0,0,78.44,250a4.49,4.49,0,0,0,.64,0,5.23,5.23,0,0,0,5.18-4.6c3.45-28.27,15.65-64.79,54.19-78.29a5.23,5.23,0,1,0-3.47-9.87Z"/><path class="cls-11" d="M144.18,163.54c-46.35,16.79-54.74,58.85-57,89A5.22,5.22,0,0,0,92,258.18l.4,0a5.24,5.24,0,0,0,5.22-4.84c2.24-29.59,10-65.42,50.15-80a5.23,5.23,0,1,0-3.57-9.84Z"/><path class="cls-11" d="M144.22,173c-34.76,14.77-41.18,53.4-41.91,75.11a5.22,5.22,0,0,0,5,5.4h.18a5.24,5.24,0,0,0,5.23-5.06c.65-19.22,6.13-53.33,35.55-65.82a5.24,5.24,0,1,0-4.1-9.64Z"/><path class="cls-11" d="M147.9,178.55c-26.1,14.85-31.47,41.14-31.39,60.58a5.25,5.25,0,0,0,5.24,5.21h0a5.24,5.24,0,0,0,5.21-5.26c-.07-16.65,4.39-39.08,26.09-51.43a5.23,5.23,0,0,0-5.17-9.1Z"/><path class="cls-11" d="M149.83,186.64c-16.78,12.29-19.29,34.43-19.29,46.54a5.24,5.24,0,0,0,10.47,0c0-8.15,1.47-28.17,15-38.09a5.24,5.24,0,1,0-6.19-8.45Z"/><path class="cls-12" d="M125.18,166c-9.16-7.56-26.85-12.92-38.79-10-.7.17-1.39.37-2.06.6-11.72,4.08-12.82,21.48-7.77,34.4,6.87,17.61,19.7,21.09,25.6,14.17,2.74,10.54,20.78,31.11,33.82,28.76,10.13-1.83,8.86-12.81,11-20.67C151.87,194.69,138.78,177.21,125.18,166Z"/><g class="cls-13"><path class="cls-14" d="M89.85,158.78c-11,2.84-21.59,14.22-26.3,24a1.74,1.74,0,0,0,1.57,2.5,1.72,1.72,0,0,0,1.57-1c4.36-9,14-19.56,24-22.13a1.75,1.75,0,1,0-.87-3.38Z"/></g><g class="cls-13"><path class="cls-14" d="M89,175.09c-7.7,5-14.14,15.12-17.1,22.85a1.75,1.75,0,0,0,1,2.26,1.88,1.88,0,0,0,.62.11,1.73,1.73,0,0,0,1.63-1.12c2.67-7,8.74-16.58,15.76-21.19A1.74,1.74,0,0,0,89,175.09Z"/></g><g class="cls-13"><path class="cls-14" d="M89.48,192.55a1.76,1.76,0,0,0-2.41.53c-5.18,8.09-8.27,14.71-10,21.48a1.74,1.74,0,0,0,1.26,2.12,1.61,1.61,0,0,0,.44.06,1.75,1.75,0,0,0,1.68-1.31C82.09,209,85,202.73,90,195A1.76,1.76,0,0,0,89.48,192.55Z"/></g><g class="cls-13"><path class="cls-14" d="M99.34,196.18c-4.53,6.55-7.2,13.87-9.78,20.95l-.91,2.51a1.75,1.75,0,0,0,1,2.24,1.87,1.87,0,0,0,.61.11,1.76,1.76,0,0,0,1.64-1.15l.91-2.51c2.62-7.19,5.09-14,9.37-20.17a1.74,1.74,0,0,0-2.87-2Z"/></g><g class="cls-13"><path class="cls-14" d="M109.17,206.59c-5.29,6.89-7.67,16.2-8.72,22.81a1.74,1.74,0,0,0,1.45,2l.27,0a1.74,1.74,0,0,0,1.72-1.47c1-6.2,3.2-14.92,8-21.23a1.75,1.75,0,0,0-2.77-2.13Z"/></g><g class="cls-13"><path class="cls-14" d="M118.5,215.71a1.73,1.73,0,0,0-2,1.48c-.19,1.28-.42,2.57-.66,3.85a50.83,50.83,0,0,0-1.1,9.7,1.75,1.75,0,0,0,1.74,1.73h0a1.74,1.74,0,0,0,1.72-1.77,46.66,46.66,0,0,1,1.06-9c.24-1.33.48-2.65.67-4A1.74,1.74,0,0,0,118.5,215.71Z"/></g><g class="cls-13"><path class="cls-14" d="M129.9,223.79a1.76,1.76,0,0,0-2.15,1.22,34.5,34.5,0,0,0-1.11,9.94,1.75,1.75,0,0,0,1.74,1.71h0a1.75,1.75,0,0,0,1.71-1.78,30.78,30.78,0,0,1,1-8.94A1.76,1.76,0,0,0,129.9,223.79Z"/></g><path class="cls-15" d="M213.21,163c-1.67,4.59-8.39,29.67-7.54,34.83l.12.67c3.59,1.67,7.46,2.62,11.45,1.52,12.41-3.42,24-37.06,11.41-48.28C222.62,146.33,217.41,151.4,213.21,163Z"/><path class="cls-16" d="M85.52,91.52c-4.69,22.4-5.8,52.08,5,73.47,5.62,11.18,19,3.72,28.52,1.37,11.66-2.88,23.38-5.51,35.1-8.1C173.4,154,198,150,210.58,165.08c12.14,14.57,19.94,3.63,19.95-8.83,0-15.44,4-40.89,0-57.85C211.46,16,97.84,32.69,85.52,91.52Z"/><path class="cls-17" d="M152.27,68.71c-52.36,7.13-60.65,55-55.55,102,3.83,35.18,35.35,74.43,70.6,72.55s63.68-52.79,59.48-96C222.23,100.22,212.12,60.57,152.27,68.71Z"/><path class="cls-18" d="M85.15,150.89C68,155.12,78.06,195,91,202.19c5.12,2.87,10.9.95,13.44-7.8,2.89-4.44-.71-21.54-3.65-32.22C98.36,153.5,93.39,148.85,85.15,150.89Z"/><path class="cls-19" d="M90.88,160.2c-3.78-1.86-13.42,1.05-9.13,8.66,2.55-6.88,6.66-2.21,5.88,2.7-.53,3.29-4.08,3.24-.66,7.59,1.84,2.34,5.73,1.6,7.72.42C101,175.83,95.49,162.47,90.88,160.2Z"/><path class="cls-16" d="M187.21,97.5v0C187.22,97.39,187.22,97.39,187.21,97.5Z"/><path class="cls-16" d="M157.4,59.53c-42.49-.35-72.69,30.14-69.87,90.94,1.76,0,5.4,0,8,2.56,3.51,3.46,3.39,7.25,4.35,9.16.45,1,1,2.57,4.31,2.41a83.57,83.57,0,0,1-3.36-25.5,97.7,97.7,0,0,1,.86-12.08c.39-2.87,2.63-8.14.35-10.57,4.06-2.14,2-7.83,1.32-11.11,6.28-1,8.15-3.31,9.25-9,3.42.9,5.91-.14,8.47-2.46,3.55,10.43,18.23,10.26,21.19-.2,1.39,1.3,3,2.31,5,1.5,0,9.57,21.45,9.64,20.26.49,3.76.68,3.89,6.2,8.34,7.37s10.16-.8,11.35-5.57v0c0-.11,0-.11,0,0v0c1.31,4,8,3.81,11.16,3,3.82-1,5.74-3.4,8.4-6.08.73,3.92,5.38,5.95,8.41,3.11-3.49,3.29,4.34,9.85,5.3,12.14C226.78,124.57,225.56,60.09,157.4,59.53Z"/><path class="cls-20" d="M92.57,183.82c-3.8.73-6.16,5-5.28,9.5s4.67,7.55,8.47,6.82,6.16-5,5.28-9.51S96.37,183.08,92.57,183.82Z"/><path class="cls-11" d="M151.75,37c-22.87,1.88-40.81,10.55-53.33,25.78-23.09,28.07-20.44,69.63-19,82a5.23,5.23,0,0,0,10.43-.85l-.07-.63c-1.25-11-3.72-49,16.76-73.9,10.66-12.95,26.17-20.35,46.1-22,21.58-1.79,38.81,3.74,51.24,16.37,22,22.36,24.53,62.24,22.56,82.28a5.23,5.23,0,0,0,4.69,5.73l.52,0a5.25,5.25,0,0,0,5.21-4.72c.59-6,4.91-59.72-25.51-90.64C196.6,41.48,176.55,34.94,151.75,37Z"/><path class="cls-11" d="M172.93,37.42a5.23,5.23,0,0,0-2.65,6.91c8.05,18.07,8.13,38.15,4.12,47.87A5.24,5.24,0,0,0,177.24,99a5.25,5.25,0,0,0,6.83-2.84c5.79-14,4-37.63-4.23-56.13A5.23,5.23,0,0,0,172.93,37.42Z"/><path class="cls-11" d="M209,52.3a5.23,5.23,0,0,0-4.65,5.76A39.4,39.4,0,0,1,193.79,89a5.23,5.23,0,0,0,3.86,8.78A5.19,5.19,0,0,0,201.5,96,49.73,49.73,0,0,0,214.72,57,5.23,5.23,0,0,0,209,52.3Z"/><path class="cls-11" d="M107.82,91.34c-6.17-4-11.59-11.38-12.89-17.44a5.24,5.24,0,0,0-10.24,2.2c1.89,8.76,8.87,18.41,17.39,24a5.23,5.23,0,1,0,5.74-8.75Z"/><path class="cls-11" d="M155.5,35.78A5.22,5.22,0,0,0,153.67,43c10.84,18.32,10.26,41.81,10.25,42a5.24,5.24,0,0,0,5.07,5.4h.16a5.23,5.23,0,0,0,5.23-5.06c0-1.08.73-26.71-11.71-47.72A5.23,5.23,0,0,0,155.5,35.78Z"/><path class="cls-11" d="M133.46,43.66a5.23,5.23,0,1,0-9.63,4.1c7.6,17.85,13.62,37.61,13.68,37.81a5.23,5.23,0,0,0,5,3.71,5.37,5.37,0,0,0,1.52-.22,5.24,5.24,0,0,0,3.49-6.53C147.27,81.7,141.28,62.05,133.46,43.66Z"/><path class="cls-11" d="M190.12,42.25a5.23,5.23,0,0,0-3,6.76,46.71,46.71,0,0,1,2.25,25.13,5.23,5.23,0,0,0,3.82,6.33,5.42,5.42,0,0,0,1.26.15,5.24,5.24,0,0,0,5.08-4,56.56,56.56,0,0,0-2.65-31.42A5.23,5.23,0,0,0,190.12,42.25Z"/><path class="cls-11" d="M106.27,60.91a5.23,5.23,0,0,0-10.34,1.63,47.27,47.27,0,0,0,14.74,27.64A5.25,5.25,0,0,0,114,91.37a5.23,5.23,0,0,0,3.33-9.26A36.7,36.7,0,0,1,106.27,60.91Z"/><path class="cls-11" d="M161.16,85.42C160.09,74.8,158.48,58.74,147,39.73A5.24,5.24,0,1,0,138,45.17c10.3,17,11.72,31,12.75,41.3.32,3.17.59,5.92,1.09,8.34A5.23,5.23,0,0,0,157,99a5.55,5.55,0,0,0,1.07-.11,5.23,5.23,0,0,0,4.06-6.19C161.7,90.8,161.45,88.31,161.16,85.42Z"/><path class="cls-11" d="M118.59,50.64a5.23,5.23,0,1,0-10,3c5.49,18.08,12,31,21,41.93a5.23,5.23,0,1,0,8.07-6.67C132.17,82.35,125.08,72,118.59,50.64Z"/><path class="cls-11" d="M224,69.08a5.24,5.24,0,0,0-6,4.3c-.72,4.33-4.91,9.85-6.47,11.62a5.24,5.24,0,0,0,7.84,7c.77-.87,7.61-8.78,8.95-16.84A5.24,5.24,0,0,0,224,69.08Z"/><path class="cls-11" d="M228.66,87.06l-8.37,6.09a5.23,5.23,0,1,0,6.15,8.47l8.37-6.09a5.23,5.23,0,0,0-6.15-8.47Z"/><path class="cls-11" d="M99.76,103.86c-2.39-1.53-9.74-7.08-12-12.36a5.24,5.24,0,0,0-9.64,4.09c3.9,9.2,14.78,16.31,16,17.1a5.23,5.23,0,0,0,5.61-8.83Z"/><path class="cls-11" d="M232.24,101.89l-5,1.38a5.23,5.23,0,0,0,1.38,10.28,5.17,5.17,0,0,0,1.39-.19l5-1.38a5.23,5.23,0,1,0-2.77-10.09Z"/><path class="cls-11" d="M233.13,115.2l-3.58.84a5.24,5.24,0,0,0,1.2,10.33,5.46,5.46,0,0,0,1.2-.14l3.58-.84a5.23,5.23,0,1,0-2.4-10.19Z"/><path class="cls-11" d="M232.47,129.19l-1.51.3a5.23,5.23,0,0,0,1,10.37,5,5,0,0,0,1-.1l1.52-.3a5.24,5.24,0,0,0-2-10.27Z"/><path class="cls-11" d="M233.62,141.45l-1.66-.11a5.29,5.29,0,0,0-5.57,4.87,5.22,5.22,0,0,0,4.86,5.58l1.67.11h.36a5.24,5.24,0,0,0,.34-10.46Z"/><path class="cls-11" d="M97.6,116.67,81.05,108.1a5.24,5.24,0,0,0-4.81,9.3L92.79,126a5.16,5.16,0,0,0,2.4.59,5.23,5.23,0,0,0,2.41-9.88Z"/><path class="cls-11" d="M95.47,129.42l-14.34-6.33a5.23,5.23,0,1,0-4.23,9.57L91.24,139a5.23,5.23,0,0,0,4.23-9.57Z"/><path class="cls-11" d="M96.39,142.8l-13.33-4.55a5.24,5.24,0,1,0-3.38,9.91L93,152.71a5.24,5.24,0,0,0,3.38-9.91Z"/><g class="cls-13"><path class="cls-14" d="M184.73,50a1.74,1.74,0,0,0-.8,2.33c3.34,6.88,4.2,19.48,2.88,26.48a1.74,1.74,0,0,0,1.39,2,1.69,1.69,0,0,0,.33,0,1.73,1.73,0,0,0,1.7-1.42c1.46-7.7.53-21-3.17-28.65A1.73,1.73,0,0,0,184.73,50Z"/></g><g class="cls-13"><path class="cls-14" d="M203.23,64A1.76,1.76,0,0,0,201,65.11l-1,2.66c-1.1,3-2.47,6.84-3.43,9.82a1.74,1.74,0,0,0,1.12,2.19,1.7,1.7,0,0,0,.54.09,1.74,1.74,0,0,0,1.66-1.21c.94-2.94,2.31-6.71,3.39-9.7l1-2.69A1.74,1.74,0,0,0,203.23,64Z"/></g><g class="cls-13"><path class="cls-14" d="M215,74.14a1.73,1.73,0,0,0-2.25,1c-.49,1.3-1.11,2.57-1.73,3.83s-1.15,2.36-1.63,3.54a1.76,1.76,0,0,0,1,2.27,1.63,1.63,0,0,0,.64.13,1.74,1.74,0,0,0,1.62-1.1c.44-1.1,1-2.2,1.52-3.31A44.67,44.67,0,0,0,216,76.38,1.73,1.73,0,0,0,215,74.14Z"/></g><g class="cls-13"><path class="cls-14" d="M223.5,88.27a14.07,14.07,0,0,0-4.62,3.08,1.75,1.75,0,0,0,1.24,3,1.78,1.78,0,0,0,1.24-.52,10.28,10.28,0,0,1,3.45-2.3,1.75,1.75,0,0,0-1.31-3.24Z"/></g><g class="cls-13"><path class="cls-14" d="M167.87,46.67a1.74,1.74,0,0,0-.72,2.36c4.57,8.55,6.27,16.56,5.19,24.49a1.74,1.74,0,0,0,1.49,2h.24A1.74,1.74,0,0,0,175.79,74c1.19-8.68-.63-17.39-5.56-26.61A1.74,1.74,0,0,0,167.87,46.67Z"/></g><g class="cls-13"><path class="cls-14" d="M162,67.12c-.83-6.77-1.67-13.78-6.05-19.63a1.75,1.75,0,0,0-2.8,2.1c3.83,5.1,4.58,11.34,5.38,18,.55,4.55,1.13,9.27,2.8,13.57A1.73,1.73,0,0,0,163,82.22a1.81,1.81,0,0,0,.64-.12,1.74,1.74,0,0,0,1-2.25C163.09,76,162.57,71.66,162,67.12Z"/></g><g class="cls-13"><path class="cls-14" d="M140.75,53a1.74,1.74,0,1,0-3.29,1.16c.75,2.15,1.66,4.35,2.58,6.59,2.06,5,4.2,10.19,4.73,15.2a1.74,1.74,0,0,0,1.73,1.57l.18,0a1.74,1.74,0,0,0,1.56-1.91c-.58-5.52-2.81-10.93-5-16.18C142.37,57.24,141.49,55.1,140.75,53Z"/></g><g class="cls-13"><path class="cls-14" d="M125.39,57.19a1.85,1.85,0,0,0-1.84-1.65,1.75,1.75,0,0,0-1.65,1.84c.52,9.39,3.7,18.21,8.51,23.59a1.71,1.71,0,0,0,1.3.58,1.74,1.74,0,0,0,1.3-2.91C128.72,73.83,125.86,65.82,125.39,57.19Z"/></g><g class="cls-13"><path class="cls-14" d="M109.14,65.75A1.74,1.74,0,0,0,105.87,67c2.08,5.66,5,12.66,9.58,16.53a1.79,1.79,0,0,0,1.13.41,1.74,1.74,0,0,0,1.14-3.07C113.76,77.45,110.93,70.61,109.14,65.75Z"/></g><g class="cls-13"><path class="cls-14" d="M106.35,85.34c-2.2-1.23-3.74-3.41-5.37-5.71-.73-1-1.45-2-2.21-3a1.75,1.75,0,0,0-2.69,2.23c.71.86,1.38,1.8,2,2.75,1.79,2.51,3.63,5.12,6.51,6.74a1.75,1.75,0,0,0,1.71-3Z"/></g><g class="cls-13"><path class="cls-14" d="M93.66,93.28a1.74,1.74,0,1,0-3.24,1.29c1.12,2.82,3.4,5.49,7,8.15a1.78,1.78,0,0,0,1,.35,1.75,1.75,0,0,0,1-3.15C96.44,97.66,94.54,95.49,93.66,93.28Z"/></g><g class="cls-13"><path class="cls-14" d="M95.22,110.07a22.07,22.07,0,0,1-6.5-3.76,1.74,1.74,0,1,0-2.09,2.79,24.85,24.85,0,0,0,7.61,4.31,1.74,1.74,0,1,0,1-3.34Z"/></g><g class="cls-13"><path class="cls-14" d="M85.53,122a1.74,1.74,0,1,0-1.76,3,21.14,21.14,0,0,1,3.72,2.79,1.7,1.7,0,0,0,1.19.48,1.75,1.75,0,0,0,1.2-3A24.34,24.34,0,0,0,85.53,122Z"/></g><g class="cls-13"><path class="cls-14" d="M92.64,137.83a15,15,0,0,0-6.47-2.27,1.71,1.71,0,0,0-1.91,1.55A1.73,1.73,0,0,0,85.81,139a11.94,11.94,0,0,1,5,1.76,1.64,1.64,0,0,0,.92.27,1.75,1.75,0,0,0,.94-3.22Z"/></g><path class="cls-21" d="M163.16,38.7a5.23,5.23,0,1,0-10,3.16c1.13,3.59,2.63,7.31,4.21,11.25,3,7.42,6.06,15.1,6.52,21.54a5.24,5.24,0,0,0,5.22,4.86l.38,0a5.23,5.23,0,0,0,4.84-5.6c-.58-8.06-4-16.51-7.25-24.68C165.59,45.46,164.17,41.91,163.16,38.7Z"/><path class="cls-21" d="M172.74,38.37a4.46,4.46,0,0,0-1.51,6.14c2.48,4.1,7.75,22.28,6.26,37.36a4.48,4.48,0,0,0,4,4.89l.44,0a4.47,4.47,0,0,0,4.45-4c1.7-17.2-4-37-7.51-42.87A4.47,4.47,0,0,0,172.74,38.37Z"/><path class="cls-21" d="M190.8,43.38a4.46,4.46,0,0,0-.51,6c.91,2.16,1.29,12,.38,21.31a4.48,4.48,0,0,0,4,4.89l.44,0a4.49,4.49,0,0,0,4.45-4.05c.37-3.81,2-23.07-2.46-27.94A4.49,4.49,0,0,0,190.8,43.38Z"/><path class="cls-21" d="M209.52,54.44a4.49,4.49,0,0,0-4.36,4.6c0,.15.32,14.47-6.53,24.94a4.48,4.48,0,0,0,1.29,6.2,4.48,4.48,0,0,0,6.2-1.3c8.37-12.79,8-29.39,8-30.08A4.49,4.49,0,0,0,209.52,54.44Z"/><path class="cls-21" d="M220.3,72.15a14.59,14.59,0,0,0-1.88,3.68,14.74,14.74,0,0,1-2.66,4.82A4.48,4.48,0,0,0,222,87.13c2.54-2.43,3.83-5.61,4.77-7.94a15.36,15.36,0,0,1,.67-1.57,4.48,4.48,0,0,0-7.09-5.47Z"/><path class="cls-21" d="M227.77,88.67c-.43.32-1.58,1.06-2.53,1.69s-1.51,1-1.74,1.16a4.46,4.46,0,0,0,2.7,8,4.51,4.51,0,0,0,2.61-.83l1.33-.88a30,30,0,0,0,3.55-2.48A4.58,4.58,0,0,0,234,89,4.37,4.37,0,0,0,227.77,88.67Z"/><path class="cls-21" d="M140.48,38.44a4.48,4.48,0,0,0-2,6c3.91,7.87,11.18,27.64,12.4,36.23a4.48,4.48,0,0,0,4.43,3.84c.21,0,.43,0,.64,0a4.49,4.49,0,0,0,3.8-5.07c-1.41-9.85-9-30.41-13.26-38.94A4.47,4.47,0,0,0,140.48,38.44Z"/><path class="cls-21" d="M139.65,61.75c-3-8.94-5.27-15.49-7.28-18.52a4.48,4.48,0,1,0-7.46,5c1.51,2.28,4.36,10.79,6.25,16.41,1.5,4.47,2.8,8.34,3.75,10.44a4.48,4.48,0,1,0,8.16-3.7C142.3,69.65,141,65.81,139.65,61.75Z"/><path class="cls-21" d="M122.4,61.87c-2.21-6.11-3.64-10-5.07-12.16a4.48,4.48,0,1,0-7.49,4.91c.92,1.42,2.63,6.13,4.14,10.29,3.15,8.73,6.72,18.62,11,23.24a4.48,4.48,0,0,0,6.58-6.08C128.51,78.77,125,69,122.4,61.87Z"/><path class="cls-21" d="M105.57,61.47a4.48,4.48,0,1,0-8.94.51c.38,6.53,6.12,20.23,9.34,23.56a4.36,4.36,0,0,0,3.15,1.34,4.5,4.5,0,0,0,3.3-7.55C110.8,77.53,105.84,66.1,105.57,61.47Z"/><path class="cls-21" d="M94.32,74.63a4.48,4.48,0,0,0-8.45,3c1.48,4.22,10,16.34,12,18.25A4.4,4.4,0,0,0,101,97.15a4.5,4.5,0,0,0,3.2-7.64C102.51,87.8,95.17,77.06,94.32,74.63Z"/><path class="cls-21" d="M87.24,92.22a4.48,4.48,0,0,0-7.52,4.87,57.84,57.84,0,0,0,6.64,7.42,4.48,4.48,0,0,0,5.93-6.72A54.35,54.35,0,0,1,87.24,92.22Z"/><path class="cls-21" d="M83.78,109.55a4.48,4.48,0,1,0-4.27,7.87,33.6,33.6,0,0,1,3.16,2A4.48,4.48,0,1,0,87.75,112,46.05,46.05,0,0,0,83.78,109.55Z"/><path class="cls-21" d="M230.07,104.12l-.6,4.43.6-4.44a4.48,4.48,0,0,0-1.21,8.88,8.29,8.29,0,0,0,1.21.08,8.7,8.7,0,0,0,3.3-.65,4.53,4.53,0,0,0,2.49-5.86A4.41,4.41,0,0,0,230.07,104.12Z"/><path class="cls-21" d="M234.65,117.92A6.16,6.16,0,0,0,228,120.2a5.31,5.31,0,1,0,6.63-2.28Z"/><path class="cls-22" d="M132,140.27c-10.08-3.49-15,14.28-7.89,19.45a14,14,0,0,1,9.74.13C140.19,156,139.53,142.87,132,140.27Z"/><path class="cls-22" d="M218.14,141.13c-9.79-6.24-17.63,12.77-9.56,18.42,2.65-1.65,7.85-1,10.36.26C223.05,155.5,223.39,144.48,218.14,141.13Z"/><path class="cls-23" d="M128.7,146.52c-3.86,1.63-.29,9.12,3.38,6C134.73,150.33,132.14,145.07,128.7,146.52Z"/><path class="cls-23" d="M213.73,145.24c-3.95.67-2.28,8.43,1.8,6.36C218.47,150.1,217.23,144.64,213.73,145.24Z"/><path class="cls-24" d="M214.91,139.73c-6.45-1.1-8.35,6.38-8.35,6.38s2.61-2.48,10.45-.19c13.46,3.92,19.7-7.78,19.7-7.78C228.24,147.19,219.34,140.47,214.91,139.73Z"/><path class="cls-24" d="M128.91,139.73c-4.42.74-13.32,7.46-21.79-1.59,0,0,6.23,11.7,19.69,7.78,7.84-2.29,10.46.19,10.46.19S135.36,138.63,128.91,139.73Z"/><path class="cls-19" d="M173.53,175.37c-4,0-5.61-1.72-8.45-.21s3.23,7.08,8.21,6.73c5.65-.38,10.34-4.95,8.87-6.65C180.45,173.25,178,175.38,173.53,175.37Z"/><path class="cls-25" d="M129,193.65c6.28,7.76,15.36,1.28,8.93-6.63C137.35,191.83,133.05,194.73,129,193.65Z"/><path class="cls-25" d="M203.72,185.23c-3.92,8.82,6.45,14.49,10.26,5.85C210.48,192.61,205.62,190.11,203.72,185.23Z"/><path class="cls-25" d="M207.58,191.05a2.25,2.25,0,0,0-3.25.72c-6.28,11.67-17.44,17.91-31.79,18.07-13.8.16-26.14-6.62-33-15.89a2.67,2.67,0,0,0-3.5-.69,2.25,2.25,0,0,0-.53,3.27c10.26,14.51,26.62,19,37.71,18.74,17.19-.39,28.21-7.34,35.45-20.8A2.66,2.66,0,0,0,207.58,191.05Z"/><path class="cls-20" d="M130.24,123.26c-14-2.46-19.85,7.43-20.78,7.71,2.06-.63,4.08-1,6-1.63,10.18-3.29,21.57,6.11,27.94,3.41,2.17-.92,4.71-2.54,5.11-4.87C141.36,130.06,136.54,124.36,130.24,123.26Z"/><path class="cls-20" d="M212.8,123.82c-6.32,1-11.28,6.53-18.37,4.19.34,2.32,2.84,4,5,5,6.3,2.86,14.07-5.92,23.4-3.29a6.54,6.54,0,0,1,3.64,2.42C226.34,131,226.82,121.7,212.8,123.82Z"/></g></g></svg>