<svg xmlns="http://www.w3.org/2000/svg" xmlns:xlink="http://www.w3.org/1999/xlink" viewBox="0 0 300 300"><defs><style>.cls-1{fill:none;}.cls-2{clip-path:url(#clip-path);}.cls-3{fill:#ef5649;}.cls-4{fill:#ffb06b;}.cls-5{fill:url(#linear-gradient);}.cls-6{fill:#5e4684;}.cls-7,.cls-8{opacity:0.1;}.cls-8{fill:#fff;}.cls-9{fill:#3d2518;}.cls-10{fill:#bc551e;}.cls-10,.cls-11{opacity:0.3;}.cls-11{fill:#bf3c1b;}.cls-12{fill:#82572e;}.cls-13{fill:#202930;}.cls-14{fill:#c3cee6;opacity:0.7;}.cls-15{fill:#de6049;}.cls-16{fill:#8f2a25;}.cls-17{fill:#fff7ea;}.cls-18{fill:#ecdcc4;}.cls-19{fill:#2b221c;}.cls-20{fill:#121b21;}</style><clipPath id="clip-path"><circle id="SVGID" class="cls-1" cx="150.11" cy="150.11" r="150.11"/></clipPath><linearGradient id="linear-gradient" x1="731.19" y1="234.77" x2="730.77" y2="252.22" gradientTransform="translate(-571.18)" gradientUnits="userSpaceOnUse"><stop offset="0" stop-color="#e88958"/><stop offset="0.34" stop-color="#f49d62"/><stop offset="0.69" stop-color="#fcab69"/><stop offset="1" stop-color="#ffb06b"/></linearGradient></defs><title>people avatar</title><g id="图层_16" data-name="图层 16"><g class="cls-2"><rect class="cls-3" x="-0.04" width="300.22" height="300.22"/><path class="cls-4" d="M124.3,300.22c1.32-11.8.1-31.56,11.72-35.6,3.82-1.34,9.85-12.48,7.83-16.2s-4-5.48-7.78-3.93c-20.84,8.53-25.58,25.83-26.92,55.73Z"/><path class="cls-4" d="M194.52,300.22c-1.31-11.8-.1-31.56-11.71-35.6-3.82-1.34-9.85-12.48-7.84-16.2s4-5.48,7.79-3.93c20.84,8.53,25.58,25.83,26.92,55.73Z"/><path class="cls-5" d="M158.84,224.76c12.73,0,6.19,11.61,15.89,15.85s28.59,16.71,11.41,32.28-39.24,13.76-51.78,1.22-12.7-24.82,8.48-32.82C151.94,237.85,146.29,224.76,158.84,224.76Z"/><path class="cls-6" d="M180.35,242.64a23.69,23.69,0,0,0-5.74-2.62c1.76,7.84,4.44,26.92-15.2,26.92-19.82,0-17.89-15.79-16.47-26.36a6.9,6.9,0,0,0-4.31,2c-5.54,16.86-14.79,21.6-6.29,42a57.55,57.55,0,0,1,3.25,15.73h45.8a56.08,56.08,0,0,1,4.08-16.3C194.4,263.94,185,253.35,180.35,242.64Z"/><path class="cls-7" d="M151.23,292c.85-.13,1.67-.45,2.48-.57-4.73-.87-10.76-.82-12.75-4.17,5.78.09,11.52.85,17.47,1a146.37,146.37,0,0,0,19.66-1.18c-1,.11-5.8,3.13-7.6,3.65C164.85,292.35,156.92,293.55,151.23,292Z"/><path class="cls-8" d="M133.85,276.73c2.29,7,14.08,8.77,24.36,8.59,20.27-.37,27.9-7.62,24.49-16.22-.91-2.31-5.25-3.88-10.43-2.1-9.65,3.29-21.37,2-31.25-.38C135.35,265.28,132.12,271.47,133.85,276.73Z"/><path class="cls-9" d="M200,42.41c4-2.88,11-3.49,15.82-4.06-8.45-4.75-28.71-13.45-48.38-5.86-1.15-.18-12.4-8.42-22.23-8.65,1.26,1.91,7.3,6.2,7.49,8.48-13.34-4.72-25.17-2.23-38.92,1.36-6.32,1.66-16.89,6.8-20.36,12.3a8.6,8.6,0,0,1,8.09,1.61C88.8,51.79,73.94,62.83,69.56,75.78c3.28-.45,6.54-2.07,9.94-2.37-2.9.26-7.08,8.08-8.26,10.31a47.26,47.26,0,0,0-4.36,12.87c-1.66,8.21-3.6,18.19-1.85,26.52,1.81-2.55,4.47-4.52,6.62-6.77-5.89,13-1.13,25.23,4.09,37.22,2.51,5.79,5.94,10.89,9.08,16.26,2.37,4.06,3.62,8.78,6.29,12.69,8.32,12.18,17,7.16,28.86,4.37a153.16,153.16,0,0,1,27.78-4.07c10.49-.48,21.29-1.12,31.62,1.19,9.86,2.2,20.7,6.51,30.69,2.41,18.8-7.7,18.43-32,19.05-48.22,1.66,1.22,3.36,2.7,4.85,3.78.37-11.37,1.64-22.5,2-34a56.76,56.76,0,0,0,7.64,5.06c-.5-5.72-5.67-31.67-12-34.33a30.12,30.12,0,0,0,9.72,2.15C240,77.86,227.09,47.07,200,42.41Z"/><path class="cls-4" d="M89.83,173.24c5,30.77,42.3,68.71,72.54,68.71,35.26,0,62.25-53,56.87-95-5.83-45.61-28-83.63-76.63-74.41C107.91,79.15,82.46,127.84,89.83,173.24Z"/><path class="cls-10" d="M125.63,103.85c-.6,4.7-.43,10.79,1.93,15-7.25-1.64-15.39-4.07-21.88-7.72-4.1,7.92-4.72,23.37-17.43,22.5-9.16-.63-9.56-11.86-8.71-18.56,2.28-18,9.8-29.69,27.46-37.48,11.81-5.2,25.57-4.51,38.24-4.29,20.73.35,39.09,4.52,58.07,11.87,6.23,2.42,4.53,24.43,4.44,24.64-1.19,2.88-1.53,7.25-1.44,10.53-12.09.34-20.88-5.89-28.77-14.16-.06,2.66,1.88,8.49,1.88,8.49S132.32,106.45,125.63,103.85Z"/><path class="cls-4" d="M81.43,187.9a34.71,34.71,0,0,0,13.78,1.45l.26-.41c2-3.15-.81-20.79-1.85-24.11-2.63-8.37-7.73-12.75-15.9-10.57C60.68,158.83,67.52,183,81.43,187.9Z"/><path class="cls-11" d="M88,181.92c6.21-3.81.34-16.65-4.33-18.74-3.83-1.72-13.38,1.37-8.89,8.66,2.37-6.75,6.59-2.33,6,2.47-.43,3.22-4,3.26-.46,7.4C82.21,183.94,86.08,183.11,88,181.92Z"/><path class="cls-9" d="M221.06,95.38c-2.88-4.21-6.59-8-9.76-11.68-6.11-7-10.92-14.43-18.27-20.49-19.19-15.83-44.18-15.7-67.79-11.73-9,1.51-18.64,3.74-26.74,8.14-7,3.83-9.84,12.84-13.09,19.67-7.62,16-13.69,63.76-5.33,74.52,1.77-.1,5.41-.2,8.12,2.26,3.61,3.29,3.59,7,4.6,8.79.48.94,4.38,2.24,7.73,2C98,150.35,94,115.71,108,103.42c.42,5.19,10.78,12,15.83,12.8-2.25-5.49-1.08-11.64-2.17-17.32,14.77,2.17,38.24,7.22,52.74,10.53-1-2.32-1.94-8.21-3-11.27,10.62,7.11,17.38,14,30.48,17.49a58.14,58.14,0,0,0,1.52-13.34c0,1.83,20.32,4.33,22.32,4.67A25,25,0,0,0,221.06,95.38Z"/><path class="cls-12" d="M187,34.43c-2.41,2.06-2.94,5.3-3.91,8.29,9.48.63,24,5.29,30.16,13.34a36,36,0,0,0-14.86,2c10.78,7.84,25.32,14,31.91,26.45-4.57-.11-8.87-2.06-13.2-3.31.29,2,4.51,11.49,6.21,11.87-11.93-2.64-21.68-9.54-33.18-13.56,4.09,5.49,9.89,13,11.23,20.17-12.4-.77-24.14-12.22-35.4-16.88-9.6-4-21.35-7.38-31.76-7.34-.21,0-.21,0,0,0,10.56,2.73,20.26,11.67,27.49,18.57C140.81,85.83,111.5,75.87,92,92.39c.12-7,4.91-13.2,6.79-19.2C93,74.26,87.07,75.88,81.27,76.92c7-13.51,20.77-20.45,34.06-25.79-3.3-.13-7.1.4-9.82-1.8,8.25-1.46,15.75-5.87,24.38-5.47-3.78-1.56-8.5-2.92-10.62-6.73,1.34,2,14.73.82,17.08.92,9.36.43,18.85.81,27.79,3.93a38.52,38.52,0,0,0-2.4-6.56c3.26.36,7,1.87,9,4.32C175,36.93,183.57,37.33,187,34.43Z"/><path class="cls-13" d="M129.77,160.92a13.15,13.15,0,0,0-8.85-.73c-6.1-5-.47-20.48,8.46-16.74C136,146.25,135.77,157.9,129.77,160.92Z"/><path class="cls-13" d="M206.61,142.87c4.88,2.85,4.84,13.74,1.19,17.66-2.31-1-7.09-1.51-9.46,0C190.83,155.72,197.52,137.56,206.61,142.87Z"/><path class="cls-14" d="M126.2,146.5c3.23-1.06,5.23,3.76,2.68,5.57C125.34,154.57,122.58,147.7,126.2,146.5Z"/><path class="cls-14" d="M202.7,146.72c3.18-.62,4.44,4.21,1.8,5.61C200.83,154.27,199.12,147.42,202.7,146.72Z"/><path class="cls-15" d="M208.25,177.91c-5.19,5.17-8.23,12.06-12.71,18.42-7.55,10.69-14.64,23.5-36,22.12C129.74,216.53,118.42,179,118.42,179,158,193.79,196,185.93,208.25,177.91Z"/><path class="cls-16" d="M124.84,183.83s35.53,20.9,78.22-.75a57.2,57.2,0,0,0-11,11.82c-4.38,6.4-16.39,14.44-30.74,13.95C132.42,207.87,124.84,183.83,124.84,183.83Z"/><path class="cls-17" d="M124.84,183.83s7.86,10.24,17.6,13.63c12.49,4.35,24,4.8,38.31,2.06,9.68-1.84,22.31-16.44,22.31-16.44S169.27,201.24,124.84,183.83Z"/><path class="cls-17" d="M137.3,199.57c-.94-2.06-1.51-6.27,3.63-4.48,6.17,2.13,13.16,4.41,26.4,4.57s16-4.5,18.28-2.28-6.32,11.94-24.3,11.47C142.18,208.35,137.3,199.57,137.3,199.57Z"/><path class="cls-18" d="M132.43,191.52s32.77,6.07,63.74-1.48c0,0,6.34-5,6.89-7,0,0-34.9,17.85-78.22.75C124.84,183.83,128.74,189.34,132.43,191.52Z"/><path class="cls-18" d="M137.26,195.12a94.16,94.16,0,0,0,46.17,3.17S165.28,209,137.26,195.12Z"/><path class="cls-19" d="M109.39,133.73a26.64,26.64,0,0,1-3.92.23c1.81-3.72,8.86-7,14.66-6,4.42.76,8.55,2.05,13.08,2.4,1.82.14,5.82-.46,7.37.54,1.21.77,1.94,3.59,1.94,4.61,0,3-13.43,0-16.21-.39-3.66-.51-7.53-1.71-11.25-1.82A38.69,38.69,0,0,0,109.39,133.73Z"/><path class="cls-19" d="M207.16,126.82c-4.07,1-7.85,2.45-12,3-1.68.23-5.42-.18-6.82.89-1.09.83-1.63,3.69-1.58,4.7.17,3,12.47-.66,15-1.17,3.39-.68,6.9-2.06,10.36-2.36a34.83,34.83,0,0,1,5.3.18,23.22,23.22,0,0,0,3.64,0C219.2,128.5,212.49,125.54,207.16,126.82Z"/><path class="cls-11" d="M175.66,170.59c1.56,1.58-2.88,6.28-8.49,7-5,.6-11.32-4.48-8.58-6.11s4.43,0,8.46-.24C171.53,171,173.84,168.76,175.66,170.59Z"/><path class="cls-20" d="M99.67,142.19a19.4,19.4,0,0,0,23.69,3.87c6.31-3.19,10.56,3,10.56,3s-2.88-10.9-12.86-8.48C116,141.81,110.94,146.58,99.67,142.19Z"/><path class="cls-20" d="M230,142.78a19.42,19.42,0,0,1-23.7,3.86c-6.31-3.19-10.56,3-10.56,3s2.87-10.9,12.86-8.48C213.73,142.39,218.75,147.16,230,142.78Z"/></g></g></svg>