<svg xmlns="http://www.w3.org/2000/svg" xmlns:xlink="http://www.w3.org/1999/xlink" viewBox="0 0 300 300"><defs><style>.cls-1{fill:none;}.cls-2{isolation:isolate;}.cls-3{clip-path:url(#clip-path);}.cls-4{fill:#e8eda6;}.cls-5{fill:#e8e8e8;}.cls-6{fill:#a09d98;opacity:0.2;mix-blend-mode:multiply;}.cls-7{fill:#5e4684;}.cls-8{fill:#1c1c26;}.cls-9{fill:#313142;}.cls-10{fill:#f5f5f5;}.cls-11{fill:#854422;}.cls-12{fill:#261b18;}.cls-13{fill:#9c552c;}.cls-14,.cls-15,.cls-17{fill:#66241b;}.cls-14{opacity:0.4;}.cls-15,.cls-19,.cls-27{opacity:0.7;}.cls-16{fill:#45362e;}.cls-17{opacity:0.5;}.cls-18{fill:#d17642;}.cls-19{fill:#f0ded1;}.cls-20{fill:#d47b48;}.cls-21{fill:#732e2b;}.cls-22{fill:#fff9f0;}.cls-23{fill:#e8dac5;}.cls-24{fill:#212126;}.cls-25,.cls-26,.cls-27{fill:#fff;}.cls-25{opacity:0.3;}.cls-28{fill:#1e1e29;}</style><clipPath id="clip-path"><circle id="SVGID" class="cls-1" cx="150.12" cy="149.95" r="149.95"/></clipPath></defs><title>people avatar</title><g class="cls-2"><g id="图层_20" data-name="图层 20"><g class="cls-3"><rect class="cls-4" x="0.11" width="299.91" height="299.9"/><path class="cls-5" d="M190.15,247.32c-9.53-23.19-60.3-16.42-73.71-5.15s-17.12,24.78,3,44.52a115.79,115.79,0,0,0,15.92,13.2h27.08C174.9,286.42,195.77,261,190.15,247.32Z"/><path class="cls-6" d="M120.9,253.93a44.1,44.1,0,0,0,17.19,22.67l14.15-13.48,15.06,12.76c14.39-12.74,17.21-20.75,18.41-25.29C189.45,236.36,114.63,234.05,120.9,253.93Z"/><path class="cls-7" d="M163.2,264.67s-3.39-7.76-13.26-5.91c-8.84,1.66-10.12,9.26-10.12,9.26l7.29,7.38-7.25,24.49H168.5l-9.69-26Z"/><path class="cls-8" d="M211.49,255.5c-3.33-3.62-19.58-14.06-25.51-16.9.62,1.46,2.75,4.63,2.61,6.14-1.63,17.68-13.56,40-22.86,55.15h37.54C206.69,282.74,213.49,257.68,211.49,255.5Z"/><path class="cls-8" d="M116.05,244.48a22.34,22.34,0,0,1,2.44-4.59c-10.66,4.56-30.29,13.94-32,17.4-1.42,2.85,8,22.33,12.54,42.6h41.8C127.88,282.77,111.15,257.11,116.05,244.48Z"/><path class="cls-9" d="M196.24,281c-.45-2.38-8.37-14.65-8.37-14.65l14.64-9C195.52,242.9,182,234,182,234c2.46,24.7-10,50.26-19.15,65.91H177C186.91,290.57,196.36,281.54,196.24,281Z"/><path class="cls-9" d="M100.71,260.2l17.47,7.17s-7.51,15.75-7.76,18.28c-.07.67,7.74,7.09,16.72,14.24h16.55c-9.56-14.06-22.49-37-22.49-63C121.2,236.84,106.39,244.46,100.71,260.2Z"/><path class="cls-10" d="M118.53,240.1c-7,17.93,18.5,32.52,18.5,32.52l15.21-9.5L166.43,272s28.08-14.57,17.46-35.47C174.32,217.78,126.67,219.3,118.53,240.1Z"/><path class="cls-11" d="M141.13,215c-9.07,2-15.09,10.61-15.71,19.48-.49,6.87.61,10.85,4.45,14.67a30.74,30.74,0,0,0,12,6.91c3.34,1,9.2,4.94,10.23,5,.41,0,2.35-1.68,5.51-3.31,4.61-2.37,11.14-5.52,13.68-10.49,3.72-7.28,7-21.68,0-27.34C164,214.05,149.82,213.12,141.13,215Z"/><path class="cls-12" d="M224.73,70c3-4.92,6.16-7.46.65-11.88a17.93,17.93,0,0,0-16.94-2.56c3.06-12.54-14.29-15.55-21.06-8.47-1.94-13.9-15.28-15.77-23.4-5.8-3.95-10.49-19-12.55-21.68.07-9.06-11.69-25.7-5.54-28.68,7.88-7.37-9.5-23.69-4.37-22.62,8.92-5.87-2.48-13.71-3.1-19.59,3.81-3.94,4.64-2.78,13.07.12,17.62-15.92-1-13.39,13.07-5.5,20.95-12.36.78-17.75,18.22-2.89,19.57-8.06,2.86-9,13.69.72,15.2-9.94,3.56-5.7,12.36,3,14.25-3,8.84-1.1,12.34,5.8,17.79,4.22,3.33,7.13,7.53,10.77,11.6,9.56,10.68,16.4,23.45,25.69,34.11,9,10.31,19.25-7.39,26.78-11.7,10-5.7,22.09-8.79,33.56-7.08,10.16,1.5,17.31,12.11,27.64,12.34,6.26.14,10.27-5.18,12.87-10.21,2.93-5.66,2-10.11,3.21-15.65,1.15-5.22,6.12-6.7,9.32-10.37,1.37-1.59,5.45-12,0-11.94,9.24-.09,9.22-7.78,6.21-13.68a18.14,18.14,0,0,0-2.27-3.42c10.06-1.5,6.21-9.13,2.58-14.94,3.5-2.28,6-2.6,5.68-7.23-.26-4-3.95-7.31-7.27-8.93,3.54-2.56,7.92-2.63,8.37-7.59.41-4.61-3.84-9.11-7-11.76C243.73,87.45,237,71.56,224.73,70Z"/><path class="cls-13" d="M138.48,63.58C101.32,70.82,75.14,124.25,82,174.39,87.08,211.93,116,253.12,159.65,250c44.49-3.17,66.64-58.37,60.89-104.53C214.29,95.28,190.52,53.44,138.48,63.58Z"/><path class="cls-14" d="M186.36,71.48A167.18,167.18,0,0,0,141.3,64.4c-13.57-.24-28.3-1-41,4.73-6.95,3.14-15.48,7.45-18.08,15.14-3.23,9.58-1.68,21.62-.11,31.4,1.72,10.7,4.34,21.65,10,31,.44-6.65,3.42-13,4.88-19.44.85-3.76,1.74-7.51,2.62-11.26,7-.31,12.6-5.83,11.59-12.79,4.81.13,11-1.73,11.86-7.09a12,12,0,0,0,8,3.19h.6c5.42.06,6.19-3.41,9.82-4.85,5-2,13.44,3.66,16.76-3.76,5.8,3.63,13.1,6.06,18.37-.08,3.71,5.68,14.4,9.14,19.9,3.94,5.76,5.63,22.66-.75,17.76-9.89C210.26,77,193.87,73.73,186.36,71.48Z"/><path class="cls-13" d="M69,153.5c-18.24,5-10.93,31.67,4,37a36,36,0,0,0,14.74,1.61l.29-.46c2.19-3.46-.87-22.88-2-26.54C83.21,155.92,77.75,151.09,69,153.5Z"/><path class="cls-15" d="M75.4,163.31c-4.11-1.9-14.34,1.52-9.53,9.52,2.54-7.42,7.07-2.56,6.38,2.73-.47,3.55-4.28,3.59-.49,8.14,2,2.46,6.18,1.54,8.28.23C86.68,179.74,80.4,165.61,75.4,163.31Z"/><path class="cls-12" d="M168.78,48.42a126,126,0,0,0-38.22-1.15c-21,2.51-46.44,12.5-53.09,34.79-4.09,13.69-2,29.57-.91,43.57.64,8.47-2.78,24.84,4.47,31.24,8.43,7.44,11.77-3.77,12.57-11.82,1.18-11.89,2.56-23.35,4.17-35.06,7.6.69,11.08-5.76,10.74-12.43,6.06,1.49,13.58.29,15.76-6.42,2.58,1.7,6.74,3,10,2.44,3.5-.61,4.77-4.72,6.71-5.27,2.76-.79,7.12,2.82,10.46,2.18,3.62-.7,5.4-3.31,7.33-6.42,5.07,8,16.67,6.17,22.62.56a12,12,0,0,0,18.29,5.85c-2.85,1.89,4.16,7.76,7.78,9.89a5.48,5.48,0,0,0,1.73.77c5,.6,7.64-3.19,9.89-7.14,5.61-9.91,1.22-20.25-5.92-28.18C204,55.68,181.69,50.91,168.78,48.42Z"/><path class="cls-16" d="M218.69,75.55c2.09-3.15,3.52-8.38,0-11.2-3.16-2.51-13.15-1.61-15.72,1.53,1.19-4.46.63-11.7-4-14.24-4-2.19-9.33,4.77-11.24,8,0-5.1-4.85-12.28-9.07-15-6.64-4.26-10,3.8-12.87,8.51-1.22-5-6.49-9.11-11.44-9.93-5.94-1-8.59,6.54-10.83,11C139,50,136.56,43.86,129.57,43.85c-4,0-7.58.88-9.62,4.62-1.88,3.42-.57,7.18-1.93,10.66-5.55-2.72-8.84-7.36-15.66-6.88-8.07.57-8.13,6.57-8.47,13.14C76.13,58.06,70.48,73.73,78.16,84c-8.38,1.27-9.71,18.72,0,19.29-6.6,3.36-8.4,9.85-.29,13.29,9.19,3.89,11.51-7.54,9.13-14,6.21.54,7.18-4.74,7.08-9.59,3.27,1,4.83,2.65,8.3,1.17,3.73-1.6,3.67-4,4-7.7,3.07,1.52,6,4.5,9.8,2.78,2.78-1.26,4.2-5.36,4.74-8.14,1.89,2.68,5.16,4.81,8.44,4.4,4.17-.52,5.15-3,6.71-6.29,3.4,2.7,6.62,4.41,11,3.24,4.91-1.31,5.78-4,7.5-8.29,6.65,5.06,19.21,10.13,24.47,0,4.77,6.63,16.58,14.81,23.82,6.15,5,5.77,9.58,13.39,18.64,10.37C231.62,87.27,228.78,75.78,218.69,75.55Z"/><path class="cls-17" d="M99.11,155.61c.58,3,7.4.75,9.56,1-1.62,2.12-7.08,2.75-9.17,4.31s-1.85,2.56,1,2.16c1.68-.25,10.91-3.58,12-4.76C117.15,153.35,101.43,154.68,99.11,155.61Z"/><path class="cls-17" d="M210.36,155.35c1.86-.25,7.78,2.07,8.28-1-2-.93-15.64-2.29-11.6,2.68,1,1.19,9,4.54,10.42,4.79,2.46.4,2.77-.5.84-2.16S211.76,157.47,210.36,155.35Z"/><path class="cls-12" d="M124.12,143.18c-13.28-3.6-21.65,11.23-12.58,16.07a29.72,29.72,0,0,1,13.16.71C133.62,157.05,134,145.86,124.12,143.18Z"/><path class="cls-15" d="M161.83,173.37c-4.66,0-8.75-2.07-13.12-.13s.65,8.13,13,7.83,15.72-5.93,13.42-8C172.47,170.6,167,173.3,161.83,173.37Z"/><path class="cls-18" d="M161.53,146.66c-10.52-.91-18.78,19.49-14.31,26.17,3.14,4.69,26.3,4.53,29.93-1C178.48,169.87,171.57,147.53,161.53,146.66Z"/><path class="cls-19" d="M119.4,145.77c-5.4,1.16-1.29,7.75,4,5.35C127.17,149.38,124.19,144.75,119.4,145.77Z"/><path class="cls-12" d="M126.79,120.91c-11.73-1.54-30.35,2.54-28.59,8.71s8.37,1.23,17.31,1.41c9.49.2,17,2.88,20.93.05C143,126.34,136.53,122.19,126.79,120.91Z"/><path class="cls-12" d="M193.68,120.23c-9.26,1.46-15.47,5.7-9.35,10.28,3.67,2.73,10.86-.07,19.87-.45,8.49-.36,14.67,4.42,16.46-1.74S204.85,118.47,193.68,120.23Z"/><path class="cls-12" d="M205.91,141.35c-13.65-1.8-20,14-10.33,17.61a29.44,29.44,0,0,1,13.14-1.06C217.17,153.83,216.08,142.69,205.91,141.35Z"/><path class="cls-19" d="M201.57,144.54c-5.19,1.85-.24,7.85,4.65,4.77C209.75,147.09,206.19,142.89,201.57,144.54Z"/><path class="cls-20" d="M203.11,183.86C186,189.28,142,189.59,122.88,187c-3-.42-9.79-3.63-7.29,2.44,1.53,3.7,2.73,7.64,4.53,11.21,8.39,16.54,16.38,30.19,39.64,30.57,24.14.38,30.73-14.48,31.67-27.2.31-4.11,2.82-7.93,5.29-11.1.9-1.16,8.67-8.58,8.1-9.28C204.56,183.31,203.39,183.77,203.11,183.86Z"/><path class="cls-17" d="M112.09,184.05c-3.33,2.21-3.25,9.29-.57,9.62s2.73-4.8,3.4-6.26a6.41,6.41,0,0,1,3.71-2.87c1.07-.42,2.18-.73,3.08-1,.37-.12,4.46-1.06,3.5-1.59C125.21,181.94,115.82,181.59,112.09,184.05Z"/><path class="cls-17" d="M197.52,181c-1.71.43,1.45,1,5.59,2,3.76.88.13,7.08,2.75,7.44s5.28-4.17,3.48-7.92S197.52,181,197.52,181Z"/><path class="cls-21" d="M121.19,190.25s10.43,31.56,39,30.55c25.76-.91,28.78-11.67,29.91-19.21,1.49-10.08,8.45-14.05,8.45-14.05C154.72,200.54,121.19,190.25,121.19,190.25Z"/><path class="cls-22" d="M130.58,193.51s.34,10.23,9.17,14.09c11.31,5,24,5.51,36.88,1.69,8.69-2.56,13.68-18.06,13.68-18.06S166,196.33,130.58,193.51Z"/><path class="cls-22" d="M166.53,209.39c-12.23.19-22.78-1.57-28.51-4.08-4.77-2.08-4.81.83-3.92,3.41,0,0,1.59,10.54,23.89,12.38,19.5,1.62,28-11.74,25.78-14.49S178.76,209.18,166.53,209.39Z"/><path class="cls-23" d="M130.53,193.37a17.26,17.26,0,0,0,1,4.47s46.25-5,56.54-.91a26.16,26.16,0,0,0,2.27-5.7S157.61,196.32,130.53,193.37Z"/><path class="cls-23" d="M140.57,205.38c19.27,10.09,40.51.7,40.51.7C157.29,211.46,140.57,205.38,140.57,205.38Z"/><path class="cls-24" d="M173.51,134.76c-5.67,6.64-2.79,28.8.92,36.05s42.84,8.05,52.3,4.52,17.13-29.21,10.4-39.48S181.84,125,173.51,134.76Zm51.05,35.7c-7.11,2.47-42,1.79-45.35-2.94s-4.5-24.64-.47-29.13c5.92-6.61,46.85-5.66,52.77,1S231.64,168,224.56,170.46Z"/><path class="cls-24" d="M78.62,136.87c-7.18,6.94.22,29.67,6.25,36.63s51.37,4.06,60.48.07,9.13-28.76,1.39-38.59S89.16,126.67,78.62,136.87Zm62.94,32.41c-6.82,2.68-46,4.73-51.22.37s-11-24.42-6-29c7.44-6.67,50.76-8.28,57.32-2.13S148.37,166.58,141.56,169.28Z"/><path class="cls-24" d="M151.81,148.11c-1,.48-5.07,6.24-2.17,7.59.71.35,9.19-7.12,22.28-1.81,1.67.7,3.26.51,2.69-1.76C172.53,143.62,157.78,145.16,151.81,148.11Z"/><path class="cls-25" d="M203.18,135.63c-2.65.69-20.73,4.13-17.34,12.62,2.23,5.61,44.22,9.45,47.06.15C238.69,129.42,208.37,134.27,203.18,135.63Z"/><path class="cls-25" d="M138.65,135.61c-6.86-2.16-21.39-1-29.78.42-3,.5-16.87,2.79-12.12,11.8,4.86,9.21,39.63,10.61,46,3S142.66,136.88,138.65,135.61Z"/><path class="cls-26" d="M206.1,137.06c-4.53.17-7.61,1.17-6.64,3.48,1.91,4.55,28.37,5.63,30.53,2.64S215.81,136.73,206.1,137.06Z"/><path class="cls-27" d="M185.71,161.62c-2.8-.35-4.81.12-4.46,2.06.68,3.81,16.85,7.49,18.5,5.34S191.71,162.37,185.71,161.62Z"/><path class="cls-26" d="M119.45,136.25c-4.45.23-7.46,1.21-6.46,3.3,2,4.14,28,4.7,30,1.92S129,135.79,119.45,136.25Z"/><path class="cls-27" d="M93,162.67c-2.78-.29-4.71.18-4.36,2,.77,3.5,16.69,6.6,18.27,4.6S98.85,163.26,93,162.67Z"/><path class="cls-28" d="M71.12,299.89h32.66L90,254.36C77.58,262.17,70.85,267.13,71.12,299.89Z"/><path class="cls-28" d="M210.11,254.36l-13.76,45.53H229C229.28,267.13,222.56,262.17,210.11,254.36Z"/></g></g></g></svg>